<svg viewBox="0 0 1372.1875 400" xmlns="http://www.w3.org/2000/svg"><g><g><g><g><g><line x1="63.984375" y1="372.759308223729" x2="58.984375" y2="372.759308223729" style="visibility: inherit;" fill="rgb(0, 0, 0)" stroke="rgb(204, 204, 204)" stroke-width="1px"></line><line x1="63.984375" y1="338.82520810928844" x2="58.984375" y2="338.82520810928844" style="visibility: inherit;" fill="rgb(0, 0, 0)" stroke="rgb(204, 204, 204)" stroke-width="1px"></line><line x1="63.984375" y1="304.8911079948478" x2="58.984375" y2="304.8911079948478" style="visibility: inherit;" fill="rgb(0, 0, 0)" stroke="rgb(204, 204, 204)" stroke-width="1px"></line><line x1="63.984375" y1="270.95700788040716" x2="58.984375" y2="270.95700788040716" style="visibility: inherit;" fill="rgb(0, 0, 0)" stroke="rgb(204, 204, 204)" stroke-width="1px"></line><line x1="63.984375" y1="237.02290776596655" x2="58.984375" y2="237.02290776596655" style="visibility: inherit;" fill="rgb(0, 0, 0)" stroke="rgb(204, 204, 204)" stroke-width="1px"></line><line x1="63.984375" y1="203.0888076515259" x2="58.984375" y2="203.0888076515259" style="visibility: inherit;" fill="rgb(0, 0, 0)" stroke="rgb(204, 204, 204)" stroke-width="1px"></line><line x1="63.984375" y1="169.1547075370853" x2="58.984375" y2="169.1547075370853" style="visibility: inherit;" fill="rgb(0, 0, 0)" stroke="rgb(204, 204, 204)" stroke-width="1px"></line><line x1="63.984375" y1="135.2206074226447" x2="58.984375" y2="135.2206074226447" style="visibility: inherit;" fill="rgb(0, 0, 0)" stroke="rgb(204, 204, 204)" stroke-width="1px"></line><line x1="63.984375" y1="101.28650730820405" x2="58.984375" y2="101.28650730820405" style="visibility: inherit;" fill="rgb(0, 0, 0)" stroke="rgb(204, 204, 204)" stroke-width="1px"></line><line x1="63.984375" y1="67.35240719376341" x2="58.984375" y2="67.35240719376341" style="visibility: inherit;" fill="rgb(0, 0, 0)" stroke="rgb(204, 204, 204)" stroke-width="1px"></line><line x1="63.984375" y1="33.418307079322815" x2="58.984375" y2="33.418307079322815" style="visibility: inherit;" fill="rgb(0, 0, 0)" stroke="rgb(204, 204, 204)" stroke-width="1px"></line></g><g transform="translate(53.984375, 0)"><text x="0" y="372.759308223729" dx="0em" dy="0.3em" style="text-anchor: end; visibility: hidden; font-family: Roboto, sans-serif; font-size: 12px; font-weight: 200;" fill="rgb(33, 33, 33)" stroke="none" stroke-width="1px">0.99</text><text x="0" y="338.82520810928844" dx="0em" dy="0.3em" style="text-anchor: end; visibility: inherit; font-family: Roboto, sans-serif; font-size: 12px; font-weight: 200;" fill="rgb(33, 33, 33)" stroke="none" stroke-width="1px">0.991</text><text x="0" y="304.8911079948478" dx="0em" dy="0.3em" style="text-anchor: end; visibility: inherit; font-family: Roboto, sans-serif; font-size: 12px; font-weight: 200;" fill="rgb(33, 33, 33)" stroke="none" stroke-width="1px">0.992</text><text x="0" y="270.95700788040716" dx="0em" dy="0.3em" style="text-anchor: end; visibility: inherit; font-family: Roboto, sans-serif; font-size: 12px; font-weight: 200;" fill="rgb(33, 33, 33)" stroke="none" stroke-width="1px">0.993</text><text x="0" y="237.02290776596655" dx="0em" dy="0.3em" style="text-anchor: end; visibility: inherit; font-family: Roboto, sans-serif; font-size: 12px; font-weight: 200;" fill="rgb(33, 33, 33)" stroke="none" stroke-width="1px">0.994</text><text x="0" y="203.0888076515259" dx="0em" dy="0.3em" style="text-anchor: end; visibility: inherit; font-family: Roboto, sans-serif; font-size: 12px; font-weight: 200;" fill="rgb(33, 33, 33)" stroke="none" stroke-width="1px">0.995</text><text x="0" y="169.1547075370853" dx="0em" dy="0.3em" style="text-anchor: end; visibility: inherit; font-family: Roboto, sans-serif; font-size: 12px; font-weight: 200;" fill="rgb(33, 33, 33)" stroke="none" stroke-width="1px">0.996</text><text x="0" y="135.2206074226447" dx="0em" dy="0.3em" style="text-anchor: end; visibility: inherit; font-family: Roboto, sans-serif; font-size: 12px; font-weight: 200;" fill="rgb(33, 33, 33)" stroke="none" stroke-width="1px">0.997</text><text x="0" y="101.28650730820405" dx="0em" dy="0.3em" style="text-anchor: end; visibility: inherit; font-family: Roboto, sans-serif; font-size: 12px; font-weight: 200;" fill="rgb(33, 33, 33)" stroke="none" stroke-width="1px">0.998</text><text x="0" y="67.35240719376341" dx="0em" dy="0.3em" style="text-anchor: end; visibility: inherit; font-family: Roboto, sans-serif; font-size: 12px; font-weight: 200;" fill="rgb(33, 33, 33)" stroke="none" stroke-width="1px">0.999</text><text x="0" y="33.418307079322815" dx="0em" dy="0.3em" style="text-anchor: end; visibility: inherit; font-family: Roboto, sans-serif; font-size: 12px; font-weight: 200;" fill="rgb(33, 33, 33)" stroke="none" stroke-width="1px">1</text></g><line x1="63.984375" y1="0" x2="63.984375" y2="376" fill="rgb(0, 0, 0)" stroke="rgb(204, 204, 204)" stroke-width="1px"></line></g></g><g transform="translate(63, 0)" clip-path="url(#clip_0)"><clipPath id="clip_0"><rect width="1308" height="375"></rect></clipPath><g><g><g><line x1="78.57648964758145" y1="0" x2="78.57648964758145" y2="376" fill="rgb(0, 0, 0)" stroke="rgb(66, 66, 66)" stroke-width="1px" opacity="0.25"></line><line x1="167.12591913366123" y1="0" x2="167.12591913366123" y2="376" fill="rgb(0, 0, 0)" stroke="rgb(66, 66, 66)" stroke-width="1px" opacity="0.25"></line><line x1="255.67534861974096" y1="0" x2="255.67534861974096" y2="376" fill="rgb(0, 0, 0)" stroke="rgb(66, 66, 66)" stroke-width="1px" opacity="0.25"></line><line x1="344.2247781058207" y1="0" x2="344.2247781058207" y2="376" fill="rgb(0, 0, 0)" stroke="rgb(66, 66, 66)" stroke-width="1px" opacity="0.25"></line><line x1="432.7742075919004" y1="0" x2="432.7742075919004" y2="376" fill="rgb(0, 0, 0)" stroke="rgb(66, 66, 66)" stroke-width="1px" opacity="0.25"></line><line x1="521.3236370779802" y1="0" x2="521.3236370779802" y2="376" fill="rgb(0, 0, 0)" stroke="rgb(66, 66, 66)" stroke-width="1px" opacity="0.25"></line><line x1="609.8730665640599" y1="0" x2="609.8730665640599" y2="376" fill="rgb(0, 0, 0)" stroke="rgb(66, 66, 66)" stroke-width="1px" opacity="0.25"></line><line x1="698.4224960501397" y1="0" x2="698.4224960501397" y2="376" fill="rgb(0, 0, 0)" stroke="rgb(66, 66, 66)" stroke-width="1px" opacity="0.25"></line><line x1="786.9719255362195" y1="0" x2="786.9719255362195" y2="376" fill="rgb(0, 0, 0)" stroke="rgb(66, 66, 66)" stroke-width="1px" opacity="0.25"></line><line x1="875.5213550222992" y1="0" x2="875.5213550222992" y2="376" fill="rgb(0, 0, 0)" stroke="rgb(66, 66, 66)" stroke-width="1px" opacity="0.25"></line><line x1="964.070784508379" y1="0" x2="964.070784508379" y2="376" fill="rgb(0, 0, 0)" stroke="rgb(66, 66, 66)" stroke-width="1px" opacity="0.25"></line><line x1="1052.6202139944587" y1="0" x2="1052.6202139944587" y2="376" fill="rgb(0, 0, 0)" stroke="rgb(66, 66, 66)" stroke-width="1px" opacity="0.25"></line><line x1="1141.1696434805383" y1="0" x2="1141.1696434805383" y2="376" fill="rgb(0, 0, 0)" stroke="rgb(66, 66, 66)" stroke-width="1px" opacity="0.25"></line><line x1="1229.719072966618" y1="0" x2="1229.719072966618" y2="376" fill="rgb(0, 0, 0)" stroke="rgb(66, 66, 66)" stroke-width="1px" opacity="0.25"></line></g><g><line x1="0" y1="372.759308223729" x2="1308.205625" y2="372.759308223729" fill="rgb(0, 0, 0)" stroke="rgb(66, 66, 66)" stroke-width="1px" opacity="0.25"></line><line x1="0" y1="338.82520810928844" x2="1308.205625" y2="338.82520810928844" fill="rgb(0, 0, 0)" stroke="rgb(66, 66, 66)" stroke-width="1px" opacity="0.25"></line><line x1="0" y1="304.8911079948478" x2="1308.205625" y2="304.8911079948478" fill="rgb(0, 0, 0)" stroke="rgb(66, 66, 66)" stroke-width="1px" opacity="0.25"></line><line x1="0" y1="270.95700788040716" x2="1308.205625" y2="270.95700788040716" fill="rgb(0, 0, 0)" stroke="rgb(66, 66, 66)" stroke-width="1px" opacity="0.25"></line><line x1="0" y1="237.02290776596655" x2="1308.205625" y2="237.02290776596655" fill="rgb(0, 0, 0)" stroke="rgb(66, 66, 66)" stroke-width="1px" opacity="0.25"></line><line x1="0" y1="203.0888076515259" x2="1308.205625" y2="203.0888076515259" fill="rgb(0, 0, 0)" stroke="rgb(66, 66, 66)" stroke-width="1px" opacity="0.25"></line><line x1="0" y1="169.1547075370853" x2="1308.205625" y2="169.1547075370853" fill="rgb(0, 0, 0)" stroke="rgb(66, 66, 66)" stroke-width="1px" opacity="0.25"></line><line x1="0" y1="135.2206074226447" x2="1308.205625" y2="135.2206074226447" fill="rgb(0, 0, 0)" stroke="rgb(66, 66, 66)" stroke-width="1px" opacity="0.25"></line><line x1="0" y1="101.28650730820405" x2="1308.205625" y2="101.28650730820405" fill="rgb(0, 0, 0)" stroke="rgb(66, 66, 66)" stroke-width="1px" opacity="0.25"></line><line x1="0" y1="67.35240719376341" x2="1308.205625" y2="67.35240719376341" fill="rgb(0, 0, 0)" stroke="rgb(66, 66, 66)" stroke-width="1px" opacity="0.25"></line><line x1="0" y1="33.418307079322815" x2="1308.205625" y2="33.418307079322815" fill="rgb(0, 0, 0)" stroke="rgb(66, 66, 66)" stroke-width="1px" opacity="0.25"></line></g></g></g><g><g><line x1="0" y1="33967.51842151992" x2="1308.205625" y2="33967.51842151992" fill="rgb(0, 0, 0)" stroke="rgb(153, 153, 153)" stroke-width="1.5px"></line></g></g><g><g><line x1="255.67534861974096" y1="0" x2="255.67534861974096" y2="376" fill="rgb(0, 0, 0)" stroke="rgb(153, 153, 153)" stroke-width="1.5px"></line></g></g><g><g><g><g><g><path stroke="rgb(204, 51, 17)" stroke-width="2px" d="M291.09512041417287,386.80438487132756L295.5225918884768,340.1839328465973L299.95006336278084,313.7544524935185L304.3775348370848,319.7238354120666L308.8050063113888,302.9099084986223L313.23247778569277,290.1191196739644L317.6599492599968,279.73460864345594L322.08742073430074,289.80026807930597L326.51489220860475,314.84407640497415L330.94236368290876,305.43260534785964L335.3698351572127,321.50504058615024L339.7973066315167,310.7873370735789L344.2247781058207,294.85525071229375L348.6522495801247,277.15138895974184L353.07972105442866,273.31641181475743L357.5071925287327,277.80180518651736L361.93466400303663,304.92565821374325L366.36213547734064,304.912058165131L370.7896069516446,294.0447911833802L375.2170784259486,311.95701426044616L379.64454990025257,295.55740048326106L384.0720213745566,302.0054744128503L388.4994928488606,290.94326134256545L392.92696432316455,293.80744180426365L397.3544357974685,281.9524839966883L401.7819072717726,273.48192039089673L406.20937874607654,277.9010891546692L410.6368502203805,287.3397276055854L415.06432169468445,275.35748653211596L419.4917931689884,285.81356597352243L423.9192646432925,269.01224166298255L428.34673611759644,273.8625016557694L432.7742075919004,279.4870270867868L437.2016790662044,276.07541421996723L441.6291505405084,283.5299531122498L446.0566220148124,283.92990871158065L450.48409348911633,293.6713886807046L454.91156496342035,288.6579898596084L459.33903643772436,289.7219092492685L463.7665079120283,316.1504112720482L468.19397938633233,322.5060058766321L472.6214508606363,310.03071885933576L477.0489223349403,314.76142269498297L481.4763938092443,297.24005158647856L485.90386528354827,286.7272289214008L490.3313367578522,292.6354113682797L494.7588082321563,281.2492663011884L499.18627970646025,271.7032098236286L503.6137511807642,276.8338627383401L508.04122265506817,269.0539676859173L512.4686941293722,280.6738653823265L516.8961656036762,271.35796927231524L521.3236370779802,296.9873208693635L525.7511085522841,305.57860370831617L530.1785800265882,282.2280445339522L534.6060515008921,280.43439412721784L539.0335229751961,269.856697274599L543.4609944495,254.00857255444333L547.8884659238041,255.3587935755883L552.3159373981081,250.7393782616561L556.743408872412,268.32833153511274L561.170880346716,291.0975795450761L565.5983518210201,278.9689779626228L570.025823295324,275.76458474711063L574.453294769628,284.70023561903724L578.8807662439319,279.20333934096004L583.308237718236,292.1930363019691L587.73570919254,301.3444437232285L592.1631806668439,301.4057402493673L596.5906521411479,279.7243264585821L601.0181236154519,276.21779384468545L605.4455950897559,283.61538088492733L609.8730665640599,281.2667959378052L614.3005380383639,282.57201440684156L618.7280095126679,283.3551454882641L623.1554809869718,277.0386960178444L627.5829524612758,289.53666106344565L632.0104239355799,280.7476053629473L636.4378954098838,286.33326779588594L640.8653668841878,286.96948676634327L645.2928383584918,281.9216702219985L649.7203098327958,272.10665217611614L654.1477813070998,259.43050417732104L658.5752527814038,274.8997872771695L663.0027242557078,280.1093984551127L667.4301957300117,275.09124779794973L671.8576672043157,281.5818640122326L676.2851386786197,296.33532959403766L680.7126101529237,278.03966931003384L685.1400816272277,291.4948342834111L689.5675531015318,273.77778287900907L693.9950245758357,276.7218263789053L698.4224960501397,263.55719794364256L702.8499675244436,269.2318861730329L707.2774389987476,272.63669911066853L711.7049104730515,278.7515455552121L716.1323819473557,285.1356319112425L720.5598534216597,274.03502918966257L724.9873248959636,279.590543602607L729.4147963702676,262.5632497885615L733.8422678445716,256.4188321820994L738.2697393188755,256.8049493521797L742.6972107931795,296.40023533320414L747.1246822674834,284.86574992480394L751.5521537417876,280.6594281170741L755.9796252160916,282.2075937144029L760.4070966903955,274.9925757088721L764.8345681646995,274.7355235875203L769.2620396390034,274.5812923147085L773.6895111133074,281.2758907222893L778.1169825876113,277.14873240290984L782.5444540619153,270.59966967732004L786.9719255362195,254.45435599607518L791.3993970105234,248.8391264692942L795.8268684848274,260.40104328842386L800.2543399591314,255.12150828201524L804.6818114334353,257.383335204784L809.1092829077393,261.45560984775483L813.5367543820432,273.40048124211415L817.9642258563473,262.9211710542302L822.3916973306514,282.4237353299289L826.8191688049553,281.90939784945795L831.2466402792593,273.4560689452519L835.6741117535632,264.31211292076387L840.1015832278672,261.5409177953784L844.5290547021712,259.8782007201463L848.9565261764752,264.310118401624L853.3839976507792,265.6116797658581L857.8114691250832,255.53352073116622L862.2389405993872,253.55858399231244L866.6664120736912,279.52136158208555L871.0938835479951,274.7384256741373L875.5213550222992,293.5860467838406L879.9488264966031,273.67573018660596L884.3762979709071,271.2310468368488L888.8037694452111,268.40664758233964L893.2312409195151,276.21351463821327L897.6587123938191,290.3991414803187L902.086183868123,271.7635870044906L906.5136553424271,249.7231584657584L910.9411268167311,259.5738732416468L915.368598291035,281.7729458870344L919.796069765339,307.30826552016083L924.2235412396429,290.05297879232546L928.651012713947,281.057396000282L933.0784841882511,264.80095047181976L937.505955662555,265.90617900797633L941.933427136859,281.5003706648685L946.360898611163,266.4243245152212L950.7883700854669,269.59457287133057L955.2158415597709,283.71340698287645L959.6433130340748,294.8990768871219L964.070784508379,285.32264410180863L968.498255982683,270.07446877004764L972.9257274569869,274.4998379135277L977.3531989312909,259.5088263751154L981.7806704055948,262.73090454995366L986.2081418798988,274.16565806343795L990.6356133542027,281.02651017152857L995.0630848285067,270.2119669011832L999.4905563028109,263.7232409389729L1003.9180277771148,278.83301857881315L1008.3454992514188,271.610241382865L1012.7729707257228,271.3493427992552L1017.2004422000267,273.90717308640126L1021.6279136743307,278.1562406959999L1026.0553851486347,272.56176389783184L1030.4828566229387,266.49070838161765L1034.9103280972427,275.0639511177815L1039.3377995715466,282.9230752487842L1043.7652710458508,278.1370431188068L1048.1927425201548,284.76693044940083L1052.6202139944587,279.24335623917676L1057.0476854687627,280.0011703950036L1061.4751569430666,273.6687217172333L1065.9026284173706,279.3707591191517L1070.3300998916745,271.93288570706665L1074.7575713659787,282.40121619501303L1079.1850428402827,256.10573598007414L1083.6125143145866,257.9738718236208L1088.0399857888906,259.09475332974733L1092.4674572631945,266.5544194046965L1096.8949287374985,265.60067112304904L1101.3224002118025,274.52992876263966L1105.7498716861066,286.67462051766796L1110.1773431604106,283.1023397174481L1114.6048146347146,287.74610840858566L1119.0322861090185,267.45658867214644L1123.4597575833225,272.92910985478545L1127.8872290576264,278.926992001683L1132.3147005319304,273.02421468124095" style="fill: none;" fill="none"></path></g><g><path stroke="rgb(0, 119, 187)" stroke-width="2px" d="M291.09512041417287,390.6503511177049L295.5225918884768,332.46620659103394L299.95006336278084,300.57497555679106L304.3775348370848,271.4895058023739L308.8050063113888,245.7200815638005L313.23247778569277,219.8180249423742L317.6599492599968,201.58061692290332L322.08742073430074,191.77260764997777L326.51489220860475,177.16327946713673L330.94236368290876,170.20444368651297L335.3698351572127,159.4863923729934L339.7973066315167,163.43487803191346L344.2247781058207,156.70346057767145L348.6522495801247,139.2027113085741L353.07972105442866,133.44025505949847L357.5071925287327,124.94401074558404L361.93466400303663,127.36725863418002L366.36213547734064,128.5202351032571L370.7896069516446,110.48487407144628L375.2170784259486,121.85031570138288L379.64454990025257,119.64459790262404L384.0720213745566,107.41595351579116L388.4994928488606,102.63537325163992L392.92696432316455,101.34710416753109L397.3544357974685,101.25051028132816L401.7819072717726,110.89470573343976L406.20937874607654,95.92337548052436L410.6368502203805,90.0999255596776L415.06432169468445,96.9091328432471L419.4917931689884,89.56275247952692L423.9192646432925,93.05208080234296L428.34673611759644,87.92569779375131L432.7742075919004,90.1896111526305L437.2016790662044,91.62320100220265L441.6291505405084,77.81766942585799L446.0566220148124,74.04643344966642L450.48409348911633,85.77300988089517L454.91156496342035,81.97898575670092L459.33903643772436,72.48259129441377L463.7665079120283,75.80972960203539L468.19397938633233,71.48812557128028L472.6214508606363,88.52438261294928L477.0489223349403,83.78029306688882L481.4763938092443,83.03899262567835L485.90386528354827,80.48905907454355L490.3313367578522,77.6799877425557L494.7588082321563,72.83600596176748L499.18627970646025,62.25818589340821L503.6137511807642,57.265037837082026L508.04122265506817,70.73982948161854L512.4686941293722,80.17905750502231L516.8961656036762,68.01756080405426L521.3236370779802,61.849290314038214L525.7511085522841,75.44585963544809L530.1785800265882,80.74622958817984L534.6060515008921,78.51146656908256L539.0335229751961,68.59708478528248L543.4609944495,71.44770519345286L547.8884659238041,67.29164143539218L552.3159373981081,64.34655216832543L556.743408872412,58.51805760203536L561.170880346716,74.65098937418152L565.5983518210201,77.11076844982145L570.025823295324,66.17658737093674L574.453294769628,58.488260245028314L578.8807662439319,59.9674254785685L583.308237718236,61.75701759114413L587.73570919254,72.9843753738263L592.1631806668439,73.40290302823857L596.5906521411479,62.37259862718517L601.0181236154519,57.78513648957771L605.4455950897559,67.89334969151746L609.8730665640599,63.35403313731578L614.3005380383639,66.94752116799552L618.7280095126679,71.81151100776778L623.1554809869718,67.05847391175458L627.5829524612758,64.13140981877332L632.0104239355799,65.60895217995714L636.4378954098838,66.94692860889096L640.8653668841878,68.87834199682058L645.2928383584918,63.267852002157085L649.7203098327958,57.645921048214326L654.1477813070998,55.62630646053354L658.5752527814038,65.01878218328908L663.0027242557078,58.84615377564097L667.4301957300117,57.39902274019525L671.8576672043157,57.05743696652398L676.2851386786197,66.7051206759661L680.7126101529237,66.02536021570046L685.1400816272277,68.32540096090631L689.5675531015318,67.22325389277559L693.9950245758357,59.116260158131624L698.4224960501397,52.8985199326619L702.8499675244436,46.00933681578158L707.2774389987476,44.35718940891435L711.7049104730515,61.19012542780657L716.1323819473557,59.1063730729775L720.5598534216597,61.46611165390205L724.9873248959636,57.46696981172113L729.4147963702676,52.81103869727543L733.8422678445716,53.176828062199704L738.2697393188755,51.36558117812589L742.6972107931795,63.81589099853312L747.1246822674834,64.96899892757975L751.5521537417876,58.44088369735539L755.9796252160916,59.4123067023626L760.4070966903955,63.90611784067628L764.8345681646995,61.41314503904061L769.2620396390034,62.323481985946806L773.6895111133074,60.01211251397489L778.1169825876113,61.55810430627846L782.5444540619153,57.52216540314623L786.9719255362195,51.264886561332396L791.3993970105234,50.21841627760547L795.8268684848274,57.261156055255704L800.2543399591314,58.55398644636135L804.6818114334353,63.391125687074755L809.1092829077393,60.201247722425904L813.5367543820432,65.50730093128809L817.9642258563473,62.824496853637996L822.3916973306514,59.78602858699272L826.8191688049553,60.74608648374035L831.2466402792593,60.19349369122259L835.6741117535632,62.49459320170683L840.1015832278672,60.114779243431634L844.5290547021712,56.65617036543889L848.9565261764752,53.678912066183415L853.3839976507792,50.53820404995129L857.8114691250832,49.105230252437785L862.2389405993872,55.916876973808535L866.6664120736912,62.26031101577112L871.0938835479951,68.47249206883552L875.5213550222992,61.896523566793725L879.9488264966031,56.14594746865727L884.3762979709071,54.726322312803056L888.8037694452111,49.135929694898444L893.2312409195151,50.068860636318966L897.6587123938191,51.98216318585764L902.086183868123,52.45377724923578L906.5136553424271,51.83384366280738L910.9411268167311,49.43116300792716L915.368598291035,54.98380909653581L919.796069765339,61.925386743524506L924.2235412396429,62.029701377660906L928.651012713947,57.12794712763892L933.0784841882511,51.25408110213672L937.505955662555,52.69329546534605L941.933427136859,50.84973611390421L946.360898611163,56.28640397234628L950.7883700854669,57.51768418438464L955.2158415597709,56.827666491551746L959.6433130340748,58.97106922647425L964.070784508379,55.74421884915118L968.498255982683,54.25955963498689L972.9257274569869,54.94803359728718L977.3531989312909,63.258274480657164L981.7806704055948,54.25510099560867L986.2081418798988,52.914637910631065L990.6356133542027,48.72609557193279L995.0630848285067,48.4694161778555L999.4905563028109,50.5718545505485L1003.9180277771148,53.412587064962445L1008.3454992514188,53.31203157669869L1012.7729707257228,49.19025727768738L1017.2004422000267,55.29071667061621L1021.6279136743307,53.761732821750385L1026.0553851486347,52.844342512430146L1030.4828566229387,47.33037434832736L1034.9103280972427,50.339071413061916L1039.3377995715466,51.84332231041982L1043.7652710458508,52.144747217862076L1048.1927425201548,53.22769513478126L1052.6202139944587,56.811086412413474L1057.0476854687627,55.57685669128254L1061.4751569430666,52.35414734334681L1065.9026284173706,51.99979122538646L1070.3300998916745,56.97643703923569L1074.7575713659787,56.57816003983645L1079.1850428402827,52.503478340254134L1083.6125143145866,53.21720830210394L1088.0399857888906,51.16408381595668L1092.4674572631945,49.029307099816L1096.8949287374985,54.21681175606324L1101.3224002118025,55.8252868943853L1105.7498716861066,54.308200462125086L1110.1773431604106,55.88012011802167L1114.6048146347146,52.08465438716601L1119.0322861090185,52.063820957792L1123.4597575833225,54.533492415421044L1127.8872290576264,53.081672762518515L1132.3147005319304,53.33920850134482" style="fill: none;" fill="none"></path></g></g></g></g><g opacity="0.2"><g><g><g><path stroke="rgb(204, 51, 17)" stroke-width="2px" d="M268.9577630426529,393.11877801275335L273.3852345169569,318.4655279667453L277.8127059912609,396.51275112438475L282.2401774655649,345.6112449698468L286.66764893986885,460.98812709546496L291.09512041417287,335.4313482649359L295.5225918884768,270.9579949238387L299.95006336278084,274.34994540548695L304.3775348370848,328.64542467165626L308.8050063113888,277.74391851711835L313.23247778569277,270.9579949238387L317.6599492599968,264.170048700576L322.08742073430074,304.89165815020294L326.51489220860475,352.3991911931095L330.94236368290876,291.31778833366064L335.3698351572127,345.6112449698468L339.7973066315167,294.71176144529204L344.2247781058207,270.9579949238387L348.6522495801247,250.59617888403372L353.07972105442866,267.5640218122074L357.5071925287327,284.5298421103979L361.93466400303663,345.6112449698468L366.36213547734064,304.89165815020294L370.7896069516446,277.74391851711835L375.2170784259486,338.82532137656716L379.64454990025257,270.9579949238387L384.0720213745566,311.67758174348256L388.4994928488606,274.34994540548695L392.92696432316455,298.10371192694026L397.3544357974685,264.170048700576L401.7819072717726,260.77607558894465L406.20937874607654,284.5298421103979L410.6368502203805,301.4976850385716L415.06432169468445,257.38412510729637L419.4917931689884,301.4976850385716L423.9192646432925,243.81025529075404L428.34673611759644,281.1378916287497L432.7742075919004,287.92381522202925L437.2016790662044,270.9579949238387L441.6291505405084,294.71176144529204L446.0566220148124,284.5298421103979L450.48409348911633,308.2836086318512L454.91156496342035,281.1378916287497L459.33903643772436,291.31778833366064L463.7665079120283,355.79316430474086L468.19397938633233,332.0393977832876L472.6214508606363,291.31778833366064L477.0489223349403,321.8574784483935L481.4763938092443,270.9579949238387L485.90386528354827,270.9579949238387L490.3313367578522,301.4976850385716L494.7588082321563,264.170048700576L499.18627970646025,257.38412510729637L503.6137511807642,284.5298421103979L508.04122265506817,257.38412510729637L512.4686941293722,298.10371192694026L516.8961656036762,257.38412510729637L521.3236370779802,335.4313482649359L525.7511085522841,318.4655279667453L530.1785800265882,247.20220577240235L534.6060515008921,277.74391851711835L539.0335229751961,253.99015199566506L543.4609944495,230.23638547421174L547.8884659238041,257.38412510729637L552.3159373981081,243.81025529075404L556.743408872412,294.71176144529204L561.170880346716,325.2514515600249L565.5983518210201,260.77607558894465L570.025823295324,270.9579949238387L574.453294769628,298.10371192694026L578.8807662439319,270.9579949238387L583.308237718236,311.67758174348256L587.73570919254,315.0715548551139L592.1631806668439,301.4976850385716L596.5906521411479,247.20220577240235L601.0181236154519,270.9579949238387L605.4455950897559,294.71176144529204L609.8730665640599,277.74391851711835L614.3005380383639,284.5298421103979L618.7280095126679,284.5298421103979L623.1554809869718,267.5640218122074L627.5829524612758,308.2836086318512L632.0104239355799,267.5640218122074L636.4378954098838,294.71176144529204L640.8653668841878,287.92381522202925L645.2928383584918,274.34994540548695L649.7203098327958,257.38412510729637L654.1477813070998,240.41628217912273L658.5752527814038,298.10371192694026L663.0027242557078,287.92381522202925L667.4301957300117,267.5640218122074L671.8576672043157,291.31778833366064L676.2851386786197,318.4655279667453L680.7126101529237,250.59617888403372L685.1400816272277,311.67758174348256L689.5675531015318,247.20220577240235L693.9950245758357,281.1378916287497L698.4224960501397,243.81025529075404L702.8499675244436,277.74391851711835L707.2774389987476,277.74391851711835L711.7049104730515,287.92381522202925L716.1323819473557,294.71176144529204L720.5598534216597,257.38412510729637L724.9873248959636,287.92381522202925L729.4147963702676,237.0223090674914L733.8422678445716,247.20220577240235L738.2697393188755,257.38412510729637L742.6972107931795,355.79316430474086L747.1246822674834,267.5640218122074L751.5521537417876,274.34994540548695L755.9796252160916,284.5298421103979L760.4070966903955,264.170048700576L764.8345681646995,274.34994540548695L769.2620396390034,274.34994540548695L773.6895111133074,291.31778833366064L778.1169825876113,270.9579949238387L782.5444540619153,260.77607558894465L786.9719255362195,230.23638547421174L791.3993970105234,240.41628217912273L795.8268684848274,277.74391851711835L800.2543399591314,247.20220577240235L804.6818114334353,260.77607558894465L809.1092829077393,267.5640218122074L813.5367543820432,291.31778833366064L817.9642258563473,247.20220577240235L822.3916973306514,311.67758174348256L826.8191688049553,281.1378916287497L831.2466402792593,260.77607558894465L835.6741117535632,250.59617888403372L840.1015832278672,257.38412510729637L844.5290547021712,257.38412510729637L848.9565261764752,270.9579949238387L853.3839976507792,267.5640218122074L857.8114691250832,240.41628217912273L862.2389405993872,250.59617888403372L866.6664120736912,318.4655279667453L871.0938835479951,267.5640218122074L875.5213550222992,321.8574784483935L879.9488264966031,243.81025529075404L884.3762979709071,267.5640218122074L888.8037694452111,264.170048700576L893.2312409195151,287.92381522202925L897.6587123938191,311.67758174348256L902.086183868123,243.81025529075404L906.5136553424271,216.66251565766942L910.9411268167311,274.34994540548695L915.368598291035,315.0715548551139L919.796069765339,345.6112449698468L924.2235412396429,264.170048700576L928.651012713947,267.5640218122074L933.0784841882511,240.41628217912273L937.505955662555,267.5640218122074L941.933427136859,304.89165815020294L946.360898611163,243.81025529075404L950.7883700854669,274.34994540548695L955.2158415597709,304.89165815020294L959.6433130340748,311.67758174348256L964.070784508379,270.9579949238387L968.498255982683,247.20220577240235L972.9257274569869,281.1378916287497L977.3531989312909,237.0223090674914L981.7806704055948,267.5640218122074L986.2081418798988,291.31778833366064L990.6356133542027,291.31778833366064L995.0630848285067,253.99015199566506L999.4905563028109,253.99015199566506L1003.9180277771148,301.4976850385716L1008.3454992514188,260.77607558894465L1012.7729707257228,270.9579949238387L1017.2004422000267,277.74391851711835L1021.6279136743307,284.5298421103979L1026.0553851486347,264.170048700576L1030.4828566229387,257.38412510729637L1034.9103280972427,287.92381522202925L1039.3377995715466,294.71176144529204L1043.7652710458508,270.9579949238387L1048.1927425201548,294.71176144529204L1052.6202139944587,270.9579949238387L1057.0476854687627,281.1378916287497L1061.4751569430666,264.170048700576L1065.9026284173706,287.92381522202925L1070.3300998916745,260.77607558894465L1074.7575713659787,298.10371192694026L1079.1850428402827,216.66251565766942L1083.6125143145866,260.77607558894465L1088.0399857888906,260.77607558894465L1092.4674572631945,277.74391851711835L1096.8949287374985,264.170048700576L1101.3224002118025,287.92381522202925L1105.7498716861066,304.89165815020294L1110.1773431604106,277.74391851711835L1114.6048146347146,294.71176144529204L1119.0322861090185,237.0223090674914L1123.4597575833225,281.1378916287497L1127.8872290576264,287.92381522202925L1132.3147005319304,264.170048700576" style="fill: none;" fill="none"></path></g><g><path stroke="rgb(0, 119, 187)" stroke-width="2px" d="M282.2401774655649,381.8223895571747L286.66764893986885,294.95649967324636L291.09512041417287,298.3403596349622L295.5225918884768,246.06953298186983L299.95006336278084,253.02738012371236L304.3775348370848,228.01958301274095L308.8050063113888,207.1500868471794L313.23247778569277,181.01568483562477L317.6599492599968,174.2459422822099L322.08742073430074,177.06751110862572L326.51489220860475,155.25546937094248L330.94236368290876,159.76795686322467L335.3698351572127,143.41094818994534L339.7973066315167,169.35724561307225L344.2247781058207,146.6067035632335L348.6522495801247,112.9521632745362L353.07972105442866,124.79668445553334L357.5071925287327,112.19974492082528L361.93466400303663,131.002113243665L366.36213547734064,130.24969488995413L370.7896069516446,83.43187867128256L375.2170784259486,138.8984606976631L379.64454990025257,116.33602323625207L384.0720213745566,89.0729936941311L388.4994928488606,95.4645044407074L392.92696432316455,99.41470079768958L397.3544357974685,101.10561946355594L401.7819072717726,125.36099822081648L406.20937874607654,73.46638074457954L410.6368502203805,81.36475082856072L415.06432169468445,107.12294366325992L419.4917931689884,78.5431820021449L423.9192646432925,98.28607326712321L428.34673611759644,80.2361232979944L432.7742075919004,93.58548118641329L437.2016790662044,93.77358577484102L441.6291505405084,57.10937207130017L446.0566220148124,68.38957948701417L450.48409348911633,103.36287452468862L454.91156496342035,76.28794957099535L459.33903643772436,58.23799960186649L463.7665079120283,80.80043706327753L468.19397938633233,65.00571952529826L472.6214508606363,114.07876817511944L477.0489223349403,76.66415874785079L481.4763938092443,81.92704196386076L485.90386528354827,76.66415874785079L490.3313367578522,73.46638074457954L494.7588082321563,65.57003329058145L499.18627970646025,46.39145579088627L503.6137511807642,49.77531575260214L508.04122265506817,90.95201694842521L512.4686941293722,94.33789954012417L516.8961656036762,49.77531575260214L521.3236370779802,52.59688457901795L525.7511085522841,95.84071361756284L530.1785800265882,88.69678451727566L534.6060515008921,75.15932204042903L539.0335229751961,53.72551210958431L543.4609944495,75.72363580571218L547.8884659238041,61.05754579829922L552.3159373981081,59.928918267732904L556.743408872412,49.77531575260214L561.170880346716,98.85038703240639L565.5983518210201,80.80043706327753L570.025823295324,49.77531575260214L574.453294769628,46.95576955616945L578.8807662439319,62.186173328865536L583.308237718236,64.44140576001513L587.73570919254,89.82541204784198L592.1631806668439,74.03069450986267L596.5906521411479,45.827142025603095L601.0181236154519,50.903943283168495L605.4455950897559,83.05566949442712L609.8730665640599,56.54505830601704L614.3005380383639,72.33775321401322L618.7280095126679,79.10749576742808L623.1554809869718,59.928918267732904L627.5829524612758,59.74081367930516L632.0104239355799,67.825265721731L636.4378954098838,68.9538932522973L640.8653668841878,71.77546207871312L645.2928383584918,54.85211701016754L649.7203098327958,49.21302461730208L654.1477813070998,52.59688457901795L658.5752527814038,79.10749576742808L663.0027242557078,49.58721116417444L667.4301957300117,55.22832618702298L671.8576672043157,56.54505830601704L676.2851386786197,81.17664624013301L680.7126101529237,65.00571952529826L685.1400816272277,71.77546207871312L689.5675531015318,65.57003329058145L693.9950245758357,46.95576955616945L698.4224960501397,43.571909594453544L702.8499675244436,35.675562140455455L707.2774389987476,41.87896829860404L711.7049104730515,86.43952945614299L716.1323819473557,55.98074454073386L720.5598534216597,65.00571952529826L724.9873248959636,51.46825704845163L729.4147963702676,45.827142025603095L733.8422678445716,53.72551210958431L738.2697393188755,48.64871085201891L742.6972107931795,82.49135572914395L747.1246822674834,66.69866082114777L751.5521537417876,48.64871085201891L755.9796252160916,60.869441209871525L760.4070966903955,70.64683454814681L764.8345681646995,57.67368583658335L769.2620396390034,63.68898740630421L773.6895111133074,56.54505830601704L778.1169825876113,63.87709199473195L782.5444540619153,51.46825704845163L786.9719255362195,41.87896829860404L791.3993970105234,48.64871085201891L795.8268684848274,67.825265721731L800.2543399591314,60.493232033016085L804.6818114334353,70.64683454814681L809.1092829077393,55.41643077545068L813.5367543820432,73.46638074457954L817.9642258563473,58.800290737166584L822.3916973306514,55.22832618702298L826.8191688049553,62.186173328865536L831.2466402792593,59.36460450244972L835.6741117535632,65.94624246743689L840.1015832278672,56.54505830601704L844.5290547021712,51.46825704845163L848.9565261764752,49.21302461730208L853.3839976507792,45.827142025603095L857.8114691250832,46.95576955616945L862.2389405993872,66.13434705586458L866.6664120736912,71.77546207871312L871.0938835479951,77.79076364843402L875.5213550222992,52.032570813734814L879.9488264966031,47.52008332145259L884.3762979709071,52.59688457901795L888.8037694452111,40.75034076803773L893.2312409195151,51.46825704845163L897.6587123938191,54.85211701016754L902.086183868123,53.16119834430113L906.5136553424271,50.903943283168495L910.9411268167311,45.827142025603095L915.368598291035,63.31277822944877L919.796069765339,72.33775321401322L924.2235412396429,62.186173328865536L928.651012713947,49.77531575260214L933.0784841882511,42.443282063887224L937.505955662555,54.85211701016754L941.933427136859,48.08439708673577L946.360898611163,64.44140576001513L950.7883700854669,59.36460450244972L955.2158415597709,55.79263995230612L959.6433130340748,62.186173328865536L964.070784508379,50.903943283168495L968.498255982683,52.032570813734814L972.9257274569869,55.98074454073386L977.3531989312909,75.72363580571218L981.7806704055948,40.75034076803773L986.2081418798988,50.903943283168495L990.6356133542027,42.443282063887224L995.0630848285067,48.08439708673577L999.4905563028109,53.72551210958431L1003.9180277771148,57.67368583658335L1008.3454992514188,53.16119834430113L1012.7729707257228,43.007595829170405L1017.2004422000267,64.44140576001513L1021.6279136743307,51.46825704845163L1026.0553851486347,51.46825704845163L1030.4828566229387,39.05942210217136L1034.9103280972427,54.85211701016754L1039.3377995715466,54.09969865645667L1043.7652710458508,52.59688457901795L1048.1927425201548,54.85211701016754L1052.6202139944587,62.186173328865536L1057.0476854687627,53.72551210958431L1061.4751569430666,47.52008332145259L1065.9026284173706,51.46825704845163L1070.3300998916745,64.44140576001513L1074.7575713659787,55.98074454073386L1079.1850428402827,46.39145579088627L1083.6125143145866,54.28780324488436L1088.0399857888906,48.08439708673577L1092.4674572631945,45.827142025603095L1096.8949287374985,61.99806874043784L1101.3224002118025,58.23799960186649L1105.7498716861066,52.032570813734814L1110.1773431604106,58.23799960186649L1114.6048146347146,46.39145579088627L1119.0322861090185,52.032570813734814L1123.4597575833225,58.23799960186649L1127.8872290576264,50.903943283168495L1132.3147005319304,53.72551210958431" style="fill: none;" fill="none"></path></g></g></g></g></g></g><g transform="translate(63, 376)" clip-path="url(#clip_1)"><clipPath id="clip_1"><rect width="1308" height="23"></rect></clipPath><g><g><line x1="78.57648964758145" y1="0" x2="78.57648964758145" y2="5" style="visibility: inherit;" fill="rgb(0, 0, 0)" stroke="rgb(204, 204, 204)" stroke-width="1px"></line><line x1="167.12591913366123" y1="0" x2="167.12591913366123" y2="5" style="visibility: inherit;" fill="rgb(0, 0, 0)" stroke="rgb(204, 204, 204)" stroke-width="1px"></line><line x1="255.67534861974096" y1="0" x2="255.67534861974096" y2="5" style="visibility: inherit;" fill="rgb(0, 0, 0)" stroke="rgb(204, 204, 204)" stroke-width="1px"></line><line x1="344.2247781058207" y1="0" x2="344.2247781058207" y2="5" style="visibility: inherit;" fill="rgb(0, 0, 0)" stroke="rgb(204, 204, 204)" stroke-width="1px"></line><line x1="432.7742075919004" y1="0" x2="432.7742075919004" y2="5" style="visibility: inherit;" fill="rgb(0, 0, 0)" stroke="rgb(204, 204, 204)" stroke-width="1px"></line><line x1="521.3236370779802" y1="0" x2="521.3236370779802" y2="5" style="visibility: inherit;" fill="rgb(0, 0, 0)" stroke="rgb(204, 204, 204)" stroke-width="1px"></line><line x1="609.8730665640599" y1="0" x2="609.8730665640599" y2="5" style="visibility: inherit;" fill="rgb(0, 0, 0)" stroke="rgb(204, 204, 204)" stroke-width="1px"></line><line x1="698.4224960501397" y1="0" x2="698.4224960501397" y2="5" style="visibility: inherit;" fill="rgb(0, 0, 0)" stroke="rgb(204, 204, 204)" stroke-width="1px"></line><line x1="786.9719255362195" y1="0" x2="786.9719255362195" y2="5" style="visibility: inherit;" fill="rgb(0, 0, 0)" stroke="rgb(204, 204, 204)" stroke-width="1px"></line><line x1="875.5213550222992" y1="0" x2="875.5213550222992" y2="5" style="visibility: inherit;" fill="rgb(0, 0, 0)" stroke="rgb(204, 204, 204)" stroke-width="1px"></line><line x1="964.070784508379" y1="0" x2="964.070784508379" y2="5" style="visibility: inherit;" fill="rgb(0, 0, 0)" stroke="rgb(204, 204, 204)" stroke-width="1px"></line><line x1="1052.6202139944587" y1="0" x2="1052.6202139944587" y2="5" style="visibility: inherit;" fill="rgb(0, 0, 0)" stroke="rgb(204, 204, 204)" stroke-width="1px"></line><line x1="1141.1696434805383" y1="0" x2="1141.1696434805383" y2="5" style="visibility: inherit;" fill="rgb(0, 0, 0)" stroke="rgb(204, 204, 204)" stroke-width="1px"></line><line x1="1229.719072966618" y1="0" x2="1229.719072966618" y2="5" style="visibility: inherit;" fill="rgb(0, 0, 0)" stroke="rgb(204, 204, 204)" stroke-width="1px"></line></g><g transform="translate(0, 8)"><text x="78.57648964758145" y="0" dx="0em" dy="0.95em" style="text-anchor: middle; visibility: inherit; font-family: Roboto, sans-serif; font-size: 12px; font-weight: 200;" fill="rgb(33, 33, 33)" stroke="none" stroke-width="1px">-40</text><text x="167.12591913366123" y="0" dx="0em" dy="0.95em" style="text-anchor: middle; visibility: inherit; font-family: Roboto, sans-serif; font-size: 12px; font-weight: 200;" fill="rgb(33, 33, 33)" stroke="none" stroke-width="1px">-20</text><text x="255.67534861974096" y="0" dx="0em" dy="0.95em" style="text-anchor: middle; visibility: inherit; font-family: Roboto, sans-serif; font-size: 12px; font-weight: 200;" fill="rgb(33, 33, 33)" stroke="none" stroke-width="1px">0</text><text x="344.2247781058207" y="0" dx="0em" dy="0.95em" style="text-anchor: middle; visibility: inherit; font-family: Roboto, sans-serif; font-size: 12px; font-weight: 200;" fill="rgb(33, 33, 33)" stroke="none" stroke-width="1px">20</text><text x="432.7742075919004" y="0" dx="0em" dy="0.95em" style="text-anchor: middle; visibility: inherit; font-family: Roboto, sans-serif; font-size: 12px; font-weight: 200;" fill="rgb(33, 33, 33)" stroke="none" stroke-width="1px">40</text><text x="521.3236370779802" y="0" dx="0em" dy="0.95em" style="text-anchor: middle; visibility: inherit; font-family: Roboto, sans-serif; font-size: 12px; font-weight: 200;" fill="rgb(33, 33, 33)" stroke="none" stroke-width="1px">60</text><text x="609.8730665640599" y="0" dx="0em" dy="0.95em" style="text-anchor: middle; visibility: inherit; font-family: Roboto, sans-serif; font-size: 12px; font-weight: 200;" fill="rgb(33, 33, 33)" stroke="none" stroke-width="1px">80</text><text x="698.4224960501397" y="0" dx="0em" dy="0.95em" style="text-anchor: middle; visibility: inherit; font-family: Roboto, sans-serif; font-size: 12px; font-weight: 200;" fill="rgb(33, 33, 33)" stroke="none" stroke-width="1px">100</text><text x="786.9719255362195" y="0" dx="0em" dy="0.95em" style="text-anchor: middle; visibility: inherit; font-family: Roboto, sans-serif; font-size: 12px; font-weight: 200;" fill="rgb(33, 33, 33)" stroke="none" stroke-width="1px">120</text><text x="875.5213550222992" y="0" dx="0em" dy="0.95em" style="text-anchor: middle; visibility: inherit; font-family: Roboto, sans-serif; font-size: 12px; font-weight: 200;" fill="rgb(33, 33, 33)" stroke="none" stroke-width="1px">140</text><text x="964.070784508379" y="0" dx="0em" dy="0.95em" style="text-anchor: middle; visibility: inherit; font-family: Roboto, sans-serif; font-size: 12px; font-weight: 200;" fill="rgb(33, 33, 33)" stroke="none" stroke-width="1px">160</text><text x="1052.6202139944587" y="0" dx="0em" dy="0.95em" style="text-anchor: middle; visibility: inherit; font-family: Roboto, sans-serif; font-size: 12px; font-weight: 200;" fill="rgb(33, 33, 33)" stroke="none" stroke-width="1px">180</text><text x="1141.1696434805383" y="0" dx="0em" dy="0.95em" style="text-anchor: middle; visibility: inherit; font-family: Roboto, sans-serif; font-size: 12px; font-weight: 200;" fill="rgb(33, 33, 33)" stroke="none" stroke-width="1px">200</text><text x="1229.719072966618" y="0" dx="0em" dy="0.95em" style="text-anchor: middle; visibility: inherit; font-family: Roboto, sans-serif; font-size: 12px; font-weight: 200;" fill="rgb(33, 33, 33)" stroke="none" stroke-width="1px">220</text></g><line x1="0" y1="0" x2="1308.205625" y2="0" fill="rgb(0, 0, 0)" stroke="rgb(204, 204, 204)" stroke-width="1px"></line></g></g></g></g></svg>