<svg viewBox="0 0 1372.1875 400" xmlns="http://www.w3.org/2000/svg"><g><g><g><g><g><line x1="63.984375" y1="376" x2="58.984375" y2="376" style="visibility: inherit;" fill="rgb(0, 0, 0)" stroke="rgb(204, 204, 204)" stroke-width="1px"></line><line x1="63.984375" y1="334.22222222222223" x2="58.984375" y2="334.22222222222223" style="visibility: inherit;" fill="rgb(0, 0, 0)" stroke="rgb(204, 204, 204)" stroke-width="1px"></line><line x1="63.984375" y1="292.44444444444446" x2="58.984375" y2="292.44444444444446" style="visibility: inherit;" fill="rgb(0, 0, 0)" stroke="rgb(204, 204, 204)" stroke-width="1px"></line><line x1="63.984375" y1="250.66666666666669" x2="58.984375" y2="250.66666666666669" style="visibility: inherit;" fill="rgb(0, 0, 0)" stroke="rgb(204, 204, 204)" stroke-width="1px"></line><line x1="63.984375" y1="208.88888888888889" x2="58.984375" y2="208.88888888888889" style="visibility: inherit;" fill="rgb(0, 0, 0)" stroke="rgb(204, 204, 204)" stroke-width="1px"></line><line x1="63.984375" y1="167.11111111111111" x2="58.984375" y2="167.11111111111111" style="visibility: inherit;" fill="rgb(0, 0, 0)" stroke="rgb(204, 204, 204)" stroke-width="1px"></line><line x1="63.984375" y1="125.33333333333334" x2="58.984375" y2="125.33333333333334" style="visibility: inherit;" fill="rgb(0, 0, 0)" stroke="rgb(204, 204, 204)" stroke-width="1px"></line><line x1="63.984375" y1="83.55555555555556" x2="58.984375" y2="83.55555555555556" style="visibility: inherit;" fill="rgb(0, 0, 0)" stroke="rgb(204, 204, 204)" stroke-width="1px"></line><line x1="63.984375" y1="41.7777777777778" x2="58.984375" y2="41.7777777777778" style="visibility: inherit;" fill="rgb(0, 0, 0)" stroke="rgb(204, 204, 204)" stroke-width="1px"></line><line x1="63.984375" y1="0" x2="58.984375" y2="0" style="visibility: inherit;" fill="rgb(0, 0, 0)" stroke="rgb(204, 204, 204)" stroke-width="1px"></line></g><g transform="translate(53.984375, 0)"><text x="0" y="376" dx="0em" dy="0.3em" style="text-anchor: end; visibility: hidden; font-family: Roboto, sans-serif; font-size: 12px; font-weight: 200;" fill="rgb(33, 33, 33)" stroke="none" stroke-width="1px">0.991</text><text x="0" y="334.22222222222223" dx="0em" dy="0.3em" style="text-anchor: end; visibility: inherit; font-family: Roboto, sans-serif; font-size: 12px; font-weight: 200;" fill="rgb(33, 33, 33)" stroke="none" stroke-width="1px">0.992</text><text x="0" y="292.44444444444446" dx="0em" dy="0.3em" style="text-anchor: end; visibility: inherit; font-family: Roboto, sans-serif; font-size: 12px; font-weight: 200;" fill="rgb(33, 33, 33)" stroke="none" stroke-width="1px">0.993</text><text x="0" y="250.66666666666669" dx="0em" dy="0.3em" style="text-anchor: end; visibility: inherit; font-family: Roboto, sans-serif; font-size: 12px; font-weight: 200;" fill="rgb(33, 33, 33)" stroke="none" stroke-width="1px">0.994</text><text x="0" y="208.88888888888889" dx="0em" dy="0.3em" style="text-anchor: end; visibility: inherit; font-family: Roboto, sans-serif; font-size: 12px; font-weight: 200;" fill="rgb(33, 33, 33)" stroke="none" stroke-width="1px">0.995</text><text x="0" y="167.11111111111111" dx="0em" dy="0.3em" style="text-anchor: end; visibility: inherit; font-family: Roboto, sans-serif; font-size: 12px; font-weight: 200;" fill="rgb(33, 33, 33)" stroke="none" stroke-width="1px">0.996</text><text x="0" y="125.33333333333334" dx="0em" dy="0.3em" style="text-anchor: end; visibility: inherit; font-family: Roboto, sans-serif; font-size: 12px; font-weight: 200;" fill="rgb(33, 33, 33)" stroke="none" stroke-width="1px">0.997</text><text x="0" y="83.55555555555556" dx="0em" dy="0.3em" style="text-anchor: end; visibility: inherit; font-family: Roboto, sans-serif; font-size: 12px; font-weight: 200;" fill="rgb(33, 33, 33)" stroke="none" stroke-width="1px">0.998</text><text x="0" y="41.7777777777778" dx="0em" dy="0.3em" style="text-anchor: end; visibility: inherit; font-family: Roboto, sans-serif; font-size: 12px; font-weight: 200;" fill="rgb(33, 33, 33)" stroke="none" stroke-width="1px">0.999</text><text x="0" y="0" dx="0em" dy="0.3em" style="text-anchor: end; visibility: hidden; font-family: Roboto, sans-serif; font-size: 12px; font-weight: 200;" fill="rgb(33, 33, 33)" stroke="none" stroke-width="1px">1</text></g><line x1="63.984375" y1="0" x2="63.984375" y2="376" fill="rgb(0, 0, 0)" stroke="rgb(204, 204, 204)" stroke-width="1px"></line></g></g><g transform="translate(63, 0)" clip-path="url(#clip_0)"><clipPath id="clip_0"><rect width="1308" height="375"></rect></clipPath><g><g><g><line x1="0" y1="0" x2="0" y2="376" fill="rgb(0, 0, 0)" stroke="rgb(66, 66, 66)" stroke-width="1px" opacity="0.25"></line><line x1="109.01713541666666" y1="0" x2="109.01713541666666" y2="376" fill="rgb(0, 0, 0)" stroke="rgb(66, 66, 66)" stroke-width="1px" opacity="0.25"></line><line x1="218.03427083333332" y1="0" x2="218.03427083333332" y2="376" fill="rgb(0, 0, 0)" stroke="rgb(66, 66, 66)" stroke-width="1px" opacity="0.25"></line><line x1="327.05140625" y1="0" x2="327.05140625" y2="376" fill="rgb(0, 0, 0)" stroke="rgb(66, 66, 66)" stroke-width="1px" opacity="0.25"></line><line x1="436.06854166666665" y1="0" x2="436.06854166666665" y2="376" fill="rgb(0, 0, 0)" stroke="rgb(66, 66, 66)" stroke-width="1px" opacity="0.25"></line><line x1="545.0856770833334" y1="0" x2="545.0856770833334" y2="376" fill="rgb(0, 0, 0)" stroke="rgb(66, 66, 66)" stroke-width="1px" opacity="0.25"></line><line x1="654.1028125" y1="0" x2="654.1028125" y2="376" fill="rgb(0, 0, 0)" stroke="rgb(66, 66, 66)" stroke-width="1px" opacity="0.25"></line><line x1="763.1199479166668" y1="0" x2="763.1199479166668" y2="376" fill="rgb(0, 0, 0)" stroke="rgb(66, 66, 66)" stroke-width="1px" opacity="0.25"></line><line x1="872.1370833333333" y1="0" x2="872.1370833333333" y2="376" fill="rgb(0, 0, 0)" stroke="rgb(66, 66, 66)" stroke-width="1px" opacity="0.25"></line><line x1="981.15421875" y1="0" x2="981.15421875" y2="376" fill="rgb(0, 0, 0)" stroke="rgb(66, 66, 66)" stroke-width="1px" opacity="0.25"></line><line x1="1090.1713541666668" y1="0" x2="1090.1713541666668" y2="376" fill="rgb(0, 0, 0)" stroke="rgb(66, 66, 66)" stroke-width="1px" opacity="0.25"></line><line x1="1199.1884895833334" y1="0" x2="1199.1884895833334" y2="376" fill="rgb(0, 0, 0)" stroke="rgb(66, 66, 66)" stroke-width="1px" opacity="0.25"></line><line x1="1308.205625" y1="0" x2="1308.205625" y2="376" fill="rgb(0, 0, 0)" stroke="rgb(66, 66, 66)" stroke-width="1px" opacity="0.25"></line></g><g><line x1="0" y1="376" x2="1308.205625" y2="376" fill="rgb(0, 0, 0)" stroke="rgb(66, 66, 66)" stroke-width="1px" opacity="0.25"></line><line x1="0" y1="334.22222222222223" x2="1308.205625" y2="334.22222222222223" fill="rgb(0, 0, 0)" stroke="rgb(66, 66, 66)" stroke-width="1px" opacity="0.25"></line><line x1="0" y1="292.44444444444446" x2="1308.205625" y2="292.44444444444446" fill="rgb(0, 0, 0)" stroke="rgb(66, 66, 66)" stroke-width="1px" opacity="0.25"></line><line x1="0" y1="250.66666666666669" x2="1308.205625" y2="250.66666666666669" fill="rgb(0, 0, 0)" stroke="rgb(66, 66, 66)" stroke-width="1px" opacity="0.25"></line><line x1="0" y1="208.88888888888889" x2="1308.205625" y2="208.88888888888889" fill="rgb(0, 0, 0)" stroke="rgb(66, 66, 66)" stroke-width="1px" opacity="0.25"></line><line x1="0" y1="167.11111111111111" x2="1308.205625" y2="167.11111111111111" fill="rgb(0, 0, 0)" stroke="rgb(66, 66, 66)" stroke-width="1px" opacity="0.25"></line><line x1="0" y1="125.33333333333334" x2="1308.205625" y2="125.33333333333334" fill="rgb(0, 0, 0)" stroke="rgb(66, 66, 66)" stroke-width="1px" opacity="0.25"></line><line x1="0" y1="83.55555555555556" x2="1308.205625" y2="83.55555555555556" fill="rgb(0, 0, 0)" stroke="rgb(66, 66, 66)" stroke-width="1px" opacity="0.25"></line><line x1="0" y1="41.7777777777778" x2="1308.205625" y2="41.7777777777778" fill="rgb(0, 0, 0)" stroke="rgb(66, 66, 66)" stroke-width="1px" opacity="0.25"></line><line x1="0" y1="0" x2="1308.205625" y2="0" fill="rgb(0, 0, 0)" stroke="rgb(66, 66, 66)" stroke-width="1px" opacity="0.25"></line></g></g></g><g><g><line x1="0" y1="41777.777777777745" x2="1308.205625" y2="41777.777777777745" fill="rgb(0, 0, 0)" stroke="rgb(153, 153, 153)" stroke-width="1.5px"></line></g></g><g><g><line x1="109.01713541666666" y1="0" x2="109.01713541666666" y2="376" fill="rgb(0, 0, 0)" stroke="rgb(153, 153, 153)" stroke-width="1.5px"></line></g></g><g><g><g><g><g><path stroke="rgb(255, 112, 67)" stroke-width="2px" d="M152.62398958333335,442.41341673034987L158.07484635416668,369.78242079599204L163.525703125,329.876853854295L168.97655989583336,293.6702472906264L174.42741666666666,261.70500692642725L179.8782734375,229.65348026927322L185.32913020833334,207.22882870174058L190.7799869791667,195.0800162155691L196.23084375,177.04262115846794L201.68170052083335,168.4575236350196L207.13255729166667,155.2972179008891L212.58341406250003,160.14859156305775L218.03427083333332,151.85338319711255L223.48512760416668,130.30869322923687L228.935984375,123.1702101880557L234.38684114583336,112.70657584041248L239.83769791666666,115.69579407700527L245.2885546875,117.1367137945595L250.73941145833336,94.8996245019319L256.1902682291667,108.80860343301052L261.64112500000005,106.11564609361265L267.09198177083334,91.0749748122932L272.5428385416667,85.19015520867542L277.9936953125,83.62548622984653L283.44455208333335,83.5124185703407L288.89540885416665,95.41622155704816L294.346265625,76.96972536071343L299.79712239583336,69.77251643017098L305.2479791666667,78.1071393652483L310.6988359375,69.0883707709859L316.14969270833336,73.3807246341565L321.60054947916666,67.09319646370888L327.05140625,69.89168634700233L332.5022630208333,71.65843354163573L337.9531197916667,54.656928745284674L343.4039765625,50.02499644585747L348.8548333333333,64.45974325069322L354.3056901041667,59.80625942939795L359.756546875,48.11636657164596L365.2074036458334,52.210490210820296L370.6582604166667,46.870804014116956L376.1091171875,67.83140405305986L381.5599739583334,61.997590024313936L387.0108307291667,61.08705719519259L392.4616875,57.949985849765916L397.91254427083334,54.473051236148L403.3634010416667,48.50126102597511L408.81425781250005,35.49446473867783L414.26511458333334,29.349822662376173L419.7159713541667,45.9129339959193L425.16682812500005,57.53713010783521L430.61768489583335,42.57741400355282L436.06854166666665,34.993079939674175L441.51939843750006,51.73226255527489L446.97025520833336,58.26565724290789L452.42111197916665,55.50412463817093L457.87196875,43.31188013094044L463.32282552083336,46.841632981721794L468.7736822916667,41.720121763590036L474.2245390625,38.09440182063229L479.6753958333333,30.909784911551625L485.1262526041667,50.75944228346522L490.577109375,53.80928441576053L496.0279661458333,40.33273810958186L501.47882291666673,30.858302906706793L506.9296796875,32.69787782828247L512.3805364583334,34.90426102585311L517.8313932291667,48.707724699548606L523.2822500000001,49.2195400796042L528.7331067708334,35.64653541521945L534.1839635416667,30.006827058321274L539.6348203125,42.4613495851437L545.0856770833334,36.85978162065807L550.5365338541667,41.28902486296558L555.987390625,47.25348948239615L561.4382473958333,41.41641457159913L566.8891041666667,37.85141785510048L572.3399609375,39.6548246781762L577.7908177083333,41.30063864235031L583.2416744791667,43.65571718334667L588.69253125,36.747680391391L594.1433880208333,29.832815896783032L599.5942447916667,27.340344716562818L605.0451015625,38.89822623233381L610.4959583333334,31.277532676793637L615.9468151041667,29.50504075815143L621.397671875,29.098945102406983L626.8485286458334,40.971359621934916L632.2993854166667,40.16318381515497L637.7502421875,42.98918124449848L643.2010989583333,41.63484446718334L648.6519557291667,31.65052337952966L654.1028125,23.989538372606194L659.5536692708333,15.503333687081806L665.0045260416666,13.473498828783711L670.4553828124999,34.1968041041297L675.9062395833334,31.634110294509984L681.3570963541667,34.53294454313115L686.807953125,29.615577171030267L692.2588098958333,23.868220712611656L697.7096666666666,24.32535747639233L703.1605234375,22.087576614194464L708.6113802083333,37.418949844927226L714.0622369791666,38.8475109592052L719.51309375,30.813817481825502L724.9639505208334,32.00880677870126L730.4148072916668,37.53278515229018L735.8656640625001,34.471393130489936L741.3165208333334,35.57691868944226L746.7673776041667,32.72912308324371L752.218234375,34.62319416651429L757.6690911458335,29.68566390251894L763.1199479166668,21.97592453915583L768.5708046875001,20.689869569955246L774.0216614583334,29.366860245660504L779.4725182291667,30.94739682773578L784.923375,36.90888795965421L790.3742317708333,32.97947567265482L795.8250885416667,39.49174118972384L801.2759453125001,36.20057602486758L806.7268020833334,32.457870707151436L812.1776588541667,33.64168155108492L817.6285156250001,32.96545275796494L823.0793723958334,35.79491784753968L828.5302291666667,32.861914697780676L833.9810859375,28.61096714413313L839.4319427083334,24.945807649220434L844.8827994791668,21.079307777469076L850.3336562500001,19.322181664909003L855.7845130208334,27.692624218404397L861.2353697916667,35.527762743115744L866.6862265625,43.18017116854551L872.1370833333333,35.07583748302836L877.5879401041666,27.988039585626783L883.0387968750001,26.233478929871847L888.4896536458334,19.35777670253929L893.9405104166667,20.489559209999193L899.3913671875,22.853961966431992L904.8422239583333,23.427944874629144L910.2930807291667,22.66770425523722L915.7439375,19.703481202504005L921.1947942708334,26.540865000531703L926.6456510416667,35.08472611295201L932.0965078125,35.21281449535641L937.5473645833334,29.182824636068318L942.9982213541667,21.956105914453516L948.449078125,23.739866348149384L953.8999348958333,21.461369420978222L959.3507916666666,28.157375682265446L964.8016484375001,29.672877116985426L970.2525052083334,28.8420614345802L975.7033619791667,31.47219598753474L981.15421875,27.5012273418661L986.6050755208333,25.64755393034936L992.0559322916666,26.498583831189514L997.5067890624999,36.735726124721886L1002.9576458333335,25.65414472024048L1008.4085026041668,24.001432042920904L1013.859359375,18.845278238881875L1019.3102161458334,18.523620495574292L1024.7610729166668,21.120589465858615L1030.2119296875,24.62208359894504L1035.6627864583334,24.486825734457533L1041.1136432291667,19.41043091023647L1046.5645000000002,26.921832276610626L1052.0153567708335,25.038949212699386L1057.4662135416668,23.906231194826038L1062.9170703125,17.126729914269742L1068.3679270833334,20.842240748044713L1073.8187838541667,22.688064209301473L1079.269640625,23.046521285182802L1084.7204973958335,24.38315891232866L1090.1713541666668,28.792870234818462L1095.6222109375,27.283135369241144L1101.0730677083334,23.3213828559296L1106.5239244791667,22.879675620136066L1111.97478125,28.993418504136443L1117.4256380208333,28.52203953292706L1122.8764947916666,23.507927902697055L1128.3273515625,24.38011006735515L1133.7782083333334,21.852488071392752L1139.2290651041667,19.226304210294415L1144.679921875,25.613096267228507L1150.1307786458333,27.585527777155697L1155.5816354166666,25.72403174739956L1161.0324921874999,27.66503784319793L1166.4833489583334,22.99771112822498L1171.9342057291667,22.962377219468774L1177.3850625,26.005056946917477L1182.8359192708333,24.213971498607453L1188.2867760416666,24.535796127518267" style="fill: none;" fill="none"></path></g><g><path stroke="rgb(0, 119, 187)" stroke-width="2px" d="M158.07484635416668,377.8868067985465L163.525703125,345.30836541492397L168.97655989583336,352.64365252015784L174.42741666666666,331.95292103255775L179.8782734375,316.07083460085926L185.32913020833334,303.2620046692367L190.7799869791667,315.8401584838825L196.23084375,346.6247971325488L201.68170052083335,334.9663437497381L207.13255729166667,354.5375682587889L212.58341406250003,341.3950628994157L218.03427083333332,321.96826864561L223.48512760416668,300.17045004437614L228.935984375,295.39117864693975L234.38684114583336,300.92544453901127L239.83769791666666,334.45258392516575L245.2885546875,334.49916256969914L250.73941145833336,321.0334732210742L256.1902682291667,343.0619877529236L261.64112500000005,322.82341752843655L267.09198177083334,330.66821742603963L272.5428385416667,317.07946665770663L277.9936953125,320.5582051060144L283.44455208333335,305.9235945788583L288.89540885416665,295.5720422946468L294.346265625,300.9731769466866L299.79712239583336,312.6445082645835L305.2479791666667,297.907304741402L310.6988359375,310.82490606582064L316.14969270833336,290.1479188877492L321.60054947916666,296.0652434805849L327.05140625,303.0131983535804L332.5022630208333,298.8688558319825L337.9531197916667,308.0102529142653L343.4039765625,308.4859062177686L348.8548333333333,320.6034930591833L354.3056901041667,314.4252451813733L359.756546875,315.58106060170235L365.2074036458334,348.13053570799605L370.6582604166667,356.0122969837186L376.1091171875,340.6498306844092L381.5599739583334,346.54755900095194L387.0108307291667,324.9566022475693L392.4616875,311.9372843058695L397.91254427083334,319.33552732181676L403.3634010416667,305.31051184799605L408.81425781250005,293.5019266834438L414.26511458333334,299.8137804539681L419.7159713541667,290.16006121399846L425.16682812500005,304.5061675470857L430.61768489583335,293.0203161627457L436.06854166666665,324.45021561724644L441.51939843750006,335.01994134815897L446.97025520833336,306.26162402927383L452.42111197916665,304.081999340253L457.87196875,291.2099697660993L463.32282552083336,271.5898132737762L468.7736822916667,273.3262829498922L474.2245390625,267.770264364934L479.6753958333333,289.2504959873956L485.1262526041667,317.31061846781233L490.577109375,302.34449333410714L496.0279661458333,298.4257983089531L501.47882291666673,309.33811414433444L506.9296796875,302.62296685493016L512.3805364583334,318.6256379552983L517.8313932291667,329.8259166612539L523.2822500000001,329.9760731697675L528.7331067708334,303.27315339621526L534.1839635416667,298.9421558927114L539.6348203125,307.9675757418451L545.0856770833334,305.1115467268489L550.5365338541667,306.5873129305862L555.987390625,307.6381185865309L561.4382473958333,299.95747866195626L566.8891041666667,315.3489802662944L572.3399609375,304.54116509662276L577.7908177083333,311.4674257018537L583.2416744791667,312.143945038352L588.69253125,305.9947868228139L594.1433880208333,293.97325131868115L599.5942447916667,278.3774903894635L605.0451015625,297.34498754693755L610.4959583333334,303.68841122255077L615.9468151041667,297.49402461846245L621.397671875,305.49603669219465L626.8485286458334,323.66635913011424L632.2993854166667,301.06807194101424L637.7502421875,317.56819352674944L643.2010989583333,295.8433665080309L648.6519557291667,299.4257366338738L654.1028125,283.23670096605736L659.5536692708333,290.277006100738L665.0045260416666,294.3985950178655L670.4553828124999,302.004244731803L675.9062395833334,309.9253522861312L681.3570963541667,296.2349727920364L686.807953125,303.01244177119986L692.2588098958333,282.01407330517856L697.7096666666666,274.43818200665214L703.1605234375,274.9227494275174L708.6113802083333,323.6020769839861L714.0622369791666,309.44521225484374L719.51309375,304.2719569291847L724.9639505208334,306.25587740458286L730.4148072916668,297.3581356142991L735.8656640625001,297.1113484502851L741.3165208333334,296.95630373298377L746.7673776041667,305.24213228997553L752.218234375,300.10362203213407L757.6690911458335,291.94857916410547L763.1199479166668,272.08078978497394L768.5708046875001,265.18424199842474L774.0216614583334,279.500314011449L779.4725182291667,272.99267820043303L784.923375,275.7447646351016L790.3742317708333,280.8075214533194L795.8250885416667,295.5797565379023L801.2759453125001,282.64034371630595L806.7268020833334,306.5872571398873L812.1776588541667,305.94279126174536L817.6285156250001,295.6493005505023L823.0793723958334,284.3713876151863L828.5302291666667,280.8816767327953L833.9810859375,278.972121274053L839.4319427083334,284.34659572179123L844.8827994791668,285.87200230069715L850.3336562500001,273.5237133975623L855.7845130208334,271.10699198167873L861.2353697916667,303.07476681715656L866.6862265625,297.2324163782722L872.1370833333333,320.35766203941984L877.5879401041666,295.7799192519178L883.0387968750001,292.79375212895286L888.4896536458334,289.22707321747674L893.9405104166667,298.8485404799623L899.3913671875,316.3729348484175L904.8422239583333,293.5115982978289L910.2930807291667,266.37587818171465L915.7439375,278.4482855624547L921.1947942708334,305.8529772443158L926.6456510416667,337.38609885337104L932.0965078125,315.93168220020425L937.5473645833334,304.92863653095145L942.9982213541667,284.95570181603546L948.449078125,286.39285129253193L953.8999348958333,305.51192181474335L959.3507916666666,286.951163844594L964.8016484375001,290.686878557137L970.2525052083334,308.1909323371938L975.7033619791667,322.03514537372644L981.15421875,310.238197413036L986.6050755208333,291.4463648996444L992.0559322916666,296.8303662420345L997.5067890624999,278.4253512285096L1002.9576458333335,282.34714528029605L1008.4085026041668,296.41587756802375L1013.859359375,304.894967214646L1019.3102161458334,291.65591597738774L1024.7610729166668,283.65969406343186L1030.2119296875,302.1538242505581L1035.6627864583334,293.37193610442915L1041.1136432291667,293.0522245695566L1046.5645000000002,296.27688290525566L1052.0153567708335,301.40803393830487L1057.4662135416668,294.48429162898765L1062.9170703125,287.0101787914144L1068.3679270833334,297.5283644227481L1073.8187838541667,307.2179107841835L1079.269640625,301.34686059946773L1084.7204973958335,309.3237413596787L1090.1713541666668,302.53366233696784L1095.6222109375,303.5425082949233L1101.0730677083334,295.8984482617266L1106.5239244791667,302.99778630322544L1111.97478125,293.7129674023236L1117.4256380208333,306.711619688355L1122.8764947916666,274.308839793969L1128.3273515625,276.59223306203575L1133.7782083333334,277.91844238985L1139.2290651041667,287.07509429675804L1144.679921875,285.87954754484974L1150.1307786458333,296.8848477692609L1155.5816354166666,311.8041315212588L1161.0324921874999,307.35969296304444L1166.4833489583334,313.1087394296259L1171.9342057291667,288.12364701199454L1177.3850625,294.78294827799647L1182.8359192708333,302.33844691140496L1188.2867760416666,295.0883581655585" style="fill: none;" fill="none"></path></g></g></g></g><g opacity="0.2"><g><g><g><path stroke="rgb(255, 112, 67)" stroke-width="2px" d="M141.72227604166667,429.0378358629011L147.1731328125,321.85183631049233L152.62398958333335,326.1523246765134L158.07484635416668,261.9338565402558L163.525703125,270.38044399685305L168.97655989583336,239.55737219916426L174.42741666666666,213.86151843600783L179.8782734375,181.63898256089936L185.32913020833334,173.61821068657756L190.7799869791667,176.86536577012788L196.23084375,149.9941613939072L201.68170052083335,155.5820571051702L207.13255729166667,135.55876413981105L212.58341406250003,167.42520862155476L218.03427083333332,139.4110255771212L223.48512760416668,97.99236721462664L228.935984375,112.46262656317806L234.38684114583336,97.01124827067048L239.83769791666666,120.17960018581805L245.2885546875,119.29808722601986L250.73941145833336,61.544047461615605L256.1902682291667,129.6720504760741L261.64112500000005,102.07621256510407L267.09198177083334,68.51397620307068L272.5428385416667,76.36292775471998L277.9936953125,81.27848307291661L283.44455208333335,83.34281709459086L288.89540885416665,113.27192518446172L294.346265625,49.29998185899519L299.79712239583336,58.976703219943545L305.2479791666667,90.60907363891593L310.6988359375,55.56021796332459L316.14969270833336,79.8192554050021L321.60054947916666,57.6619042290581L327.05140625,74.08942116631395L332.5022630208333,74.30855433146154L337.9531197916667,29.154671563042516L343.4039765625,43.07709799872502L348.8548333333333,86.11186345418287L354.3056901041667,52.82603369818787L359.756546875,30.581527286105654L365.2074036458334,58.35167566935216L370.6582604166667,38.86127471923824L376.1091171875,99.27230411105678L381.5599739583334,53.24686898125537L387.0108307291667,59.721257951524485L392.4616875,53.24437883165144L397.91254427083334,49.257649315728024L403.3634010416667,39.54357571072043L408.81425781250005,15.984270307752816L414.26511458333334,20.132859547932917L419.7159713541667,70.75760099622934L425.16682812500005,74.97342427571607L430.61768489583335,20.13783984714081L436.06854166666665,23.61657884385847L441.51939843750006,76.84103647867833L446.97025520833336,68.06574927435975L452.42111197916665,51.3618257310655L457.87196875,25.02351337009003L463.32282552083336,52.136262257893854L468.7736822916667,34.03785493638777L474.2245390625,32.655821906195726L479.6753958333333,20.132859547932917L485.1262526041667,80.53392834133567L490.577109375,58.384047614203496L496.0279661458333,20.11791865030923L501.47882291666673,16.646650102403434L506.9296796875,35.457240210639085L512.3805364583334,38.21383582221135L517.8313932291667,69.41292021009653L523.2822500000001,49.987263149685276L528.7331067708334,15.287028418646894L534.1839635416667,21.547264522976334L539.6348203125,61.143133375379726L545.0856770833334,28.457429673936595L550.5365338541667,47.93288972642683L555.987390625,56.20018641153966L561.4382473958333,32.66080220540362L566.8891041666667,32.50392278035479L572.3399609375,42.35993491278752L577.7908177083333,43.769359588623004L583.2416744791667,47.18833499484589L588.69253125,26.385625203450495L594.1433880208333,19.46051915486651L599.5942447916667,23.601637946234785L605.0451015625,56.23504850599496L610.4959583333334,19.8464923434787L615.9468151041667,26.846302880181188L621.397671875,28.489801618787972L626.8485286458334,58.77998140123152L632.2993854166667,38.950920104980426L637.7502421875,47.22817738850909L643.2010989583333,39.60333930121526L648.6519557291667,16.674041748046875L654.1028125,12.498060862223294L659.5536692708333,2.774026658799918L665.0045260416666,10.428746541341118L670.4553828124999,65.28176201714403L675.9062395833334,27.790069580078082L681.3570963541667,38.881195916069856L686.807953125,22.239526112874323L692.2588098958333,15.247186024983696L697.7096666666666,25.01106262207027L703.1605234375,18.73090532090925L708.6113802083333,60.41600969102644L714.0622369791666,40.99035263061519L719.51309375,18.763277265760628L724.9639505208334,33.80129072401254L730.4148072916668,45.81875271267356L735.8656640625001,29.879305097791836L741.3165208333334,37.235207027859104L746.7673776041667,28.457429673936595L752.218234375,37.46430079142251L757.6690911458335,22.27936850653752L763.1199479166668,10.411315494113508L768.5708046875001,18.76078711615666L774.0216614583334,42.38234625922307L779.4725182291667,33.31820170084634L784.923375,45.8511246575249L790.3742317708333,27.08535724216034L795.8250885416667,49.26013946533199L801.2759453125001,31.263828277587848L806.7268020833334,26.84381273057722L812.1776588541667,35.417397816975885L817.6285156250001,31.95110956827798L823.0793723958334,40.039115481906435L828.5302291666667,28.46240997314449L833.9810859375,22.234545813666426L839.4319427083334,19.44806840684675L844.8827994791668,15.279557969835075L850.3336562500001,16.68649249606659L855.7845130208334,40.248288048638216L861.2353697916667,47.280470530192005L866.6862265625,54.65878380669482L872.1370833333333,22.91933695475259L877.5879401041666,17.35634273952907L883.0387968750001,23.601637946234785L888.4896536458334,9.044223361545148L893.9405104166667,22.187232971191406L899.3913671875,26.400566101074176L904.8422239583333,24.288919236924876L910.2930807291667,21.527343326144717L915.7439375,15.257146623399528L921.1947942708334,36.796940697564L926.6456510416667,47.900517781575495L932.0965078125,35.404947068956126L937.5473645833334,20.13783984714081L942.9982213541667,11.11602783203125L948.449078125,26.415506998697904L953.8999348958333,18.04362403021916L959.3507916666666,38.20138507419159L964.8016484375001,31.946129269070084L970.2525052083334,27.595837910970026L975.7033619791667,35.417397816975885L981.15421875,21.54477437337237L986.6050755208333,22.867043813069635L992.0559322916666,27.7751286824544L997.5067890624999,52.09143956502276L1002.9576458333335,9.03177261352539L1008.4085026041668,21.522363026936823L1013.859359375,11.111047532823356L1019.3102161458334,18.041133880615234L1024.7610729166668,25.016042921278206L1030.2119296875,29.87432479858394L1035.6627864583334,24.283938937716982L1041.1136432291667,11.795838673909477L1046.5645000000002,38.18893432617183L1052.0153567708335,22.214624616834847L1057.4662135416668,22.207154168022985L1062.9170703125,6.957477993435321L1068.3679270833334,26.415506998697904L1073.8187838541667,25.456799401177282L1079.269640625,23.584206899007135L1084.7204973958335,26.38811535305446L1090.1713541666668,35.40743721856009L1095.6222109375,25.018533070882135L1101.0730677083334,17.378754085964616L1106.5239244791667,22.217114766438776L1111.97478125,38.164032830132356L1117.4256380208333,27.814971076117597L1122.8764947916666,15.986760457356743L1128.3273515625,25.688383314344613L1133.7782083333334,18.061055077446813L1139.2290651041667,15.287028418646894L1144.679921875,35.19328435262042L1150.1307786458333,30.544175042046422L1155.5816354166666,22.931787702772347L1161.0324921874999,30.57654698689776L1166.4833489583334,15.996721055772575L1171.9342057291667,22.9093763563368L1177.3850625,30.569076538085895L1182.8359192708333,21.527343326144717L1188.2867760416666,25.018533070882135" style="fill: none;" fill="none"></path></g><g><path stroke="rgb(0, 119, 187)" stroke-width="2px" d="M125.36970572916668,443.2391590542259L130.82056250000002,351.2854046291772L136.27141927083335,447.2159279717336L147.1731328125,527.4933709038623L152.62398958333335,371.9063334994843L158.07484635416668,292.5153838263615L163.525703125,296.73618740505617L168.97655989583336,363.60666486952005L174.42741666666666,300.9843826293943L179.8782734375,292.2788196139863L185.32913020833334,284.0638160705564L190.7799869791667,334.6985181172686L196.23084375,392.788728078206L201.68170052083335,317.4816237555607L207.13255729166667,383.8914235432939L212.58341406250003,321.6825061374238L218.03427083333332,292.8291426764591L223.48512760416668,267.4744394090438L228.935984375,288.2223659091523L234.38684114583336,309.2267778184676L239.83769791666666,384.7430547078447L245.2885546875,334.56903033786324L250.73941145833336,300.83497365315725L256.1902682291667,376.1047257317434L261.64112500000005,292.4655808342825L267.09198177083334,342.43541293674014L272.5428385416667,296.69634501139296L277.9936953125,325.776312086317L283.44455208333335,283.9716805352102L288.89540885416665,280.0447146097817L294.346265625,309.0748786926267L299.79712239583336,330.1515049404565L305.2479791666667,275.80149968465145L310.6988359375,330.2013079325355L316.14969270833336,259.13243823581246L321.60054947916666,304.94123035007027L327.05140625,313.43513064914254L332.5022630208333,292.65234205457875L337.9531197916667,321.72234853108694L343.4039765625,309.1993861728242L348.8548333333333,338.77987331814205L354.3056901041667,305.15787336561385L359.756546875,317.31478373209603L365.2074036458334,396.9547483656138L370.6582604166667,367.8349388970266L376.1091171875,317.60613123575814L381.5599739583334,355.3941514756941L387.0108307291667,292.5701671176484L392.4616875,292.4083073933916L397.91254427083334,330.43289184570284L403.3634010416667,284.2729886372881L408.81425781250005,275.7890489366317L414.26511458333334,309.2815611097545L419.7159713541667,275.6794823540579L425.16682812500005,326.02532704671194L430.61768489583335,275.7915390862356L436.06854166666665,371.59506479899056L441.51939843750006,350.87452994452553L446.97025520833336,263.1241480509438L452.42111197916665,300.8125623067217L457.87196875,271.9019254048663L463.32282552083336,242.15957853529167L468.7736822916667,275.93098746405684L474.2245390625,259.43623648749434L479.6753958333333,321.47084342108803L485.1262526041667,359.4008021884491L490.577109375,279.8953056335447L496.0279661458333,292.54775577121285L501.47882291666673,325.7065878974064L506.9296796875,292.5502459208168L512.3805364583334,342.6296446058482L517.8313932291667,346.6263347201874L523.2822500000001,330.2013079325355L528.7331067708334,263.2187737358939L534.1839635416667,292.44565963745094L539.6348203125,321.5057055155433L545.0856770833334,300.8275032043455L550.5365338541667,308.8009622361922L555.987390625,309.21432707044784L561.4382473958333,288.436518775092L566.8891041666667,338.436232672797L572.3399609375,288.3294423421221L577.7908177083333,321.8568166097002L583.2416744791667,313.1587240431041L588.69253125,296.7710494995115L594.1433880208333,275.9409480624726L599.5942447916667,254.98384899563237L605.0451015625,325.7962332831486L610.4959583333334,313.2035467359752L615.9468151041667,288.2024447123207L621.397671875,317.49905480278835L626.8485286458334,350.92184278700057L632.2993854166667,267.17064115736196L637.7502421875,342.3183759053545L643.2010989583333,263.2561259799531L648.6519557291667,304.79929182264516L654.1028125,258.9531474643281L659.5536692708333,300.83746380276125L665.0045260416666,300.58097839355446L670.4553828124999,313.412719302707L675.9062395833334,321.80701361762124L681.3570963541667,275.6994035508895L686.807953125,313.1786452399357L692.2588098958333,250.51652060614668L697.7096666666666,263.07434505886476L703.1605234375,275.6496005588105L708.6113802083333,396.62106831868454L714.0622369791666,288.2099151611326L719.51309375,296.5120739407007L724.9639505208334,309.23175811767555L730.4148072916668,284.01152292887343L735.8656640625001,296.74116770426406L741.3165208333334,296.7237366570364L746.7673776041667,317.6708751254609L752.218234375,292.3958566453719L757.6690911458335,279.7160148620603L763.1199479166668,242.27910571628124L768.5708046875001,254.83942031860326L774.0216614583334,300.9744220309785L779.4725182291667,263.2312244839136L784.923375,279.87289428710915L790.3742317708333,288.4016566806367L795.8250885416667,317.73810916476754L801.2759453125001,263.2312244839136L806.7268020833334,342.5076272752547L812.1776588541667,304.97609244452553L817.6285156250001,280.20906448364235L823.0793723958334,267.45451821221224L828.5302291666667,275.64711040920656L833.9810859375,276.1077880859373L839.4319427083334,292.4083073933916L844.8827994791668,288.16011216905355L850.3336562500001,255.00128004286003L855.7845130208334,267.48190985785567L861.2353697916667,351.0264290703664L866.6862265625,288.4688907199433L872.1370833333333,355.0455305311412L877.5879401041666,258.91330507066493L883.0387968750001,288.31450144449843L888.4896536458334,283.87705485026015L893.9405104166667,313.28074137369765L899.3913671875,342.6595264010956L904.8422239583333,259.2195934719507L910.2930807291667,225.67229800754103L915.7439375,296.5568966335718L921.1947942708334,346.96001476711666L926.6456510416667,384.6857812669538L932.0965078125,283.75005722045876L937.5473645833334,288.4240680270722L942.9982213541667,254.9962997436521L948.449078125,288.54857550726973L953.8999348958333,334.19052759806283L959.3507916666666,259.1100268893769L964.8016484375001,296.2904506259492L970.2525052083334,334.4470130072697L975.7033619791667,342.8014649285207L981.15421875,292.5427754720049L986.6050755208333,263.2586161295571L992.0559322916666,304.906368255615L997.5067890624999,250.8178287082246L1002.9576458333335,288.22983635796413L1008.4085026041668,317.51897599961995L1013.859359375,317.61360168457L1019.3102161458334,271.79733912150044L1024.7610729166668,271.66536119249105L1030.2119296875,329.8950195312497L1035.6627864583334,280.1991038852265L1041.1136432291667,292.57265726725234L1046.5645000000002,301.11387040879964L1052.0153567708335,309.10476048787405L1057.4662135416668,284.0986781650117L1062.9170703125,275.7990095350475L1068.3679270833334,313.30564286973714L1073.8187838541667,321.7522303263343L1079.269640625,292.540285322401L1084.7204973958335,321.2890624999997L1090.1713541666668,292.34854380289687L1095.6222109375,305.05577723185195L1101.0730677083334,284.43235821194094L1106.5239244791667,313.64679336547823L1111.97478125,279.7857390509709L1117.4256380208333,326.20959811740425L1122.8764947916666,225.70466995239238L1128.3273515625,280.0173229641382L1133.7782083333334,279.9077563815644L1139.2290651041667,300.8100721571178L1144.679921875,284.08622741699196L1150.1307786458333,313.3927981058754L1155.5816354166666,334.183057149251L1161.0324921874999,300.6930351257322L1166.4833489583334,321.73230912950277L1171.9342057291667,250.64600838555208L1177.3850625,304.7719001770017L1182.8359192708333,313.6716948615177L1188.2867760416666,284.21322504679335" style="fill: none;" fill="none"></path></g></g></g></g></g></g><g transform="translate(63, 376)" clip-path="url(#clip_1)"><clipPath id="clip_1"><rect width="1308" height="23"></rect></clipPath><g><g><line x1="0" y1="0" x2="0" y2="5" style="visibility: inherit;" fill="rgb(0, 0, 0)" stroke="rgb(204, 204, 204)" stroke-width="1px"></line><line x1="109.01713541666666" y1="0" x2="109.01713541666666" y2="5" style="visibility: inherit;" fill="rgb(0, 0, 0)" stroke="rgb(204, 204, 204)" stroke-width="1px"></line><line x1="218.03427083333332" y1="0" x2="218.03427083333332" y2="5" style="visibility: inherit;" fill="rgb(0, 0, 0)" stroke="rgb(204, 204, 204)" stroke-width="1px"></line><line x1="327.05140625" y1="0" x2="327.05140625" y2="5" style="visibility: inherit;" fill="rgb(0, 0, 0)" stroke="rgb(204, 204, 204)" stroke-width="1px"></line><line x1="436.06854166666665" y1="0" x2="436.06854166666665" y2="5" style="visibility: inherit;" fill="rgb(0, 0, 0)" stroke="rgb(204, 204, 204)" stroke-width="1px"></line><line x1="545.0856770833334" y1="0" x2="545.0856770833334" y2="5" style="visibility: inherit;" fill="rgb(0, 0, 0)" stroke="rgb(204, 204, 204)" stroke-width="1px"></line><line x1="654.1028125" y1="0" x2="654.1028125" y2="5" style="visibility: inherit;" fill="rgb(0, 0, 0)" stroke="rgb(204, 204, 204)" stroke-width="1px"></line><line x1="763.1199479166668" y1="0" x2="763.1199479166668" y2="5" style="visibility: inherit;" fill="rgb(0, 0, 0)" stroke="rgb(204, 204, 204)" stroke-width="1px"></line><line x1="872.1370833333333" y1="0" x2="872.1370833333333" y2="5" style="visibility: inherit;" fill="rgb(0, 0, 0)" stroke="rgb(204, 204, 204)" stroke-width="1px"></line><line x1="981.15421875" y1="0" x2="981.15421875" y2="5" style="visibility: inherit;" fill="rgb(0, 0, 0)" stroke="rgb(204, 204, 204)" stroke-width="1px"></line><line x1="1090.1713541666668" y1="0" x2="1090.1713541666668" y2="5" style="visibility: inherit;" fill="rgb(0, 0, 0)" stroke="rgb(204, 204, 204)" stroke-width="1px"></line><line x1="1199.1884895833334" y1="0" x2="1199.1884895833334" y2="5" style="visibility: inherit;" fill="rgb(0, 0, 0)" stroke="rgb(204, 204, 204)" stroke-width="1px"></line><line x1="1308.205625" y1="0" x2="1308.205625" y2="5" style="visibility: inherit;" fill="rgb(0, 0, 0)" stroke="rgb(204, 204, 204)" stroke-width="1px"></line></g><g transform="translate(0, 8)"><text x="0" y="0" dx="0em" dy="0.95em" style="text-anchor: middle; visibility: hidden; font-family: Roboto, sans-serif; font-size: 12px; font-weight: 200;" fill="rgb(33, 33, 33)" stroke="none" stroke-width="1px">-20</text><text x="109.01713541666666" y="0" dx="0em" dy="0.95em" style="text-anchor: middle; visibility: inherit; font-family: Roboto, sans-serif; font-size: 12px; font-weight: 200;" fill="rgb(33, 33, 33)" stroke="none" stroke-width="1px">0</text><text x="218.03427083333332" y="0" dx="0em" dy="0.95em" style="text-anchor: middle; visibility: inherit; font-family: Roboto, sans-serif; font-size: 12px; font-weight: 200;" fill="rgb(33, 33, 33)" stroke="none" stroke-width="1px">20</text><text x="327.05140625" y="0" dx="0em" dy="0.95em" style="text-anchor: middle; visibility: inherit; font-family: Roboto, sans-serif; font-size: 12px; font-weight: 200;" fill="rgb(33, 33, 33)" stroke="none" stroke-width="1px">40</text><text x="436.06854166666665" y="0" dx="0em" dy="0.95em" style="text-anchor: middle; visibility: inherit; font-family: Roboto, sans-serif; font-size: 12px; font-weight: 200;" fill="rgb(33, 33, 33)" stroke="none" stroke-width="1px">60</text><text x="545.0856770833334" y="0" dx="0em" dy="0.95em" style="text-anchor: middle; visibility: inherit; font-family: Roboto, sans-serif; font-size: 12px; font-weight: 200;" fill="rgb(33, 33, 33)" stroke="none" stroke-width="1px">80</text><text x="654.1028125" y="0" dx="0em" dy="0.95em" style="text-anchor: middle; visibility: inherit; font-family: Roboto, sans-serif; font-size: 12px; font-weight: 200;" fill="rgb(33, 33, 33)" stroke="none" stroke-width="1px">100</text><text x="763.1199479166668" y="0" dx="0em" dy="0.95em" style="text-anchor: middle; visibility: inherit; font-family: Roboto, sans-serif; font-size: 12px; font-weight: 200;" fill="rgb(33, 33, 33)" stroke="none" stroke-width="1px">120</text><text x="872.1370833333333" y="0" dx="0em" dy="0.95em" style="text-anchor: middle; visibility: inherit; font-family: Roboto, sans-serif; font-size: 12px; font-weight: 200;" fill="rgb(33, 33, 33)" stroke="none" stroke-width="1px">140</text><text x="981.15421875" y="0" dx="0em" dy="0.95em" style="text-anchor: middle; visibility: inherit; font-family: Roboto, sans-serif; font-size: 12px; font-weight: 200;" fill="rgb(33, 33, 33)" stroke="none" stroke-width="1px">160</text><text x="1090.1713541666668" y="0" dx="0em" dy="0.95em" style="text-anchor: middle; visibility: inherit; font-family: Roboto, sans-serif; font-size: 12px; font-weight: 200;" fill="rgb(33, 33, 33)" stroke="none" stroke-width="1px">180</text><text x="1199.1884895833334" y="0" dx="0em" dy="0.95em" style="text-anchor: middle; visibility: inherit; font-family: Roboto, sans-serif; font-size: 12px; font-weight: 200;" fill="rgb(33, 33, 33)" stroke="none" stroke-width="1px">200</text><text x="1308.205625" y="0" dx="0em" dy="0.95em" style="text-anchor: middle; visibility: hidden; font-family: Roboto, sans-serif; font-size: 12px; font-weight: 200;" fill="rgb(33, 33, 33)" stroke="none" stroke-width="1px">220</text></g><line x1="0" y1="0" x2="1308.205625" y2="0" fill="rgb(0, 0, 0)" stroke="rgb(204, 204, 204)" stroke-width="1px"></line></g></g></g></g></svg>