<svg viewBox="0 0 1372.1875 400" xmlns="http://www.w3.org/2000/svg"><g><g><g><g><g><line x1="61.953125" y1="377" x2="56.953125" y2="377" style="visibility: inherit;" fill="rgb(0, 0, 0)" stroke="rgb(204, 204, 204)" stroke-width="1px"></line><line x1="61.953125" y1="335.1111111111111" x2="56.953125" y2="335.1111111111111" style="visibility: inherit;" fill="rgb(0, 0, 0)" stroke="rgb(204, 204, 204)" stroke-width="1px"></line><line x1="61.953125" y1="293.22222222222223" x2="56.953125" y2="293.22222222222223" style="visibility: inherit;" fill="rgb(0, 0, 0)" stroke="rgb(204, 204, 204)" stroke-width="1px"></line><line x1="61.953125" y1="251.33333333333337" x2="56.953125" y2="251.33333333333337" style="visibility: inherit;" fill="rgb(0, 0, 0)" stroke="rgb(204, 204, 204)" stroke-width="1px"></line><line x1="61.953125" y1="209.44444444444446" x2="56.953125" y2="209.44444444444446" style="visibility: inherit;" fill="rgb(0, 0, 0)" stroke="rgb(204, 204, 204)" stroke-width="1px"></line><line x1="61.953125" y1="167.55555555555554" x2="56.953125" y2="167.55555555555554" style="visibility: inherit;" fill="rgb(0, 0, 0)" stroke="rgb(204, 204, 204)" stroke-width="1px"></line><line x1="61.953125" y1="125.66666666666669" x2="56.953125" y2="125.66666666666669" style="visibility: inherit;" fill="rgb(0, 0, 0)" stroke="rgb(204, 204, 204)" stroke-width="1px"></line><line x1="61.953125" y1="83.77777777777777" x2="56.953125" y2="83.77777777777777" style="visibility: inherit;" fill="rgb(0, 0, 0)" stroke="rgb(204, 204, 204)" stroke-width="1px"></line><line x1="61.953125" y1="41.88888888888891" x2="56.953125" y2="41.88888888888891" style="visibility: inherit;" fill="rgb(0, 0, 0)" stroke="rgb(204, 204, 204)" stroke-width="1px"></line><line x1="61.953125" y1="0" x2="56.953125" y2="0" style="visibility: inherit;" fill="rgb(0, 0, 0)" stroke="rgb(204, 204, 204)" stroke-width="1px"></line></g><g transform="translate(51.953125, 0)"><text x="0" y="377" dx="0em" dy="0.3em" style="text-anchor: end; visibility: hidden; font-family: Roboto, sans-serif; font-size: 12px; font-weight: 200;" fill="rgb(33, 33, 33)" stroke="none" stroke-width="1px">0.991</text><text x="0" y="335.1111111111111" dx="0em" dy="0.3em" style="text-anchor: end; visibility: inherit; font-family: Roboto, sans-serif; font-size: 12px; font-weight: 200;" fill="rgb(33, 33, 33)" stroke="none" stroke-width="1px">0.992</text><text x="0" y="293.22222222222223" dx="0em" dy="0.3em" style="text-anchor: end; visibility: inherit; font-family: Roboto, sans-serif; font-size: 12px; font-weight: 200;" fill="rgb(33, 33, 33)" stroke="none" stroke-width="1px">0.993</text><text x="0" y="251.33333333333337" dx="0em" dy="0.3em" style="text-anchor: end; visibility: inherit; font-family: Roboto, sans-serif; font-size: 12px; font-weight: 200;" fill="rgb(33, 33, 33)" stroke="none" stroke-width="1px">0.994</text><text x="0" y="209.44444444444446" dx="0em" dy="0.3em" style="text-anchor: end; visibility: inherit; font-family: Roboto, sans-serif; font-size: 12px; font-weight: 200;" fill="rgb(33, 33, 33)" stroke="none" stroke-width="1px">0.995</text><text x="0" y="167.55555555555554" dx="0em" dy="0.3em" style="text-anchor: end; visibility: inherit; font-family: Roboto, sans-serif; font-size: 12px; font-weight: 200;" fill="rgb(33, 33, 33)" stroke="none" stroke-width="1px">0.996</text><text x="0" y="125.66666666666669" dx="0em" dy="0.3em" style="text-anchor: end; visibility: inherit; font-family: Roboto, sans-serif; font-size: 12px; font-weight: 200;" fill="rgb(33, 33, 33)" stroke="none" stroke-width="1px">0.997</text><text x="0" y="83.77777777777777" dx="0em" dy="0.3em" style="text-anchor: end; visibility: inherit; font-family: Roboto, sans-serif; font-size: 12px; font-weight: 200;" fill="rgb(33, 33, 33)" stroke="none" stroke-width="1px">0.998</text><text x="0" y="41.88888888888891" dx="0em" dy="0.3em" style="text-anchor: end; visibility: inherit; font-family: Roboto, sans-serif; font-size: 12px; font-weight: 200;" fill="rgb(33, 33, 33)" stroke="none" stroke-width="1px">0.999</text><text x="0" y="0" dx="0em" dy="0.3em" style="text-anchor: end; visibility: hidden; font-family: Roboto, sans-serif; font-size: 12px; font-weight: 200;" fill="rgb(33, 33, 33)" stroke="none" stroke-width="1px">1</text></g><line x1="61.953125" y1="0" x2="61.953125" y2="377" fill="rgb(0, 0, 0)" stroke="rgb(204, 204, 204)" stroke-width="1px"></line></g></g><g transform="translate(61, 0)" clip-path="url(#clip_0)"><clipPath id="clip_0"><rect width="1310" height="376"></rect></clipPath><g><g><g><line x1="0" y1="0" x2="0" y2="377" fill="rgb(0, 0, 0)" stroke="rgb(66, 66, 66)" stroke-width="1px" opacity="0.25"></line><line x1="109.18640625" y1="0" x2="109.18640625" y2="377" fill="rgb(0, 0, 0)" stroke="rgb(66, 66, 66)" stroke-width="1px" opacity="0.25"></line><line x1="218.3728125" y1="0" x2="218.3728125" y2="377" fill="rgb(0, 0, 0)" stroke="rgb(66, 66, 66)" stroke-width="1px" opacity="0.25"></line><line x1="327.55921875" y1="0" x2="327.55921875" y2="377" fill="rgb(0, 0, 0)" stroke="rgb(66, 66, 66)" stroke-width="1px" opacity="0.25"></line><line x1="436.745625" y1="0" x2="436.745625" y2="377" fill="rgb(0, 0, 0)" stroke="rgb(66, 66, 66)" stroke-width="1px" opacity="0.25"></line><line x1="545.93203125" y1="0" x2="545.93203125" y2="377" fill="rgb(0, 0, 0)" stroke="rgb(66, 66, 66)" stroke-width="1px" opacity="0.25"></line><line x1="655.1184375" y1="0" x2="655.1184375" y2="377" fill="rgb(0, 0, 0)" stroke="rgb(66, 66, 66)" stroke-width="1px" opacity="0.25"></line><line x1="764.30484375" y1="0" x2="764.30484375" y2="377" fill="rgb(0, 0, 0)" stroke="rgb(66, 66, 66)" stroke-width="1px" opacity="0.25"></line><line x1="873.49125" y1="0" x2="873.49125" y2="377" fill="rgb(0, 0, 0)" stroke="rgb(66, 66, 66)" stroke-width="1px" opacity="0.25"></line><line x1="982.67765625" y1="0" x2="982.67765625" y2="377" fill="rgb(0, 0, 0)" stroke="rgb(66, 66, 66)" stroke-width="1px" opacity="0.25"></line><line x1="1091.8640625" y1="0" x2="1091.8640625" y2="377" fill="rgb(0, 0, 0)" stroke="rgb(66, 66, 66)" stroke-width="1px" opacity="0.25"></line><line x1="1201.05046875" y1="0" x2="1201.05046875" y2="377" fill="rgb(0, 0, 0)" stroke="rgb(66, 66, 66)" stroke-width="1px" opacity="0.25"></line><line x1="1310.236875" y1="0" x2="1310.236875" y2="377" fill="rgb(0, 0, 0)" stroke="rgb(66, 66, 66)" stroke-width="1px" opacity="0.25"></line></g><g><line x1="0" y1="377" x2="1310.236875" y2="377" fill="rgb(0, 0, 0)" stroke="rgb(66, 66, 66)" stroke-width="1px" opacity="0.25"></line><line x1="0" y1="335.1111111111111" x2="1310.236875" y2="335.1111111111111" fill="rgb(0, 0, 0)" stroke="rgb(66, 66, 66)" stroke-width="1px" opacity="0.25"></line><line x1="0" y1="293.22222222222223" x2="1310.236875" y2="293.22222222222223" fill="rgb(0, 0, 0)" stroke="rgb(66, 66, 66)" stroke-width="1px" opacity="0.25"></line><line x1="0" y1="251.33333333333337" x2="1310.236875" y2="251.33333333333337" fill="rgb(0, 0, 0)" stroke="rgb(66, 66, 66)" stroke-width="1px" opacity="0.25"></line><line x1="0" y1="209.44444444444446" x2="1310.236875" y2="209.44444444444446" fill="rgb(0, 0, 0)" stroke="rgb(66, 66, 66)" stroke-width="1px" opacity="0.25"></line><line x1="0" y1="167.55555555555554" x2="1310.236875" y2="167.55555555555554" fill="rgb(0, 0, 0)" stroke="rgb(66, 66, 66)" stroke-width="1px" opacity="0.25"></line><line x1="0" y1="125.66666666666669" x2="1310.236875" y2="125.66666666666669" fill="rgb(0, 0, 0)" stroke="rgb(66, 66, 66)" stroke-width="1px" opacity="0.25"></line><line x1="0" y1="83.77777777777777" x2="1310.236875" y2="83.77777777777777" fill="rgb(0, 0, 0)" stroke="rgb(66, 66, 66)" stroke-width="1px" opacity="0.25"></line><line x1="0" y1="41.88888888888891" x2="1310.236875" y2="41.88888888888891" fill="rgb(0, 0, 0)" stroke="rgb(66, 66, 66)" stroke-width="1px" opacity="0.25"></line><line x1="0" y1="0" x2="1310.236875" y2="0" fill="rgb(0, 0, 0)" stroke="rgb(66, 66, 66)" stroke-width="1px" opacity="0.25"></line></g></g></g><g><g><line x1="0" y1="41888.888888888854" x2="1310.236875" y2="41888.888888888854" fill="rgb(0, 0, 0)" stroke="rgb(153, 153, 153)" stroke-width="1.5px"></line></g></g><g><g><line x1="109.18640625" y1="0" x2="109.18640625" y2="377" fill="rgb(0, 0, 0)" stroke="rgb(153, 153, 153)" stroke-width="1.5px"></line></g></g><g><g><g><g><g><path stroke="rgb(51, 187, 238)" stroke-width="2px" d="M152.86096875,424.23538531577054L158.3202890625,354.58922785149025L163.779609375,316.1151545817118L169.23892968750002,281.3928378856498L174.69825,251.02874026825754L180.1575703125,220.1901074100709L185.616890625,198.66289977616927L191.0762109375,186.8449518606536L196.53553125,169.77652698158948L201.99485156250003,161.6727778589942L207.454171875,149.0985547685452L212.91349218750003,153.62335136407953L218.3728125,145.76156378222086L223.83213281250002,125.0750355160545L229.291453125,118.16821995097233L234.75077343750002,108.15572400086259L240.21009375,110.98585730261587L245.6694140625,112.33138727802749L251.12873437500002,91.00629239130096L256.5880546875,104.15372870405866L262.04737500000005,101.754480774897L267.5066953125,87.42259606652459L272.966015625,81.72871195210095L278.4253359375,80.34874965122056L283.88465625000003,80.24683377278309L289.3439765625,91.6958050764239L294.803296875,73.9789706173327L300.2626171875,67.0430945325125L305.7219375,74.84809948342668L311.1812578125,66.3271715192433L316.640578125,70.29287901765952L322.0998984375,64.42496509908453L327.55921875,67.06525218965515L333.0185390625,68.74829662744044L338.47785937500004,52.43551677400885L343.9371796875,48.02190165536513L349.3965,61.954298356865294L354.8558203125,57.416409164866366L360.315140625,46.25358642375753L365.7744609375,50.18615070399784L371.23378125,45.03240193966292L376.6931015625,65.08623100296052L382.152421875,59.440381548631166L387.6117421875,58.5836003221677L393.0710625,55.52981475974105L398.53038281249997,52.29635478381632L403.98970312500006,46.61112028487076L409.44902343750005,34.10573600605811L414.90834375,28.21641908080799L420.36766406250007,44.00385201899395L425.82698437500005,55.23703563766214L431.28630468750004,40.92416141894245L436.745625,33.65872752017608L442.20494531250006,49.68211787417575L447.66426562500004,55.94748102113534L453.1235859375,53.38187521190216L458.58290625,41.63470768227358L464.04222656250005,45.029906517692375L469.50154687500003,40.13798321471665L474.9608671875,36.645549646136395L480.4201875,29.750294354235145L485.87950781250004,48.82413558165168L491.338828125,51.78740402592698L496.7981484375,38.81143796761917L502.25746875000004,29.688587066120174L507.7167890625,31.40857699774016L513.176109375,33.55513013028961L518.6354296875,46.80060411136332L524.0947500000001,47.28553532346858L529.5540703125,34.26570133968577L535.013390625,28.867680449906466L540.4727109375,40.784276033547926L545.93203125,35.44038458307457L551.3913515625001,39.730358993186954L556.850671875,45.408331015149585L562.3099921875,39.821740251511905L567.7693125000001,36.35493426558168L573.2286328125,38.11588524535423L578.687953125,39.63585677994456L584.1472734375001,41.96500768216537L589.60659375,35.358844803153644L595.0659140625,28.7166097069722L600.525234375,26.30723135169473L605.9845546875,37.41537567540348L611.443875,30.02343398271511L616.9031953125,28.247830866073503L622.362515625,27.914522646843224L627.8218359375,39.296565256573444L633.28115625,38.578547386229374L638.7404765625,41.27469434546779L644.199796875,40.017099491669306L649.6591171875001,30.436951703975588L655.1184375,23.071953262514015L660.5777578125,14.914786646802774L666.037078125,12.963681914433499L671.4963984374999,32.86577764366688L676.9557187500001,30.404653502125726L682.4150390625001,33.179482961602645L687.874359375,28.480607291339705L693.3336796875001,22.95078583442379L698.793,23.406015323895517L704.2523203125,21.245299338346385L709.711640625,35.94519078939934L715.1709609375,37.390658869934065L720.63028125,29.65605964470942L726.0896015625001,30.74289586271546L731.548921875,36.117892156130665L737.0082421875001,33.17086870211795L742.4675625,34.185057727924494L747.9268828125,31.434912988598292L753.386203125,33.255339700741246L758.8455234375001,28.527120043756963L764.30484375,21.12708711686027L769.7641640625001,19.896917883928214L775.223484375,28.25705475935632L780.6828046875,29.7536865909663L786.142125,35.49240790709839L791.6014453125,31.7429389332063L797.0607656249999,37.98927447510668L802.5200859375001,34.84498542667692L807.9794062500001,31.199685559729698L813.4387265625,32.37615733905049L818.8980468750001,31.749762684815913L824.3573671875,34.36505915830215L829.8166875,31.565884152378324L835.2760078125,27.497467371748733L840.7353281250001,23.9248800778643L846.1946484375001,20.237323685078493L851.6539687500001,18.569086220017383L857.1132890625,26.59147898590217L862.5726093750001,34.11441199125238L868.0319296875,41.38460846031726L873.49125,33.656355951604034L878.9505703125,26.864190560538024L884.4098906250001,25.207764371079865L889.8692109375,18.610152812441044L895.3285312500001,19.643133143903757L900.7878515625,21.966718789134504L906.247171875,22.535936594394645L911.7064921875,21.7998603346275L917.1658125,18.94932862296037L922.6251328125,25.486347996903124L928.0844531250001,33.74395511636653L933.5437734375,33.86376942449334L939.0030937500001,28.061252042511256L944.4624140625,21.118216438012688L949.921734375,22.857761019222202L955.3810546875,20.662674685567115L960.840375,27.091609399997193L966.2996953125001,28.536089437100816L971.7590156250001,27.680004543197516L977.2183359375001,30.238382296777264L982.67765625,26.458279986723436L988.1369765625,24.637640204421906L993.596296875,25.49573488881758L999.0556171874999,35.2875990143443L1004.5149375000001,24.658053598399718L1009.9742578125001,23.101094387261977L1015.433578125,18.14411926273228L1020.8928984375001,17.83748575848571L1026.35221875,20.342030114084L1031.8115390625,23.72632436456491L1037.270859375,23.58470897709176L1042.7301796875,18.693952340225906L1048.1895000000002,25.867431508504723L1053.6488203125,24.045438390507716L1059.108140625,22.979207661009607L1064.5674609375,16.47505034581323L1070.02678125,20.061874274531647L1075.4861015625,21.77353799058561L1080.945421875,22.118418016314962L1086.4047421875,23.41893231766529L1091.8640625,27.65377511122278L1097.3233828125,26.2437882329635L1102.7827031250001,22.459594413638694L1108.2420234375,22.03569094638064L1113.70134375,27.814549553854395L1119.1606640625,27.41885855039887L1124.619984375,22.621338942429237L1130.0793046875,23.463017967606294L1135.5386250000001,21.03781336184038L1140.9979453125002,18.499091401843675L1146.457265625,24.61997642890653L1151.9165859375,26.538774551939383L1157.37590625,24.767831076381263L1162.8352265624999,26.634478302980707L1168.2945468750002,22.109763727564356L1173.7538671875002,22.09644265663495L1179.2131875,25.032643960070743L1184.6725078125,23.302878298716767L1190.131828125,23.60528629523127" style="fill: none;" fill="none"></path></g><g><path stroke="rgb(238, 51, 119)" stroke-width="2px" d="M152.86096875,428.15144997649935L158.3202890625,372.724549545881L163.779609375,341.2222834834749L169.23892968750002,348.60247171606323L174.69825,328.09091498755845L180.1575703125,312.4288530700659L185.616890625,300.0229540155087L191.0762109375,312.14138996088207L196.53553125,343.2604734918682L201.99485156250003,331.2251211589088L207.454171875,350.0056662341992L212.91349218750003,337.37727713030046L218.3728125,318.65170673731694L223.83213281250002,296.97898292377704L229.291453125,291.85141207818504L234.75077343750002,297.34585619608106L240.21009375,330.27628182998234L245.6694140625,330.32692022264905L251.12873437500002,317.35909308562043L256.5880546875,339.01337187096834L262.04737500000005,319.42503697836275L267.5066953125,326.7823403944054L272.966015625,313.7093255982869L278.4253359375,316.8113686500199L283.88465625000003,302.24782636242236L289.3439765625,292.04459538253354L294.803296875,297.7433761620864L300.2626171875,308.69890228272703L305.7219375,294.4521325463154L311.1812578125,307.37431556617116L316.640578125,287.08487704559525L322.0998984375,292.8060807175281L327.55921875,299.9240388959251L333.0185390625,296.1382288014274L338.47785937500004,305.00634223133915L343.9371796875,304.76240409025354L349.3965,317.4474536282935L354.8558203125,310.8258822895844L360.315140625,311.90540799860156L365.7744609375,344.2022096351564L371.23378125,352.5405620279538L376.6931015625,337.9449092856037L382.152421875,343.6737907701282L387.6117421875,322.2722296910385L393.0710625,308.7641554737603L398.53038281249997,314.9058939283558L403.98970312500006,302.0643015132239L409.44902343750005,290.89282734415366L414.90834375,297.4378168907364L420.36766406250007,287.7663897338119L425.82698437500005,301.7259858831007L431.28630468750004,290.31632082368543L436.745625,320.6664374340604L442.20494531250006,331.4341284024808L447.66426562500004,303.4392846603694L453.1235859375,301.4901841800408L458.58290625,288.486022989548L464.04222656250005,269.10549356972973L469.50154687500003,270.5652565359581L474.9608671875,264.893578525354L480.4201875,285.30678373732326L485.87950781250004,313.79271546961417L491.338828125,299.4539055557087L496.7981484375,295.64242508662886L502.25746875000004,306.4216458266829L507.7167890625,299.6373093869475L513.176109375,314.6899862469281L518.6354296875,325.8768062487554L524.0947500000001,326.7035064846792L529.5540703125,300.36521620057937L535.013390625,296.0743599458046L540.4727109375,304.5315851099717L545.93203125,301.6821635030856L551.3913515625001,303.0834888774009L556.850671875,304.1619768289749L562.3099921875,296.49481770020196L567.7693125000001,311.9475989670168L573.2286328125,301.3978914563859L578.687953125,308.56661694119015L584.1472734375001,308.2388363095338L589.60659375,302.6980764091709L595.0659140625,290.9045686840065L600.525234375,275.79984290515034L605.9845546875,294.66590285833496L611.443875,300.798244611964L616.9031953125,294.74423236508824L622.362515625,302.5480410534359L627.8218359375,320.60903118520264L633.28115625,297.8939985289994L638.7404765625,314.27817990709366L644.199796875,293.04284854263983L649.6591171875001,296.34291266850136L655.1184375,280.44606117345637L660.5777578125,287.40262707832096L666.037078125,291.437746079012L671.4963984374999,299.4346094741573L676.9557187500001,307.03710220606865L682.4150390625001,293.6887504797265L687.874359375,300.19996867756066L693.3336796875001,279.4675514139202L698.793,271.56723317396006L704.2523203125,272.12319572238084L709.711640625,320.24299846438277L715.1709609375,306.3531595581954L720.63028125,301.41486659995485L726.0896015625001,303.4274587486651L731.548921875,294.64392983311245L737.0082421875001,294.5561131573698L742.4675625,294.143887934639L747.9268828125,301.7513985897406L753.386203125,297.2666033055262L758.8455234375001,288.5774802599541L764.30484375,268.8367862364157L769.7641640625001,261.858079762888L775.223484375,276.25083694091495L780.6828046875,270.3023446421392L786.142125,273.098021317755L791.6014453125,278.25293184141594L797.0607656249999,293.07371720167157L802.5200859375001,280.60180683959516L807.9794062500001,303.871904916408L813.4387265625,303.16392818832077L818.8980468750001,293.1375544320828L824.3573671875,281.87950696853414L829.8166875,278.22666844842814L835.2760078125,276.57426816229327L840.7353281250001,281.65997187166465L846.1946484375001,283.3311783464854L851.6539687500001,271.3097389852286L857.1132890625,269.0105233380346L862.5726093750001,299.6306269970396L868.0319296875,294.21344231540434L873.49125,317.12630952647663L878.9505703125,292.81522968561245L884.4098906250001,289.9394427752191L889.8692109375,286.5730918456549L895.3285312500001,296.32406481825853L900.7878515625,313.66978846557663L906.247171875,291.1487902953308L911.7064921875,264.10867884282567L917.1658125,275.7176313338809L922.6251328125,302.9907503515021L928.0844531250001,333.42443326517093L933.5437734375,312.0309046736293L939.0030937500001,301.538757393619L944.4624140625,282.3171792552699L949.921734375,283.83835688652226L955.3810546875,302.637940525213L960.840375,284.20010758193183L966.2996953125001,287.8623723816631L971.7590156250001,304.43315028141376L977.2183359375001,318.37344889568965L982.67765625,306.93322984546074L988.1369765625,288.2813368330576L993.596296875,293.9104569409387L999.0556171874999,275.94452031510787L1004.5149375000001,279.67120564813223L1009.9742578125001,293.7928519060301L1015.433578125,302.0601056197649L1020.8928984375001,289.00674475308256L1026.35221875,281.13078503985224L1031.8115390625,299.3825057232462L1037.270859375,290.77881714872046L1042.7301796875,290.14175419711074L1048.1895000000002,293.57758069192585L1053.6488203125,298.23971466051273L1059.108140625,291.6930742279947L1064.5674609375,284.1817223028742L1070.02678125,294.82432701168864L1075.4861015625,304.47367064277415L1080.945421875,298.57638484178784L1086.4047421875,305.56540426509L1091.8640625,299.2953423871373L1097.3233828125,300.1822953616538L1102.7827031250001,292.9644857959911L1108.2420234375,300.2507824106516L1113.70134375,291.11701942570676L1119.1606640625,304.24670396499516L1124.619984375,272.4248357377268L1130.0793046875,274.7660060051853L1135.5386250000001,276.054857928975L1140.9979453125002,285.08449586463325L1146.457265625,283.4044542114524L1151.9165859375,294.2211430324798L1157.37590625,309.06236045548087L1162.8352265624999,304.4295912695585L1168.2945468750002,310.0760370586556L1173.7538671875002,285.20443645350247L1179.2131875,291.72076083890903L1184.6725078125,299.4106687963325L1190.131828125,292.4865292227485" style="fill: none;" fill="none"></path></g></g></g></g><g opacity="0.2"><g><g><g><path stroke="rgb(51, 187, 238)" stroke-width="2px" d="M141.94232812500002,410.8314050568471L147.4016484375,308.3463907241819L152.86096875,312.9504389233057L158.3202890625,251.1728008588153L163.779609375,258.75300168991066L169.23892968750002,229.49832015567333L174.69825,205.5817378891837L180.1575703125,173.99257421493513L185.616890625,166.3973927497862L191.0762109375,169.12636491987428L196.53553125,144.1811124483743L201.99485156250003,149.51921171612196L207.454171875,130.23913568920548L212.91349218750003,160.41013267305146L218.3728125,133.96931356853898L223.83213281250002,94.0459238158331L229.291453125,107.80813296635935L234.75077343750002,93.1370986832512L240.21009375,115.23103713989249L245.6694140625,114.34967650307537L251.12873437500002,59.01870462629525L256.5880546875,123.87486298878977L262.04737500000005,98.15561109118981L267.5066953125,65.92477692498093L272.966015625,73.18788766860953L278.4253359375,78.27880647447367L283.88465625000003,80.09395996729526L289.3439765625,108.86926121181902L294.803296875,47.40371969011092L300.2626171875,56.63928058412337L305.7219375,86.55560678905906L311.1812578125,53.54577965206564L316.640578125,76.24144024319114L322.0998984375,55.623094240824315L327.55921875,71.02568282021409L333.0185390625,71.27286328209763L338.47785937500004,27.966347005632155L343.9371796875,41.4014789793226L349.3965,82.85289340549039L354.8558203125,50.60957537757021L360.315140625,29.509352313147605L365.7744609375,56.084997124142056L371.23378125,37.30177879333492L376.6931015625,95.166974597507L382.152421875,50.97160736719764L387.6117421875,57.29842848247946L393.0710625,50.94913641611732L398.53038281249997,47.44616481992929L403.98970312500006,38.08326853646169L409.44902343750005,15.347659587860107L414.90834375,19.38244369294905L420.36766406250007,67.68500142627286L425.82698437500005,72.08681106567374L431.28630468750004,19.45485009087453L436.745625,22.76057667202418L442.20494531250006,73.71720340516825L447.66426562500004,65.3455257415771L453.1235859375,49.53346649805702L458.58290625,24.013956387837712L464.04222656250005,50.12270477082991L469.50154687500003,32.80009826024372L474.9608671875,31.406899293263738L480.4201875,19.407411416371648L485.87950781250004,77.43489742279044L491.338828125,56.23230669233529L496.7981484375,19.34748888015747L502.25746875000004,16.004310713873963L507.7167890625,33.988561895158526L513.176109375,36.77495982911849L518.6354296875,66.66881508297385L524.0947500000001,48.01293214162185L529.5540703125,14.735950364006895L535.013390625,20.77064911524452L540.4727109375,58.6591694090101L545.93203125,27.424547407362187L551.3913515625001,46.16532060835092L556.850671875,53.925289048088885L562.3099921875,31.44185410605532L567.7693125000001,31.154725286695683L573.2286328125,40.75731171502004L578.687953125,41.91581408182777L584.1472734375001,45.4587340354919L589.60659375,25.44960048463606L595.0659140625,18.753257062700026L600.525234375,22.693163818783212L605.9845546875,54.07759216096663L611.443875,18.93552144368488L616.9031953125,25.584426191117995L622.362515625,27.41456031799312L627.8218359375,56.3696291711595L633.28115625,37.501520580715585L638.7404765625,45.31891478432546L644.199796875,38.13070721096461L649.6591171875001,16.06673002243042L655.1184375,12.024455600314647L660.5777578125,2.679036723242861L666.037078125,10.037024815877265L671.4963984374999,62.718921237521634L676.9557187500001,26.71296728981862L682.4150390625001,37.34172715081105L687.874359375,21.43229378594289L693.3336796875001,14.656053649054629L698.793,24.088859558105426L704.2523203125,18.004225360022645L709.711640625,57.99502796596945L715.1709609375,39.55886099073617L720.63028125,18.054160806867802L726.0896015625001,32.3731501897176L731.548921875,44.18038659625581L737.0082421875001,28.7503335211012L742.4675625,35.70634126663204L747.9268828125,27.3096958796183L753.386203125,35.98597976896493L758.8455234375001,21.434790558285165L764.30484375,10.027037726508242L769.7641640625001,18.051664034525526L775.223484375,40.79726007249617L780.6828046875,31.998634338378864L786.142125,44.100489881303545L791.6014453125,26.11873547236122L797.0607656249999,47.358777787950274L802.5200859375001,30.128551854027606L807.9794062500001,25.731735759311228L813.4387265625,34.140865008036265L818.8980468750001,30.81017070346406L824.3573671875,38.288003868526864L829.8166875,27.367121643490243L835.2760078125,21.39484220080903L840.7353281250001,18.5659991370307L846.1946484375001,14.705989095899785L851.6539687500001,16.06673002243042L857.1132890625,38.6250681347317L862.5726093750001,45.39881149927772L868.0319296875,52.28990316390987L873.49125,22.06397718853419L878.9505703125,16.675942473941355L884.4098906250001,22.72312508689032L889.8692109375,8.713735474480528L895.3285312500001,21.19260364108613L900.7878515625,25.452097256978337L906.247171875,23.389763302273202L911.7064921875,20.695745944976807L917.1658125,14.67353105545044L922.6251328125,35.29187705781722L928.0844531250001,46.13036579555929L933.5437734375,34.04349088668819L939.0030937500001,19.357475969526494L944.4624140625,10.703663031260145L949.921734375,25.467077891031874L955.3810546875,17.37004518508911L960.840375,36.73501147164235L966.2996953125001,30.70280949274696L971.7590156250001,26.395877202351873L977.2183359375001,34.07594892713754L982.67765625,20.78812652164033L988.1369765625,21.906680530971933L993.596296875,26.782876915401864L999.0556171874999,49.975395202636676L1004.5149375000001,8.713735474480528L1009.9742578125001,20.765655570560007L1015.433578125,10.708656575944698L1020.8928984375001,17.377535502115858L1026.35221875,24.098846647474492L1031.8115390625,28.802765740288592L1037.270859375,23.37228589587739L1042.7301796875,11.357817384931767L1048.1895000000002,36.62765026092525L1053.6488203125,21.31244871351453L1059.108140625,21.379861566755498L1064.5674609375,6.718814373016357L1070.02678125,25.442110167609314L1075.4861015625,24.341033564673523L1080.945421875,22.63573805491127L1086.4047421875,25.369703769683795L1091.8640625,34.00603930155433L1097.3233828125,24.12880791558156L1102.7827031250001,16.783303684658456L1108.2420234375,21.399835745493544L1113.70134375,36.4828374650743L1119.1606640625,26.825322045220233L1124.619984375,15.425059530470097L1130.0793046875,24.72553650538124L1135.5386250000001,17.40000645319618L1140.9979453125002,14.69100846184625L1146.457265625,33.801303969489155L1151.9165859375,29.41697173648408L1157.37590625,22.11141586303711L1162.8352265624999,29.434449142879892L1168.2945468750002,15.322691864437509L1173.7538671875002,22.076461050245488L1179.2131875,29.436945915222125L1184.6725078125,20.708229806688063L1190.131828125,24.058898289998357" style="fill: none;" fill="none"></path></g><g><path stroke="rgb(238, 51, 119)" stroke-width="2px" d="M125.56436718750001,437.48444981045157L131.02368750000002,348.6817479133603L136.4830078125,441.79637564553116L147.4016484375,517.3487067222591L152.86096875,365.7072385152178L158.3202890625,290.42206207911147L163.779609375,294.25460762447756L169.23892968750002,359.632591406504L174.69825,297.39055368635366L180.1575703125,288.9664438035751L185.616890625,281.42868810229805L191.0762109375,330.3104970190257L196.53553125,389.92593023512063L201.99485156250003,313.1751484341089L207.454171875,378.1736228201121L212.91349218750003,318.43584775924654L218.3728125,290.5643781026202L223.83213281250002,264.47061035368154L229.291453125,284.16015704472835L234.75077343750002,305.5874572859868L240.21009375,379.67168622546694L245.6694140625,330.4028775956893L251.12873437500002,297.90738556120107L256.5880546875,371.49475680457186L262.04737500000005,290.0425526830883L267.5066953125,337.81829145219564L272.966015625,294.0998077392576L278.4253359375,321.46443261040554L283.88465625000003,280.40251466963L289.3439765625,276.7397496435375L294.803296875,306.2915470865035L300.2626171875,325.1321911811826L305.7219375,273.0819781621295L311.1812578125,326.7575899759926L316.640578125,256.6507193777294L322.0998984375,301.38788620630874L327.55921875,310.60097614924086L333.0185390625,290.4595136642454L338.47785937500004,318.3085123697914L343.9371796875,304.3964968787297L349.3965,336.4750279320608L354.8558203125,300.89352528254165L360.315140625,313.52469656202504L365.7744609375,392.6474120881819L371.23378125,365.04809061686166L376.6931015625,316.05143017239016L382.152421875,352.2671129968428L387.6117421875,290.1698880725434L393.0710625,288.50204414791506L398.53038281249997,324.11850161022585L403.98970312500006,282.80191289054L409.44902343750005,274.1356160905624L414.90834375,307.25530121061513L420.36766406250007,273.2592489984298L425.82698437500005,322.66538010703164L431.28630468750004,273.2018232345579L436.745625,366.1916123496158L442.20494531250006,347.58566485510903L447.66426562500004,261.44701904720705L453.1235859375,298.56653345955715L458.58290625,268.9797812037995L464.04222656250005,240.03469944000224L469.50154687500003,272.75490098529366L474.9608671875,256.38606150945003L480.4201875,315.92659155527724L485.87950781250004,356.5216130680505L491.338828125,277.9456906848481L496.7981484375,289.92520438300215L502.25746875000004,322.59047693676393L507.7167890625,289.4608047273422L513.176109375,337.2690015368988L518.6354296875,342.65703625149166L524.0947500000001,327.9435568385651L529.5540703125,260.85778077443416L535.013390625,289.6380755636425L540.4727109375,317.21742285622463L545.93203125,297.40803109274947L551.3913515625001,305.1854769388832L556.850671875,305.7797087563406L562.3099921875,284.99407900704256L567.7693125000001,335.1267708672415L573.2286328125,285.5733301904464L578.687953125,319.3197051684059L584.1472734375001,307.74716536203994L589.60659375,294.38693655861726L595.0659140625,273.2143070962692L600.525234375,253.1427542368569L605.9845546875,322.9649927881026L611.443875,309.99675724241445L616.9031953125,285.6632139947677L622.362515625,314.2537540859644L627.8218359375,347.70051638285287L633.28115625,263.8214495446945L638.7404765625,338.8544519742327L644.199796875,261.1898514959545L649.6591171875001,301.29300885730294L655.1184375,256.60078393088423L660.5777578125,297.8374759356178L666.037078125,297.49042458004396L671.4963984374999,311.4299045668705L676.9557187500001,318.44084130393105L682.4150390625001,273.66622289021785L687.874359375,309.96679597430733L693.3336796875001,248.36892551845952L698.793,259.71675581402224L704.2523203125,272.95713954501656L709.711640625,392.4227025773787L715.1709609375,285.5184011989167L720.63028125,294.007427162594L726.0896015625001,306.44634697172353L731.548921875,281.4686364597742L737.0082421875001,294.4243881437511L742.4675625,293.5255501005382L747.9268828125,313.1626645723976L753.386203125,290.53941037919765L758.8455234375001,275.5437956915959L764.30484375,239.22574520111064L769.7641640625001,251.39002005259175L775.223484375,297.8399727079601L780.6828046875,261.3796061939661L786.142125,277.29153633117653L791.6014453125,285.98529762691896L797.0607656249999,315.304895242055L802.5200859375001,261.89394129647127L807.9794062500001,338.7770520316227L813.4387265625,302.10196309619454L818.8980468750001,278.09799379772585L824.3573671875,264.99243577321346L829.8166875,272.7474106682669L835.2760078125,274.09566773308626L840.7353281250001,289.28852743572634L846.1946484375001,285.8379880587257L851.6539687500001,253.27757994333882L857.1132890625,265.5616998672483L862.5726093750001,345.56078248553774L868.0319296875,286.08766529295156L873.49125,351.4956103430851L878.9505703125,256.3486099243162L884.4098906250001,285.6257624096338L889.8692109375,281.52356545130385L895.3285312500001,310.950524277157L900.7878515625,339.6883739365469L906.247171875,257.3672930399574L911.7064921875,223.54851166407246L917.1658125,293.13106007046144L922.6251328125,343.9004288779362L928.0844531250001,379.07495763566726L933.5437734375,279.9406117863123L939.0030937500001,285.8005364735919L944.4624140625,253.4848120477462L949.921734375,286.1201233334009L955.3810546875,330.83731598324215L960.840375,256.5433581670123L966.2996953125001,293.35576958126467L971.7590156250001,329.2893171310422L977.2183359375001,339.2838968171011L982.67765625,289.7729012701244L988.1369765625,260.3034973144529L993.596296875,302.3541371027626L999.0556171874999,248.99561537636632L1004.5149375000001,285.26123364766414L1009.9742578125001,314.9753212928769L1015.433578125,314.4609861903718L1020.8928984375001,269.42670345306374L1026.35221875,269.31684547000435L1031.8115390625,326.7600867483348L1037.270859375,277.8732842869226L1042.7301796875,289.18615976969375L1048.1895000000002,298.7313204341462L1053.6488203125,305.2329156133861L1059.108140625,281.87311357922L1064.5674609375,272.9146944151982L1070.02678125,310.78823407491024L1075.4861015625,318.94768608940944L1080.945421875,289.73045614030605L1086.4047421875,316.0489334000479L1091.8640625,289.8902495702105L1097.3233828125,301.51272482342165L1102.7827031250001,282.13777144749935L1108.2420234375,311.18022733264473L1113.70134375,277.41637494828944L1119.1606640625,323.9412307739255L1124.619984375,224.69203339682664L1130.0793046875,278.2777614063684L1135.5386250000001,277.9881358146665L1140.9979453125002,298.62895276811366L1146.457265625,280.8843917316858L1151.9165859375,310.4461762640209L1157.37590625,331.3241865899825L1162.8352265624999,297.48043749067494L1168.2945468750002,318.5457057423059L1173.7538671875002,247.89703554577275L1179.2131875,301.49524741702584L1184.6725078125,310.9455307324725L1190.131828125,282.1003198623655" style="fill: none;" fill="none"></path></g></g></g></g></g></g><g transform="translate(61, 377)" clip-path="url(#clip_1)"><clipPath id="clip_1"><rect width="1310" height="22"></rect></clipPath><g><g><line x1="0" y1="0" x2="0" y2="5" style="visibility: inherit;" fill="rgb(0, 0, 0)" stroke="rgb(204, 204, 204)" stroke-width="1px"></line><line x1="109.18640625" y1="0" x2="109.18640625" y2="5" style="visibility: inherit;" fill="rgb(0, 0, 0)" stroke="rgb(204, 204, 204)" stroke-width="1px"></line><line x1="218.3728125" y1="0" x2="218.3728125" y2="5" style="visibility: inherit;" fill="rgb(0, 0, 0)" stroke="rgb(204, 204, 204)" stroke-width="1px"></line><line x1="327.55921875" y1="0" x2="327.55921875" y2="5" style="visibility: inherit;" fill="rgb(0, 0, 0)" stroke="rgb(204, 204, 204)" stroke-width="1px"></line><line x1="436.745625" y1="0" x2="436.745625" y2="5" style="visibility: inherit;" fill="rgb(0, 0, 0)" stroke="rgb(204, 204, 204)" stroke-width="1px"></line><line x1="545.93203125" y1="0" x2="545.93203125" y2="5" style="visibility: inherit;" fill="rgb(0, 0, 0)" stroke="rgb(204, 204, 204)" stroke-width="1px"></line><line x1="655.1184375" y1="0" x2="655.1184375" y2="5" style="visibility: inherit;" fill="rgb(0, 0, 0)" stroke="rgb(204, 204, 204)" stroke-width="1px"></line><line x1="764.30484375" y1="0" x2="764.30484375" y2="5" style="visibility: inherit;" fill="rgb(0, 0, 0)" stroke="rgb(204, 204, 204)" stroke-width="1px"></line><line x1="873.49125" y1="0" x2="873.49125" y2="5" style="visibility: inherit;" fill="rgb(0, 0, 0)" stroke="rgb(204, 204, 204)" stroke-width="1px"></line><line x1="982.67765625" y1="0" x2="982.67765625" y2="5" style="visibility: inherit;" fill="rgb(0, 0, 0)" stroke="rgb(204, 204, 204)" stroke-width="1px"></line><line x1="1091.8640625" y1="0" x2="1091.8640625" y2="5" style="visibility: inherit;" fill="rgb(0, 0, 0)" stroke="rgb(204, 204, 204)" stroke-width="1px"></line><line x1="1201.05046875" y1="0" x2="1201.05046875" y2="5" style="visibility: inherit;" fill="rgb(0, 0, 0)" stroke="rgb(204, 204, 204)" stroke-width="1px"></line><line x1="1310.236875" y1="0" x2="1310.236875" y2="5" style="visibility: inherit;" fill="rgb(0, 0, 0)" stroke="rgb(204, 204, 204)" stroke-width="1px"></line></g><g transform="translate(0, 8)"><text x="0" y="0" dx="0em" dy="0.95em" style="text-anchor: middle; visibility: hidden; font-family: Roboto, sans-serif; font-size: 12px; font-weight: 200;" fill="rgb(33, 33, 33)" stroke="none" stroke-width="1px">-20</text><text x="109.18640625" y="0" dx="0em" dy="0.95em" style="text-anchor: middle; visibility: inherit; font-family: Roboto, sans-serif; font-size: 12px; font-weight: 200;" fill="rgb(33, 33, 33)" stroke="none" stroke-width="1px">0</text><text x="218.3728125" y="0" dx="0em" dy="0.95em" style="text-anchor: middle; visibility: inherit; font-family: Roboto, sans-serif; font-size: 12px; font-weight: 200;" fill="rgb(33, 33, 33)" stroke="none" stroke-width="1px">20</text><text x="327.55921875" y="0" dx="0em" dy="0.95em" style="text-anchor: middle; visibility: inherit; font-family: Roboto, sans-serif; font-size: 12px; font-weight: 200;" fill="rgb(33, 33, 33)" stroke="none" stroke-width="1px">40</text><text x="436.745625" y="0" dx="0em" dy="0.95em" style="text-anchor: middle; visibility: inherit; font-family: Roboto, sans-serif; font-size: 12px; font-weight: 200;" fill="rgb(33, 33, 33)" stroke="none" stroke-width="1px">60</text><text x="545.93203125" y="0" dx="0em" dy="0.95em" style="text-anchor: middle; visibility: inherit; font-family: Roboto, sans-serif; font-size: 12px; font-weight: 200;" fill="rgb(33, 33, 33)" stroke="none" stroke-width="1px">80</text><text x="655.1184375" y="0" dx="0em" dy="0.95em" style="text-anchor: middle; visibility: inherit; font-family: Roboto, sans-serif; font-size: 12px; font-weight: 200;" fill="rgb(33, 33, 33)" stroke="none" stroke-width="1px">100</text><text x="764.30484375" y="0" dx="0em" dy="0.95em" style="text-anchor: middle; visibility: inherit; font-family: Roboto, sans-serif; font-size: 12px; font-weight: 200;" fill="rgb(33, 33, 33)" stroke="none" stroke-width="1px">120</text><text x="873.49125" y="0" dx="0em" dy="0.95em" style="text-anchor: middle; visibility: inherit; font-family: Roboto, sans-serif; font-size: 12px; font-weight: 200;" fill="rgb(33, 33, 33)" stroke="none" stroke-width="1px">140</text><text x="982.67765625" y="0" dx="0em" dy="0.95em" style="text-anchor: middle; visibility: inherit; font-family: Roboto, sans-serif; font-size: 12px; font-weight: 200;" fill="rgb(33, 33, 33)" stroke="none" stroke-width="1px">160</text><text x="1091.8640625" y="0" dx="0em" dy="0.95em" style="text-anchor: middle; visibility: inherit; font-family: Roboto, sans-serif; font-size: 12px; font-weight: 200;" fill="rgb(33, 33, 33)" stroke="none" stroke-width="1px">180</text><text x="1201.05046875" y="0" dx="0em" dy="0.95em" style="text-anchor: middle; visibility: inherit; font-family: Roboto, sans-serif; font-size: 12px; font-weight: 200;" fill="rgb(33, 33, 33)" stroke="none" stroke-width="1px">200</text><text x="1310.236875" y="0" dx="0em" dy="0.95em" style="text-anchor: middle; visibility: hidden; font-family: Roboto, sans-serif; font-size: 12px; font-weight: 200;" fill="rgb(33, 33, 33)" stroke="none" stroke-width="1px">220</text></g><line x1="0" y1="0" x2="1310.236875" y2="0" fill="rgb(0, 0, 0)" stroke="rgb(204, 204, 204)" stroke-width="1px"></line></g></g></g></g></svg>