<svg viewBox="0 0 1372.1875 400" xmlns="http://www.w3.org/2000/svg"><g><g><g><g><g><line x1="61.953125" y1="377" x2="56.953125" y2="377" style="visibility: inherit;" fill="rgb(0, 0, 0)" stroke="rgb(204, 204, 204)" stroke-width="1px"></line><line x1="61.953125" y1="335.1111111111111" x2="56.953125" y2="335.1111111111111" style="visibility: inherit;" fill="rgb(0, 0, 0)" stroke="rgb(204, 204, 204)" stroke-width="1px"></line><line x1="61.953125" y1="293.22222222222223" x2="56.953125" y2="293.22222222222223" style="visibility: inherit;" fill="rgb(0, 0, 0)" stroke="rgb(204, 204, 204)" stroke-width="1px"></line><line x1="61.953125" y1="251.33333333333337" x2="56.953125" y2="251.33333333333337" style="visibility: inherit;" fill="rgb(0, 0, 0)" stroke="rgb(204, 204, 204)" stroke-width="1px"></line><line x1="61.953125" y1="209.44444444444446" x2="56.953125" y2="209.44444444444446" style="visibility: inherit;" fill="rgb(0, 0, 0)" stroke="rgb(204, 204, 204)" stroke-width="1px"></line><line x1="61.953125" y1="167.55555555555554" x2="56.953125" y2="167.55555555555554" style="visibility: inherit;" fill="rgb(0, 0, 0)" stroke="rgb(204, 204, 204)" stroke-width="1px"></line><line x1="61.953125" y1="125.66666666666669" x2="56.953125" y2="125.66666666666669" style="visibility: inherit;" fill="rgb(0, 0, 0)" stroke="rgb(204, 204, 204)" stroke-width="1px"></line><line x1="61.953125" y1="83.77777777777777" x2="56.953125" y2="83.77777777777777" style="visibility: inherit;" fill="rgb(0, 0, 0)" stroke="rgb(204, 204, 204)" stroke-width="1px"></line><line x1="61.953125" y1="41.88888888888891" x2="56.953125" y2="41.88888888888891" style="visibility: inherit;" fill="rgb(0, 0, 0)" stroke="rgb(204, 204, 204)" stroke-width="1px"></line><line x1="61.953125" y1="0" x2="56.953125" y2="0" style="visibility: inherit;" fill="rgb(0, 0, 0)" stroke="rgb(204, 204, 204)" stroke-width="1px"></line></g><g transform="translate(51.953125, 0)"><text x="0" y="377" dx="0em" dy="0.3em" style="text-anchor: end; visibility: hidden; font-family: Roboto, sans-serif; font-size: 12px; font-weight: 200;" fill="rgb(33, 33, 33)" stroke="none" stroke-width="1px">0.991</text><text x="0" y="335.1111111111111" dx="0em" dy="0.3em" style="text-anchor: end; visibility: inherit; font-family: Roboto, sans-serif; font-size: 12px; font-weight: 200;" fill="rgb(33, 33, 33)" stroke="none" stroke-width="1px">0.992</text><text x="0" y="293.22222222222223" dx="0em" dy="0.3em" style="text-anchor: end; visibility: inherit; font-family: Roboto, sans-serif; font-size: 12px; font-weight: 200;" fill="rgb(33, 33, 33)" stroke="none" stroke-width="1px">0.993</text><text x="0" y="251.33333333333337" dx="0em" dy="0.3em" style="text-anchor: end; visibility: inherit; font-family: Roboto, sans-serif; font-size: 12px; font-weight: 200;" fill="rgb(33, 33, 33)" stroke="none" stroke-width="1px">0.994</text><text x="0" y="209.44444444444446" dx="0em" dy="0.3em" style="text-anchor: end; visibility: inherit; font-family: Roboto, sans-serif; font-size: 12px; font-weight: 200;" fill="rgb(33, 33, 33)" stroke="none" stroke-width="1px">0.995</text><text x="0" y="167.55555555555554" dx="0em" dy="0.3em" style="text-anchor: end; visibility: inherit; font-family: Roboto, sans-serif; font-size: 12px; font-weight: 200;" fill="rgb(33, 33, 33)" stroke="none" stroke-width="1px">0.996</text><text x="0" y="125.66666666666669" dx="0em" dy="0.3em" style="text-anchor: end; visibility: inherit; font-family: Roboto, sans-serif; font-size: 12px; font-weight: 200;" fill="rgb(33, 33, 33)" stroke="none" stroke-width="1px">0.997</text><text x="0" y="83.77777777777777" dx="0em" dy="0.3em" style="text-anchor: end; visibility: inherit; font-family: Roboto, sans-serif; font-size: 12px; font-weight: 200;" fill="rgb(33, 33, 33)" stroke="none" stroke-width="1px">0.998</text><text x="0" y="41.88888888888891" dx="0em" dy="0.3em" style="text-anchor: end; visibility: inherit; font-family: Roboto, sans-serif; font-size: 12px; font-weight: 200;" fill="rgb(33, 33, 33)" stroke="none" stroke-width="1px">0.999</text><text x="0" y="0" dx="0em" dy="0.3em" style="text-anchor: end; visibility: hidden; font-family: Roboto, sans-serif; font-size: 12px; font-weight: 200;" fill="rgb(33, 33, 33)" stroke="none" stroke-width="1px">1</text></g><line x1="61.953125" y1="0" x2="61.953125" y2="377" fill="rgb(0, 0, 0)" stroke="rgb(204, 204, 204)" stroke-width="1px"></line></g></g><g transform="translate(61, 0)" clip-path="url(#clip_0)"><clipPath id="clip_0"><rect width="1310" height="376"></rect></clipPath><g><g><g><line x1="0" y1="0" x2="0" y2="377" fill="rgb(0, 0, 0)" stroke="rgb(66, 66, 66)" stroke-width="1px" opacity="0.25"></line><line x1="109.18640625" y1="0" x2="109.18640625" y2="377" fill="rgb(0, 0, 0)" stroke="rgb(66, 66, 66)" stroke-width="1px" opacity="0.25"></line><line x1="218.3728125" y1="0" x2="218.3728125" y2="377" fill="rgb(0, 0, 0)" stroke="rgb(66, 66, 66)" stroke-width="1px" opacity="0.25"></line><line x1="327.55921875" y1="0" x2="327.55921875" y2="377" fill="rgb(0, 0, 0)" stroke="rgb(66, 66, 66)" stroke-width="1px" opacity="0.25"></line><line x1="436.745625" y1="0" x2="436.745625" y2="377" fill="rgb(0, 0, 0)" stroke="rgb(66, 66, 66)" stroke-width="1px" opacity="0.25"></line><line x1="545.93203125" y1="0" x2="545.93203125" y2="377" fill="rgb(0, 0, 0)" stroke="rgb(66, 66, 66)" stroke-width="1px" opacity="0.25"></line><line x1="655.1184375" y1="0" x2="655.1184375" y2="377" fill="rgb(0, 0, 0)" stroke="rgb(66, 66, 66)" stroke-width="1px" opacity="0.25"></line><line x1="764.30484375" y1="0" x2="764.30484375" y2="377" fill="rgb(0, 0, 0)" stroke="rgb(66, 66, 66)" stroke-width="1px" opacity="0.25"></line><line x1="873.49125" y1="0" x2="873.49125" y2="377" fill="rgb(0, 0, 0)" stroke="rgb(66, 66, 66)" stroke-width="1px" opacity="0.25"></line><line x1="982.67765625" y1="0" x2="982.67765625" y2="377" fill="rgb(0, 0, 0)" stroke="rgb(66, 66, 66)" stroke-width="1px" opacity="0.25"></line><line x1="1091.8640625" y1="0" x2="1091.8640625" y2="377" fill="rgb(0, 0, 0)" stroke="rgb(66, 66, 66)" stroke-width="1px" opacity="0.25"></line><line x1="1201.05046875" y1="0" x2="1201.05046875" y2="377" fill="rgb(0, 0, 0)" stroke="rgb(66, 66, 66)" stroke-width="1px" opacity="0.25"></line><line x1="1310.236875" y1="0" x2="1310.236875" y2="377" fill="rgb(0, 0, 0)" stroke="rgb(66, 66, 66)" stroke-width="1px" opacity="0.25"></line></g><g><line x1="0" y1="377" x2="1310.236875" y2="377" fill="rgb(0, 0, 0)" stroke="rgb(66, 66, 66)" stroke-width="1px" opacity="0.25"></line><line x1="0" y1="335.1111111111111" x2="1310.236875" y2="335.1111111111111" fill="rgb(0, 0, 0)" stroke="rgb(66, 66, 66)" stroke-width="1px" opacity="0.25"></line><line x1="0" y1="293.22222222222223" x2="1310.236875" y2="293.22222222222223" fill="rgb(0, 0, 0)" stroke="rgb(66, 66, 66)" stroke-width="1px" opacity="0.25"></line><line x1="0" y1="251.33333333333337" x2="1310.236875" y2="251.33333333333337" fill="rgb(0, 0, 0)" stroke="rgb(66, 66, 66)" stroke-width="1px" opacity="0.25"></line><line x1="0" y1="209.44444444444446" x2="1310.236875" y2="209.44444444444446" fill="rgb(0, 0, 0)" stroke="rgb(66, 66, 66)" stroke-width="1px" opacity="0.25"></line><line x1="0" y1="167.55555555555554" x2="1310.236875" y2="167.55555555555554" fill="rgb(0, 0, 0)" stroke="rgb(66, 66, 66)" stroke-width="1px" opacity="0.25"></line><line x1="0" y1="125.66666666666669" x2="1310.236875" y2="125.66666666666669" fill="rgb(0, 0, 0)" stroke="rgb(66, 66, 66)" stroke-width="1px" opacity="0.25"></line><line x1="0" y1="83.77777777777777" x2="1310.236875" y2="83.77777777777777" fill="rgb(0, 0, 0)" stroke="rgb(66, 66, 66)" stroke-width="1px" opacity="0.25"></line><line x1="0" y1="41.88888888888891" x2="1310.236875" y2="41.88888888888891" fill="rgb(0, 0, 0)" stroke="rgb(66, 66, 66)" stroke-width="1px" opacity="0.25"></line><line x1="0" y1="0" x2="1310.236875" y2="0" fill="rgb(0, 0, 0)" stroke="rgb(66, 66, 66)" stroke-width="1px" opacity="0.25"></line></g></g></g><g><g><line x1="0" y1="41888.888888888854" x2="1310.236875" y2="41888.888888888854" fill="rgb(0, 0, 0)" stroke="rgb(153, 153, 153)" stroke-width="1.5px"></line></g></g><g><g><line x1="109.18640625" y1="0" x2="109.18640625" y2="377" fill="rgb(0, 0, 0)" stroke="rgb(153, 153, 153)" stroke-width="1.5px"></line></g></g><g><g><g><g><g><path stroke="rgb(0, 153, 136)" stroke-width="2px" d="M152.86096875,440.9739274007302L158.3202890625,369.1503293989197L163.779609375,329.7831963729051L169.23892968750002,293.8795476326974L174.69825,262.06928759869453L180.1575703125,230.09530366661693L185.616890625,207.58270555520122L191.0762109375,195.47551516944728L196.53553125,177.44148677533883L201.99485156250003,168.85136952373892L207.454171875,155.6208061947184L212.91349218750003,160.49489086141293L218.3728125,152.18550305226108L223.83213281250002,130.58225030257177L229.291453125,123.46896635720226L234.75077343750002,112.98104321092252L240.21009375,115.9723458007453L245.6694140625,117.39560155356608L251.12873437500002,95.13241402878398L256.5880546875,109.16212809233653L262.04737500000005,106.4393487205289L267.5066953125,91.34408100297442L272.966015625,85.44284316746072L278.4253359375,83.85257967612799L283.88465625000003,83.73334237344854L289.3439765625,95.63831790996832L294.803296875,77.15742737896063L300.2626171875,69.96885170252618L305.7219375,78.37426473428292L311.1812578125,69.3057551892063L316.640578125,73.61304743854737L322.0998984375,67.2849442171685L327.55921875,70.07956127860065L333.0185390625,71.84921144520142L338.47785937500004,54.807404640150615L343.9371796875,50.152120302339526L349.3965,64.62762592995952L354.8558203125,59.94421147534999L360.315140625,48.221684249513075L365.7744609375,52.3287661056964L371.23378125,46.99409713096088L376.6931015625,68.02397197350432L382.152421875,62.1677789640041L387.6117421875,61.25270381215309L393.0710625,58.10501806721477L398.53038281249997,54.63744779100966L403.98970312500006,48.65794593562109L409.44902343750005,35.600486682661476L414.90834375,29.436851182328486L420.36766406250007,46.070386419608006L425.82698437500005,57.72234632235449L431.28630468750004,42.70996696614897L436.745625,35.09573831940377L442.20494531250006,51.87959820234914L447.66426562500004,58.42247416697519L453.1235859375,55.663840831060384L458.58290625,43.42534222514353L464.04222656250005,46.94420145935183L469.50154687500003,41.81387849839439L474.9608671875,38.17840513502329L480.4201875,30.983602253749325L485.87950781250004,50.898395461065654L491.338828125,53.93479283253587L496.7981484375,40.4374348722615L502.25746875000004,30.94681983804823L507.7167890625,32.77272911240983L513.176109375,34.981835141663616L518.6354296875,48.84109591735866L524.0947500000001,49.35773429449198L529.5540703125,35.74171990459732L535.013390625,30.07887070228573L540.4727109375,42.55663844191313L545.93203125,36.95322104969733L551.3913515625001,41.38908999371091L556.850671875,47.39329017193225L562.3099921875,41.52605213915065L567.7693125000001,37.91282938834692L573.2286328125,39.73673535866961L578.687953125,41.38835852765147L584.1472734375001,43.77253139602432L589.60659375,36.84683744197512L595.0659140625,29.907020553461326L600.525234375,27.413970471790265L605.9845546875,39.00821845877799L611.443875,31.38861031686828L616.9031953125,29.60224465675016L622.362515625,29.18058477860139L627.8218359375,41.08986628531759L633.28115625,40.25075723880986L638.7404765625,43.08997062271935L644.199796875,41.729459634644115L649.6591171875001,31.722034695477817L655.1184375,24.046739680542665L660.5777578125,15.542602981912355L666.037078125,13.503161272218188L671.4963984374999,34.28205283531263L676.9557187500001,31.70982989234291L682.4150390625001,34.62273540301853L687.874359375,29.68611979473443L693.3336796875001,23.938751204743742L698.793,24.39028844935538L704.2523203125,22.15445136449254L709.711640625,37.523347045841234L715.1709609375,38.9467650753111L720.63028125,30.888337340067856L726.0896015625001,32.08748009569203L731.548921875,37.63472475005572L737.0082421875001,34.557352421378596L742.4675625,35.68108940252153L747.9268828125,32.82789162606423L753.386203125,34.736292856464914L758.8455234375001,29.754254266801347L764.30484375,22.03015204315066L769.7641640625001,20.73836952076971L775.223484375,29.43205943812235L780.6828046875,31.02795349226166L786.142125,36.999008787996566L791.6014453125,33.06136367055817L797.0607656249999,39.611255153019414L802.5200859375001,36.29955154100819L807.9794062500001,32.54880939123316L813.4387265625,33.7339228443124L818.8980468750001,33.05179194917998L824.3573671875,35.892312292783565L829.8166875,32.954625360222366L835.2760078125,28.685253769056754L840.7353281250001,25.0100703497103L846.1946484375001,21.133121537727394L851.6539687500001,19.3642318373287L857.1132890625,27.77265615680667L862.5726093750001,35.6031099735174L868.0319296875,43.271542641892175L873.49125,35.15404393145367L878.9505703125,28.05542506696141L884.4098906250001,26.303013179894943L889.8692109375,19.40212780421297L895.3285312500001,20.553755235451085L900.7878515625,22.91557174563308L906.247171875,23.497740980493013L911.7064921875,22.732483347822196L917.1658125,19.766569336596366L922.6251328125,26.620859689387306L928.0844531250001,35.18967317752116L933.5437734375,35.31844111608707L939.0030937500001,29.26762384239037L944.4624140625,22.01681358189449L949.921734375,23.793406753496292L955.3810546875,21.51768255358577L960.840375,28.228807206370103L966.2996953125001,29.74872256641274L971.7590156250001,28.896951799869107L977.2183359375001,31.54280828949212L982.67765625,27.559523733222594L988.1369765625,25.726832586256613L993.596296875,26.57669774291112L999.0556171874999,36.83501477001423L1004.5149375000001,25.721328758281764L1009.9742578125001,24.066636014495444L1015.433578125,18.89622088515847L1020.8928984375001,18.579371032582106L1026.35221875,21.17466034605938L1031.8115390625,24.68131377897894L1037.270859375,24.557186200500524L1042.7301796875,19.469190790158436L1048.1895000000002,26.99971214831374L1053.6488203125,25.112305841912477L1059.108140625,23.979862058070815L1064.5674609375,17.173316459866477L1070.02678125,20.88730848028135L1075.4861015625,22.744183968004126L1080.945421875,23.116268520522457L1086.4047421875,24.453079716673056L1091.8640625,28.87648503957637L1097.3233828125,27.35292875025498L1102.7827031250001,23.374755958237536L1108.2420234375,22.937332127863968L1113.70134375,29.080596950937053L1119.1606640625,28.58895636171939L1124.619984375,23.559092938326042L1130.0793046875,24.44013457396018L1135.5386250000001,21.905719245861274L1140.9979453125002,19.270510875418893L1146.457265625,25.674063803691837L1151.9165859375,27.659595646955346L1157.37590625,25.786875734493446L1162.8352265624999,27.727282805435376L1168.2945468750002,23.04208880455657L1173.7538671875002,23.016371629052344L1179.2131875,26.06498034216976L1184.6725078125,24.27282696482825L1190.131828125,24.59073390540521" style="fill: none;" fill="none"></path></g><g><path stroke="rgb(187, 187, 187)" stroke-width="2px" d="M158.3202890625,378.6772352695304L163.779609375,346.0521896025595L169.23892968750002,353.4209077052059L174.69825,332.6654813379852L180.1575703125,316.8762919953944L185.616890625,304.05745704013066L191.0762109375,316.48269561371194L196.53553125,347.39724177143125L201.99485156250003,335.77954558786L207.454171875,355.6196607404677L212.91349218750003,342.38952674345313L218.3728125,322.72266087385975L223.83213281250002,300.8686822695675L229.291453125,296.1347146388974L234.75077343750002,301.6715682445321L240.21009375,335.1537605485654L245.6694140625,335.1369723937807L251.12873437500002,321.7222144485499L256.5880546875,343.8333981751785L262.04737500000005,323.58940770492995L267.5066953125,331.54903095920804L272.966015625,317.89362791025013L278.4253359375,321.4292259285617L283.88465625000003,306.795243924935L289.3439765625,296.33902152585404L294.803296875,301.79412623476424L300.2626171875,313.4453583581872L305.7219375,298.654255506668L311.1812578125,311.5614358490777L316.640578125,290.8215663709743L322.0998984375,296.80881816886745L327.55921875,303.751837728486L333.0185390625,299.5404788939167L338.47785937500004,308.7425013528487L343.9371796875,309.23621403726816L349.3965,321.2612794040765L354.8558203125,315.0726459803419L360.315140625,316.3859680059712L365.7744609375,349.0098060036933L371.23378125,356.8552710467149L376.6931015625,341.45554304561364L382.152421875,347.29521248341723L387.6117421875,325.6665037488427L393.0710625,312.6892785081286L398.53038281249997,319.98244960204175L403.98970312500006,305.9271788278158L409.44902343750005,294.1433478799783L414.90834375,300.4767219534622L420.36766406250007,290.87307375536335L425.82698437500005,305.216893154246L431.28630468750004,293.71717647584103L436.745625,325.3545282170814L442.20494531250006,335.95976869908145L447.66426562500004,307.1354010143725L453.1235859375,304.92128535078285L458.58290625,291.8639781976414L464.04222656250005,272.3007561507616L469.50154687500003,273.96749427375414L474.9608671875,268.2652014719894L480.4201875,289.97733489703774L485.87950781250004,318.08412119036365L491.338828125,303.11234818469654L496.7981484375,299.1567851696698L502.25746875000004,310.18712000282335L507.7167890625,303.4016482605468L513.176109375,319.4363735329135L518.6354296875,330.733042292459L524.0947500000001,330.8087078726288L529.5540703125,304.0447645185L535.013390625,299.7162349699509L540.4727109375,308.84795499581094L545.93203125,305.9488177396487L551.3913515625001,307.5600038692588L556.850671875,308.52671554702584L562.3099921875,300.7295719909456L567.7693125000001,316.15729417502735L573.2286328125,305.3079191677391L578.687953125,312.2029655144857L584.1472734375001,312.98832613028554L589.60659375,306.75720682420524L595.0659140625,294.64136467781384L600.525234375,278.99369011830254L605.9845546875,298.0892629720105L611.443875,304.5201046047995L616.9031953125,298.32560542560515L622.362515625,306.33774367307893L627.8218359375,324.54969797267995L633.28115625,301.96519217465055L638.7404765625,318.574499881373L644.199796875,296.70423972374743L649.6591171875001,300.3384221725323L655.1184375,284.0877582112517L660.5777578125,291.09269966891134L666.037078125,295.2956645435089L671.4963984374999,302.8439455476985L676.9557187500001,310.7245813424586L682.4150390625001,297.02178938876585L687.874359375,303.8796204548508L693.3336796875001,282.86080998839935L698.793,275.2760257879633L704.2523203125,275.75265605607234L709.711640625,324.6298188330248L715.1709609375,310.3914339625394L720.63028125,305.1990715235566L726.0896015625001,307.1101561396036L731.548921875,298.20380275036496L737.0082421875001,297.88649279625844L742.4675625,297.6961068237936L747.9268828125,305.9600445119939L753.386203125,300.86540296604727L758.8455234375001,292.7811172501029L764.30484375,272.85103958223755L769.7641640625001,265.91949506095403L775.223484375,280.19174177873265L780.6828046875,273.6745848621614L786.142125,276.4666263877723L791.6014453125,281.49351849539164L797.0607656249999,296.238491514949L802.5200859375001,283.3026347038921L807.9794062500001,307.3769653989179L813.4387265625,306.74205757763553L818.8980468750001,296.30711001705964L824.3573671875,285.0196394012802L829.8166875,281.5988242240625L835.2760078125,279.546335117731L840.7353281250001,285.0171773294895L846.1946484375001,286.62384906042104L851.6539687500001,274.18318074786697L857.1132890625,271.74528183976463L862.5726093750001,303.79422087269137L868.0319296875,297.890075186345L873.49125,321.1559317678272L878.9505703125,296.57826396843143L884.4098906250001,293.56050104378807L889.8692109375,290.0740096928757L895.3285312500001,299.7109526373167L900.7878515625,317.22195615897266L906.247171875,294.21787860311593L911.7064921875,267.0107607184851L917.1658125,279.170667577124L922.6251328125,306.57361871898433L928.0844531250001,338.0948956424031L933.5437734375,316.7946464520428L939.0030937500001,305.69033053395674L944.4624140625,285.6230696319874L949.921734375,286.9873844419207L955.3810546875,306.23714675842945L960.840375,287.6269929627909L966.2996953125001,291.54040692371495L971.7590156250001,308.9689602475004L977.2183359375001,322.7767607250894L982.67765625,310.9554326939037L988.1369765625,292.1327994112658L993.596296875,297.5955579850424L999.0556171874999,279.0903725065162L1004.5149375000001,283.06776616663797L1009.9742578125001,297.1830401177023L1015.433578125,305.652204488341L1020.8928984375001,292.30252968017356L1026.35221875,284.2927247952694L1031.8115390625,302.9445173743141L1037.270859375,294.0285858950668L1042.7301796875,293.706527795891L1048.1895000000002,296.8639614196958L1053.6488203125,302.109090077288L1059.108140625,295.2031631129775L1064.5674609375,287.708938451079L1070.02678125,298.29190989224065L1075.4861015625,307.99335994918385L1080.945421875,302.08539222836123L1086.4047421875,310.269449350858L1091.8640625,303.4510458693657L1097.3233828125,304.3865058599005L1102.7827031250001,296.56961258254404L1108.2420234375,303.60831437112057L1113.70134375,294.42686409314877L1119.1606640625,307.34916735691354L1124.619984375,274.8895339707665L1130.0793046875,277.19559585293723L1135.5386250000001,278.57923298223784L1140.9979453125002,287.7875845315039L1146.457265625,286.6102597855061L1151.9165859375,297.6327026928959L1157.37590625,312.62433770901646L1162.8352265624999,308.21464736757014L1168.2945468750002,313.94700243438336L1173.7538671875002,288.9012391761161L1179.2131875,295.6566218439507L1184.6725078125,303.06051992796455L1190.131828125,295.7740210233825" style="fill: none;" fill="none"></path></g></g></g></g><g opacity="0.2"><g><g><g><path stroke="rgb(0, 153, 136)" stroke-width="2px" d="M141.94232812500002,430.07652627097195L147.4016484375,322.8476444880165L152.86096875,327.02474461661416L158.3202890625,262.50065697563997L163.779609375,271.0895538330076L169.23892968750002,240.21946059332933L174.69825,214.457763565911L180.1575703125,182.19696813159504L185.616890625,173.8402711020574L191.0762109375,177.32326851950734L196.53553125,150.3980755805968L201.99485156250003,155.96837467617445L207.454171875,135.77697674433378L212.91349218750003,167.80557235081977L218.3728125,139.72187704510145L223.83213281250002,98.17808204227013L229.291453125,112.79918087853314L234.75077343750002,97.24928273095017L240.21009375,120.45927842458079L245.6694140625,119.5304791132608L251.12873437500002,61.73768970701425L256.5880546875,130.2066776487561L262.04737500000005,102.35518217086783L267.5066953125,68.70118776957187L272.966015625,76.59098837110726L278.4253359375,81.46718475553715L283.88465625000003,83.55448643366489L289.3439765625,113.49578036202313L294.803296875,49.43609237670894L300.2626171875,59.18598837322653L305.7219375,90.98238415188254L311.1812578125,55.70299095577658L316.640578125,80.07398578855721L322.0998984375,57.79278940624655L327.55921875,74.27148686514956L333.0185390625,74.50368669297953L338.47785937500004,29.24469444486829L343.9371796875,43.169193797641306L349.3965,86.34088436762485L354.8558203125,52.91908979415889L360.315140625,30.63789341184827L365.7744609375,58.48938888973654L371.23378125,38.9920936690436L376.6931015625,99.56878423690787L382.152421875,53.383489449818875L387.6117421875,59.880091084374286L393.0710625,53.383489449818875L398.53038281249997,49.43609237670894L403.98970312500006,39.68869315253359L409.44902343750005,16.014297803242986L414.90834375,20.19139793184065L420.36766406250007,71.02068927552958L425.82698437500005,75.20028617646952L431.28630468750004,20.19139793184065L436.745625,23.674395349290602L442.20494531250006,77.05538802676725L447.66426562500004,68.23678811391189L453.1235859375,51.52589082717891L458.58290625,25.067594316270583L464.04222656250005,52.2224903106689L469.50154687500003,34.11839405695594L474.9608671875,32.72519508997596L480.4201875,20.19139793184065L485.87950781250004,80.7705852720472L491.338828125,58.48938888973654L496.7981484375,20.19139793184065L502.25746875000004,16.710897286732976L507.7167890625,35.51159302393592L513.176109375,38.29549418555361L518.6354296875,69.62998708089187L524.0947500000001,50.13269186019893L529.5540703125,15.317698319752997L535.013390625,21.58459689882063L540.4727109375,61.273290051354266L545.93203125,28.5480949613783L551.3913515625001,48.04289340972896L556.850671875,56.39959043926657L562.3099921875,32.72519508997596L567.7693125000001,32.49299526214595L573.2286328125,42.472594314151316L578.687953125,43.865793281131296L584.1472734375001,47.34879069858125L589.60659375,26.45829651090833L595.0659140625,19.497295220692937L600.525234375,23.674395349290602L605.9845546875,56.39959043926657L611.443875,19.95919810401068L616.9031953125,26.922696166568308L622.362515625,28.5480949613783L627.8218359375,58.95378854539656L633.28115625,38.9920936690436L638.7404765625,47.34879069858125L644.199796875,39.68869315253359L649.6591171875001,16.710897286732976L655.1184375,12.533797158135313L660.5777578125,2.786397933959961L666.037078125,10.443998707665342L671.4963984374999,65.45039017995192L676.9557187500001,27.85149547788831L682.4150390625001,38.9920936690436L687.874359375,22.281196382310622L693.3336796875001,15.317698319752997L698.793,25.067594316270583L704.2523203125,18.800695737202947L709.711640625,60.576690567864276L715.1709609375,41.08189211951357L720.63028125,18.800695737202947L726.0896015625001,33.886194229125934L731.548921875,45.95559173160127L737.0082421875001,29.94129392835828L742.4675625,37.36669487423365L747.9268828125,28.5480949613783L753.386203125,37.59889470206362L758.8455234375001,22.281196382310622L764.30484375,10.443998707665342L769.7641640625001,18.800695737202947L775.223484375,42.472594314151316L780.6828046875,33.42179457346595L786.142125,45.95559173160127L791.6014453125,27.15489599439832L797.0607656249999,49.43609237670894L802.5200859375001,31.331996122995985L807.9794062500001,26.922696166568308L813.4387265625,35.51159302393592L818.8980468750001,32.02859560648597L824.3573671875,40.15309280819361L829.8166875,28.5480949613783L835.2760078125,22.281196382310622L840.7353281250001,19.497295220692937L846.1946484375001,15.317698319752997L851.6539687500001,16.710897286732976L857.1132890625,40.38529263602358L862.5726093750001,47.34879069858125L868.0319296875,54.77419164445662L873.49125,22.977795865800612L878.9505703125,17.407496770222966L884.4098906250001,23.674395349290602L889.8692109375,9.050799740685362L895.3285312500001,22.281196382310622L900.7878515625,26.45829651090833L906.247171875,24.370994832780593L911.7064921875,21.58459689882063L917.1658125,15.317698319752997L922.6251328125,36.90229521857363L928.0844531250001,48.04289340972896L933.5437734375,35.51159302393592L939.0030937500001,20.19139793184065L944.4624140625,11.140598191155332L949.921734375,26.45829651090833L955.3810546875,18.104096253712957L960.840375,38.29549418555361L966.2996953125001,32.02859560648597L971.7590156250001,27.619295650058298L977.2183359375001,35.51159302393592L982.67765625,21.58459689882063L988.1369765625,22.977795865800612L993.596296875,27.85149547788831L999.0556171874999,52.2224903106689L1004.5149375000001,9.050799740685362L1009.9742578125001,21.58459689882063L1015.433578125,11.140598191155332L1020.8928984375001,18.104096253712957L1026.35221875,25.067594316270583L1031.8115390625,29.94129392835828L1037.270859375,24.370994832780593L1042.7301796875,11.837197674645322L1048.1895000000002,38.29549418555361L1053.6488203125,22.281196382310622L1059.108140625,22.281196382310622L1064.5674609375,6.963498062557626L1070.02678125,26.45829651090833L1075.4861015625,25.529497199588327L1080.945421875,23.674395349290602L1086.4047421875,26.45829651090833L1091.8640625,35.51159302393592L1097.3233828125,25.067594316270583L1102.7827031250001,17.407496770222966L1108.2420234375,22.281196382310622L1113.70134375,38.29549418555361L1119.1606640625,27.85149547788831L1124.619984375,16.014297803242986L1130.0793046875,25.76169702741834L1135.5386250000001,18.104096253712957L1140.9979453125002,15.317698319752997L1146.457265625,35.279393196105914L1151.9165859375,30.63789341184827L1157.37590625,22.977795865800612L1162.8352265624999,30.63789341184827L1168.2945468750002,16.014297803242986L1173.7538671875002,22.977795865800612L1179.2131875,30.63789341184827L1184.6725078125,21.58459689882063L1190.131828125,25.067594316270583" style="fill: none;" fill="none"></path></g><g><path stroke="rgb(187, 187, 187)" stroke-width="2px" d="M125.56436718750001,444.02099980248306L131.02368750000002,351.8676294220815L136.4830078125,448.210583792792L147.4016484375,527.8001957469512L152.86096875,372.81055582894186L158.3202890625,293.223440647125L163.779609375,297.4105278650917L169.23892968750002,364.43388462066616L174.69825,301.60011185540066L180.1575703125,293.223440647125L185.616890625,284.84427266650704L191.0762109375,335.1117902331879L196.53553125,393.75597900814444L201.99485156250003,318.35595104429433L207.454171875,385.3768110275265L212.91349218750003,322.5455350346033L218.3728125,293.223440647125L223.83213281250002,268.0884334776134L229.291453125,289.03385665681606L234.75077343750002,309.97678306367635L240.21009375,385.3768110275265L245.6694140625,335.1117902331879L251.12873437500002,301.60011185540066L256.5880546875,377.0001398192509L262.04737500000005,293.223440647125L267.5066953125,343.4884614414636L272.966015625,297.4105278650917L278.4253359375,326.73262225256997L283.88465625000003,284.84427266650704L289.3439765625,280.6546886761981L294.803296875,309.97678306367635L300.2626171875,330.92220624287893L305.7219375,276.46760145823134L311.1812578125,330.92220624287893L316.640578125,259.7117622693377L322.0998984375,305.7896958457096L327.55921875,314.1663670539853L333.0185390625,293.223440647125L338.47785937500004,322.5455350346033L343.9371796875,309.97678306367635L349.3965,339.2988774511546L354.8558203125,305.7896958457096L360.315140625,318.35595104429433L365.7744609375,397.9455629984534L371.23378125,368.6234686109751L376.6931015625,318.35595104429433L382.152421875,356.05471664004824L387.6117421875,293.223440647125L393.0710625,293.223440647125L398.53038281249997,330.92220624287893L403.98970312500006,284.84427266650704L409.44902343750005,276.46760145823134L414.90834375,309.97678306367635L420.36766406250007,276.46760145823134L425.82698437500005,326.73262225256997L431.28630468750004,276.46760145823134L436.745625,372.81055582894186L442.20494531250006,351.8676294220815L447.66426562500004,263.89884948730446L453.1235859375,301.60011185540066L458.58290625,272.2780174679224L464.04222656250005,242.95592308044414L469.50154687500003,276.46760145823134L474.9608671875,259.7117622693377L480.4201875,322.5455350346033L485.87950781250004,360.2443006303572L491.338828125,280.6546886761981L496.7981484375,293.223440647125L502.25746875000004,326.73262225256997L507.7167890625,293.223440647125L513.176109375,343.4884614414636L518.6354296875,347.67804543177255L524.0947500000001,330.92220624287893L529.5540703125,263.89884948730446L535.013390625,293.223440647125L540.4727109375,322.5455350346033L545.93203125,301.60011185540066L551.3913515625001,309.97678306367635L556.850671875,309.97678306367635L562.3099921875,289.03385665681606L567.7693125000001,339.2988774511546L573.2286328125,289.03385665681606L578.687953125,322.5455350346033L584.1472734375001,314.1663670539853L589.60659375,297.4105278650917L595.0659140625,276.46760145823134L600.525234375,255.5221782790288L605.9845546875,326.73262225256997L611.443875,314.1663670539853L616.9031953125,289.03385665681606L622.362515625,318.35595104429433L627.8218359375,351.8676294220815L633.28115625,268.0884334776134L638.7404765625,343.4884614414636L644.199796875,263.89884948730446L649.6591171875001,305.7896958457096L655.1184375,259.7117622693377L660.5777578125,301.60011185540066L666.037078125,301.60011185540066L671.4963984374999,314.1663670539853L676.9557187500001,322.5455350346033L682.4150390625001,276.46760145823134L687.874359375,314.1663670539853L693.3336796875001,251.33259428871983L698.793,263.89884948730446L704.2523203125,276.46760145823134L709.711640625,397.9455629984534L715.1709609375,289.03385665681606L720.63028125,297.4105278650917L726.0896015625001,309.97678306367635L731.548921875,284.84427266650704L737.0082421875001,297.4105278650917L742.4675625,297.4105278650917L747.9268828125,318.35595104429433L753.386203125,293.223440647125L758.8455234375001,280.6546886761981L764.30484375,242.95592308044414L769.7641640625001,255.5221782790288L775.223484375,301.60011185540066L780.6828046875,263.89884948730446L786.142125,280.6546886761981L791.6014453125,289.03385665681606L797.0607656249999,318.35595104429433L802.5200859375001,263.89884948730446L807.9794062500001,343.4884614414636L813.4387265625,305.7896958457096L818.8980468750001,280.6546886761981L824.3573671875,268.0884334776134L829.8166875,276.46760145823134L835.2760078125,276.46760145823134L840.7353281250001,293.223440647125L846.1946484375001,289.03385665681606L851.6539687500001,255.5221782790288L857.1132890625,268.0884334776134L862.5726093750001,351.8676294220815L868.0319296875,289.03385665681606L873.49125,356.05471664004824L878.9505703125,259.7117622693377L884.4098906250001,289.03385665681606L889.8692109375,284.84427266650704L895.3285312500001,314.1663670539853L900.7878515625,343.4884614414636L906.247171875,259.7117622693377L911.7064921875,226.2000838915505L917.1658125,297.4105278650917L922.6251328125,347.67804543177255L928.0844531250001,385.3768110275265L933.5437734375,284.84427266650704L939.0030937500001,289.03385665681606L944.4624140625,255.5221782790288L949.921734375,289.03385665681606L955.3810546875,335.1117902331879L960.840375,259.7117622693377L966.2996953125001,297.4105278650917L971.7590156250001,335.1117902331879L977.2183359375001,343.4884614414636L982.67765625,293.223440647125L988.1369765625,263.89884948730446L993.596296875,305.7896958457096L999.0556171874999,251.33259428871983L1004.5149375000001,289.03385665681606L1009.9742578125001,318.35595104429433L1015.433578125,318.35595104429433L1020.8928984375001,272.2780174679224L1026.35221875,272.2780174679224L1031.8115390625,330.92220624287893L1037.270859375,280.6546886761981L1042.7301796875,293.223440647125L1048.1895000000002,301.60011185540066L1053.6488203125,309.97678306367635L1059.108140625,284.84427266650704L1064.5674609375,276.46760145823134L1070.02678125,314.1663670539853L1075.4861015625,322.5455350346033L1080.945421875,293.223440647125L1086.4047421875,322.5455350346033L1091.8640625,293.223440647125L1097.3233828125,305.7896958457096L1102.7827031250001,284.84427266650704L1108.2420234375,314.1663670539853L1113.70134375,280.6546886761981L1119.1606640625,326.73262225256997L1124.619984375,226.2000838915505L1130.0793046875,280.6546886761981L1135.5386250000001,280.6546886761981L1140.9979453125002,301.60011185540066L1146.457265625,284.84427266650704L1151.9165859375,314.1663670539853L1157.37590625,335.1117902331879L1162.8352265624999,301.60011185540066L1168.2945468750002,322.5455350346033L1173.7538671875002,251.33259428871983L1179.2131875,305.7896958457096L1184.6725078125,314.1663670539853L1190.131828125,284.84427266650704" style="fill: none;" fill="none"></path></g></g></g></g></g></g><g transform="translate(61, 377)" clip-path="url(#clip_1)"><clipPath id="clip_1"><rect width="1310" height="22"></rect></clipPath><g><g><line x1="0" y1="0" x2="0" y2="5" style="visibility: inherit;" fill="rgb(0, 0, 0)" stroke="rgb(204, 204, 204)" stroke-width="1px"></line><line x1="109.18640625" y1="0" x2="109.18640625" y2="5" style="visibility: inherit;" fill="rgb(0, 0, 0)" stroke="rgb(204, 204, 204)" stroke-width="1px"></line><line x1="218.3728125" y1="0" x2="218.3728125" y2="5" style="visibility: inherit;" fill="rgb(0, 0, 0)" stroke="rgb(204, 204, 204)" stroke-width="1px"></line><line x1="327.55921875" y1="0" x2="327.55921875" y2="5" style="visibility: inherit;" fill="rgb(0, 0, 0)" stroke="rgb(204, 204, 204)" stroke-width="1px"></line><line x1="436.745625" y1="0" x2="436.745625" y2="5" style="visibility: inherit;" fill="rgb(0, 0, 0)" stroke="rgb(204, 204, 204)" stroke-width="1px"></line><line x1="545.93203125" y1="0" x2="545.93203125" y2="5" style="visibility: inherit;" fill="rgb(0, 0, 0)" stroke="rgb(204, 204, 204)" stroke-width="1px"></line><line x1="655.1184375" y1="0" x2="655.1184375" y2="5" style="visibility: inherit;" fill="rgb(0, 0, 0)" stroke="rgb(204, 204, 204)" stroke-width="1px"></line><line x1="764.30484375" y1="0" x2="764.30484375" y2="5" style="visibility: inherit;" fill="rgb(0, 0, 0)" stroke="rgb(204, 204, 204)" stroke-width="1px"></line><line x1="873.49125" y1="0" x2="873.49125" y2="5" style="visibility: inherit;" fill="rgb(0, 0, 0)" stroke="rgb(204, 204, 204)" stroke-width="1px"></line><line x1="982.67765625" y1="0" x2="982.67765625" y2="5" style="visibility: inherit;" fill="rgb(0, 0, 0)" stroke="rgb(204, 204, 204)" stroke-width="1px"></line><line x1="1091.8640625" y1="0" x2="1091.8640625" y2="5" style="visibility: inherit;" fill="rgb(0, 0, 0)" stroke="rgb(204, 204, 204)" stroke-width="1px"></line><line x1="1201.05046875" y1="0" x2="1201.05046875" y2="5" style="visibility: inherit;" fill="rgb(0, 0, 0)" stroke="rgb(204, 204, 204)" stroke-width="1px"></line><line x1="1310.236875" y1="0" x2="1310.236875" y2="5" style="visibility: inherit;" fill="rgb(0, 0, 0)" stroke="rgb(204, 204, 204)" stroke-width="1px"></line></g><g transform="translate(0, 8)"><text x="0" y="0" dx="0em" dy="0.95em" style="text-anchor: middle; visibility: hidden; font-family: Roboto, sans-serif; font-size: 12px; font-weight: 200;" fill="rgb(33, 33, 33)" stroke="none" stroke-width="1px">-20</text><text x="109.18640625" y="0" dx="0em" dy="0.95em" style="text-anchor: middle; visibility: inherit; font-family: Roboto, sans-serif; font-size: 12px; font-weight: 200;" fill="rgb(33, 33, 33)" stroke="none" stroke-width="1px">0</text><text x="218.3728125" y="0" dx="0em" dy="0.95em" style="text-anchor: middle; visibility: inherit; font-family: Roboto, sans-serif; font-size: 12px; font-weight: 200;" fill="rgb(33, 33, 33)" stroke="none" stroke-width="1px">20</text><text x="327.55921875" y="0" dx="0em" dy="0.95em" style="text-anchor: middle; visibility: inherit; font-family: Roboto, sans-serif; font-size: 12px; font-weight: 200;" fill="rgb(33, 33, 33)" stroke="none" stroke-width="1px">40</text><text x="436.745625" y="0" dx="0em" dy="0.95em" style="text-anchor: middle; visibility: inherit; font-family: Roboto, sans-serif; font-size: 12px; font-weight: 200;" fill="rgb(33, 33, 33)" stroke="none" stroke-width="1px">60</text><text x="545.93203125" y="0" dx="0em" dy="0.95em" style="text-anchor: middle; visibility: inherit; font-family: Roboto, sans-serif; font-size: 12px; font-weight: 200;" fill="rgb(33, 33, 33)" stroke="none" stroke-width="1px">80</text><text x="655.1184375" y="0" dx="0em" dy="0.95em" style="text-anchor: middle; visibility: inherit; font-family: Roboto, sans-serif; font-size: 12px; font-weight: 200;" fill="rgb(33, 33, 33)" stroke="none" stroke-width="1px">100</text><text x="764.30484375" y="0" dx="0em" dy="0.95em" style="text-anchor: middle; visibility: inherit; font-family: Roboto, sans-serif; font-size: 12px; font-weight: 200;" fill="rgb(33, 33, 33)" stroke="none" stroke-width="1px">120</text><text x="873.49125" y="0" dx="0em" dy="0.95em" style="text-anchor: middle; visibility: inherit; font-family: Roboto, sans-serif; font-size: 12px; font-weight: 200;" fill="rgb(33, 33, 33)" stroke="none" stroke-width="1px">140</text><text x="982.67765625" y="0" dx="0em" dy="0.95em" style="text-anchor: middle; visibility: inherit; font-family: Roboto, sans-serif; font-size: 12px; font-weight: 200;" fill="rgb(33, 33, 33)" stroke="none" stroke-width="1px">160</text><text x="1091.8640625" y="0" dx="0em" dy="0.95em" style="text-anchor: middle; visibility: inherit; font-family: Roboto, sans-serif; font-size: 12px; font-weight: 200;" fill="rgb(33, 33, 33)" stroke="none" stroke-width="1px">180</text><text x="1201.05046875" y="0" dx="0em" dy="0.95em" style="text-anchor: middle; visibility: inherit; font-family: Roboto, sans-serif; font-size: 12px; font-weight: 200;" fill="rgb(33, 33, 33)" stroke="none" stroke-width="1px">200</text><text x="1310.236875" y="0" dx="0em" dy="0.95em" style="text-anchor: middle; visibility: hidden; font-family: Roboto, sans-serif; font-size: 12px; font-weight: 200;" fill="rgb(33, 33, 33)" stroke="none" stroke-width="1px">220</text></g><line x1="0" y1="0" x2="1310.236875" y2="0" fill="rgb(0, 0, 0)" stroke="rgb(204, 204, 204)" stroke-width="1px"></line></g></g></g></g></svg>