<svg viewBox="0 0 1372.1875 400" xmlns="http://www.w3.org/2000/svg"><g><g><g><g><g><line x1="61.953125" y1="377" x2="56.953125" y2="377" style="visibility: inherit;" fill="rgb(0, 0, 0)" stroke="rgb(204, 204, 204)" stroke-width="1px"></line><line x1="61.953125" y1="350.07142857142856" x2="56.953125" y2="350.07142857142856" style="visibility: inherit;" fill="rgb(0, 0, 0)" stroke="rgb(204, 204, 204)" stroke-width="1px"></line><line x1="61.953125" y1="323.14285714285717" x2="56.953125" y2="323.14285714285717" style="visibility: inherit;" fill="rgb(0, 0, 0)" stroke="rgb(204, 204, 204)" stroke-width="1px"></line><line x1="61.953125" y1="296.2142857142857" x2="56.953125" y2="296.2142857142857" style="visibility: inherit;" fill="rgb(0, 0, 0)" stroke="rgb(204, 204, 204)" stroke-width="1px"></line><line x1="61.953125" y1="269.2857142857143" x2="56.953125" y2="269.2857142857143" style="visibility: inherit;" fill="rgb(0, 0, 0)" stroke="rgb(204, 204, 204)" stroke-width="1px"></line><line x1="61.953125" y1="242.35714285714283" x2="56.953125" y2="242.35714285714283" style="visibility: inherit;" fill="rgb(0, 0, 0)" stroke="rgb(204, 204, 204)" stroke-width="1px"></line><line x1="61.953125" y1="215.42857142857142" x2="56.953125" y2="215.42857142857142" style="visibility: inherit;" fill="rgb(0, 0, 0)" stroke="rgb(204, 204, 204)" stroke-width="1px"></line><line x1="61.953125" y1="188.5" x2="56.953125" y2="188.5" style="visibility: inherit;" fill="rgb(0, 0, 0)" stroke="rgb(204, 204, 204)" stroke-width="1px"></line><line x1="61.953125" y1="161.57142857142858" x2="56.953125" y2="161.57142857142858" style="visibility: inherit;" fill="rgb(0, 0, 0)" stroke="rgb(204, 204, 204)" stroke-width="1px"></line><line x1="61.953125" y1="134.64285714285717" x2="56.953125" y2="134.64285714285717" style="visibility: inherit;" fill="rgb(0, 0, 0)" stroke="rgb(204, 204, 204)" stroke-width="1px"></line><line x1="61.953125" y1="107.71428571428571" x2="56.953125" y2="107.71428571428571" style="visibility: inherit;" fill="rgb(0, 0, 0)" stroke="rgb(204, 204, 204)" stroke-width="1px"></line><line x1="61.953125" y1="80.78571428571429" x2="56.953125" y2="80.78571428571429" style="visibility: inherit;" fill="rgb(0, 0, 0)" stroke="rgb(204, 204, 204)" stroke-width="1px"></line><line x1="61.953125" y1="53.857142857142875" x2="56.953125" y2="53.857142857142875" style="visibility: inherit;" fill="rgb(0, 0, 0)" stroke="rgb(204, 204, 204)" stroke-width="1px"></line><line x1="61.953125" y1="26.92857142857146" x2="56.953125" y2="26.92857142857146" style="visibility: inherit;" fill="rgb(0, 0, 0)" stroke="rgb(204, 204, 204)" stroke-width="1px"></line><line x1="61.953125" y1="0" x2="56.953125" y2="0" style="visibility: inherit;" fill="rgb(0, 0, 0)" stroke="rgb(204, 204, 204)" stroke-width="1px"></line></g><g transform="translate(51.953125, 0)"><text x="0" y="377" dx="0em" dy="0.3em" style="text-anchor: end; visibility: hidden; font-family: Roboto, sans-serif; font-size: 12px; font-weight: 200;" fill="rgb(33, 33, 33)" stroke="none" stroke-width="1px">0</text><text x="0" y="350.07142857142856" dx="0em" dy="0.3em" style="text-anchor: end; visibility: inherit; font-family: Roboto, sans-serif; font-size: 12px; font-weight: 200;" fill="rgb(33, 33, 33)" stroke="none" stroke-width="1px">2e-3</text><text x="0" y="323.14285714285717" dx="0em" dy="0.3em" style="text-anchor: end; visibility: inherit; font-family: Roboto, sans-serif; font-size: 12px; font-weight: 200;" fill="rgb(33, 33, 33)" stroke="none" stroke-width="1px">4e-3</text><text x="0" y="296.2142857142857" dx="0em" dy="0.3em" style="text-anchor: end; visibility: inherit; font-family: Roboto, sans-serif; font-size: 12px; font-weight: 200;" fill="rgb(33, 33, 33)" stroke="none" stroke-width="1px">6e-3</text><text x="0" y="269.2857142857143" dx="0em" dy="0.3em" style="text-anchor: end; visibility: inherit; font-family: Roboto, sans-serif; font-size: 12px; font-weight: 200;" fill="rgb(33, 33, 33)" stroke="none" stroke-width="1px">8e-3</text><text x="0" y="242.35714285714283" dx="0em" dy="0.3em" style="text-anchor: end; visibility: inherit; font-family: Roboto, sans-serif; font-size: 12px; font-weight: 200;" fill="rgb(33, 33, 33)" stroke="none" stroke-width="1px">0.01</text><text x="0" y="215.42857142857142" dx="0em" dy="0.3em" style="text-anchor: end; visibility: inherit; font-family: Roboto, sans-serif; font-size: 12px; font-weight: 200;" fill="rgb(33, 33, 33)" stroke="none" stroke-width="1px">0.012</text><text x="0" y="188.5" dx="0em" dy="0.3em" style="text-anchor: end; visibility: inherit; font-family: Roboto, sans-serif; font-size: 12px; font-weight: 200;" fill="rgb(33, 33, 33)" stroke="none" stroke-width="1px">0.014</text><text x="0" y="161.57142857142858" dx="0em" dy="0.3em" style="text-anchor: end; visibility: inherit; font-family: Roboto, sans-serif; font-size: 12px; font-weight: 200;" fill="rgb(33, 33, 33)" stroke="none" stroke-width="1px">0.016</text><text x="0" y="134.64285714285717" dx="0em" dy="0.3em" style="text-anchor: end; visibility: inherit; font-family: Roboto, sans-serif; font-size: 12px; font-weight: 200;" fill="rgb(33, 33, 33)" stroke="none" stroke-width="1px">0.018</text><text x="0" y="107.71428571428571" dx="0em" dy="0.3em" style="text-anchor: end; visibility: inherit; font-family: Roboto, sans-serif; font-size: 12px; font-weight: 200;" fill="rgb(33, 33, 33)" stroke="none" stroke-width="1px">0.02</text><text x="0" y="80.78571428571429" dx="0em" dy="0.3em" style="text-anchor: end; visibility: inherit; font-family: Roboto, sans-serif; font-size: 12px; font-weight: 200;" fill="rgb(33, 33, 33)" stroke="none" stroke-width="1px">0.022</text><text x="0" y="53.857142857142875" dx="0em" dy="0.3em" style="text-anchor: end; visibility: inherit; font-family: Roboto, sans-serif; font-size: 12px; font-weight: 200;" fill="rgb(33, 33, 33)" stroke="none" stroke-width="1px">0.024</text><text x="0" y="26.92857142857146" dx="0em" dy="0.3em" style="text-anchor: end; visibility: inherit; font-family: Roboto, sans-serif; font-size: 12px; font-weight: 200;" fill="rgb(33, 33, 33)" stroke="none" stroke-width="1px">0.026</text><text x="0" y="0" dx="0em" dy="0.3em" style="text-anchor: end; visibility: hidden; font-family: Roboto, sans-serif; font-size: 12px; font-weight: 200;" fill="rgb(33, 33, 33)" stroke="none" stroke-width="1px">0.028</text></g><line x1="61.953125" y1="0" x2="61.953125" y2="377" fill="rgb(0, 0, 0)" stroke="rgb(204, 204, 204)" stroke-width="1px"></line></g></g><g transform="translate(61, 0)" clip-path="url(#clip_0)"><clipPath id="clip_0"><rect width="1310" height="376"></rect></clipPath><g><g><g><line x1="0" y1="0" x2="0" y2="377" fill="rgb(0, 0, 0)" stroke="rgb(66, 66, 66)" stroke-width="1px" opacity="0.25"></line><line x1="109.18640625" y1="0" x2="109.18640625" y2="377" fill="rgb(0, 0, 0)" stroke="rgb(66, 66, 66)" stroke-width="1px" opacity="0.25"></line><line x1="218.3728125" y1="0" x2="218.3728125" y2="377" fill="rgb(0, 0, 0)" stroke="rgb(66, 66, 66)" stroke-width="1px" opacity="0.25"></line><line x1="327.55921875" y1="0" x2="327.55921875" y2="377" fill="rgb(0, 0, 0)" stroke="rgb(66, 66, 66)" stroke-width="1px" opacity="0.25"></line><line x1="436.745625" y1="0" x2="436.745625" y2="377" fill="rgb(0, 0, 0)" stroke="rgb(66, 66, 66)" stroke-width="1px" opacity="0.25"></line><line x1="545.93203125" y1="0" x2="545.93203125" y2="377" fill="rgb(0, 0, 0)" stroke="rgb(66, 66, 66)" stroke-width="1px" opacity="0.25"></line><line x1="655.1184375" y1="0" x2="655.1184375" y2="377" fill="rgb(0, 0, 0)" stroke="rgb(66, 66, 66)" stroke-width="1px" opacity="0.25"></line><line x1="764.30484375" y1="0" x2="764.30484375" y2="377" fill="rgb(0, 0, 0)" stroke="rgb(66, 66, 66)" stroke-width="1px" opacity="0.25"></line><line x1="873.49125" y1="0" x2="873.49125" y2="377" fill="rgb(0, 0, 0)" stroke="rgb(66, 66, 66)" stroke-width="1px" opacity="0.25"></line><line x1="982.67765625" y1="0" x2="982.67765625" y2="377" fill="rgb(0, 0, 0)" stroke="rgb(66, 66, 66)" stroke-width="1px" opacity="0.25"></line><line x1="1091.8640625" y1="0" x2="1091.8640625" y2="377" fill="rgb(0, 0, 0)" stroke="rgb(66, 66, 66)" stroke-width="1px" opacity="0.25"></line><line x1="1201.05046875" y1="0" x2="1201.05046875" y2="377" fill="rgb(0, 0, 0)" stroke="rgb(66, 66, 66)" stroke-width="1px" opacity="0.25"></line><line x1="1310.236875" y1="0" x2="1310.236875" y2="377" fill="rgb(0, 0, 0)" stroke="rgb(66, 66, 66)" stroke-width="1px" opacity="0.25"></line></g><g><line x1="0" y1="377" x2="1310.236875" y2="377" fill="rgb(0, 0, 0)" stroke="rgb(66, 66, 66)" stroke-width="1px" opacity="0.25"></line><line x1="0" y1="350.07142857142856" x2="1310.236875" y2="350.07142857142856" fill="rgb(0, 0, 0)" stroke="rgb(66, 66, 66)" stroke-width="1px" opacity="0.25"></line><line x1="0" y1="323.14285714285717" x2="1310.236875" y2="323.14285714285717" fill="rgb(0, 0, 0)" stroke="rgb(66, 66, 66)" stroke-width="1px" opacity="0.25"></line><line x1="0" y1="296.2142857142857" x2="1310.236875" y2="296.2142857142857" fill="rgb(0, 0, 0)" stroke="rgb(66, 66, 66)" stroke-width="1px" opacity="0.25"></line><line x1="0" y1="269.2857142857143" x2="1310.236875" y2="269.2857142857143" fill="rgb(0, 0, 0)" stroke="rgb(66, 66, 66)" stroke-width="1px" opacity="0.25"></line><line x1="0" y1="242.35714285714283" x2="1310.236875" y2="242.35714285714283" fill="rgb(0, 0, 0)" stroke="rgb(66, 66, 66)" stroke-width="1px" opacity="0.25"></line><line x1="0" y1="215.42857142857142" x2="1310.236875" y2="215.42857142857142" fill="rgb(0, 0, 0)" stroke="rgb(66, 66, 66)" stroke-width="1px" opacity="0.25"></line><line x1="0" y1="188.5" x2="1310.236875" y2="188.5" fill="rgb(0, 0, 0)" stroke="rgb(66, 66, 66)" stroke-width="1px" opacity="0.25"></line><line x1="0" y1="161.57142857142858" x2="1310.236875" y2="161.57142857142858" fill="rgb(0, 0, 0)" stroke="rgb(66, 66, 66)" stroke-width="1px" opacity="0.25"></line><line x1="0" y1="134.64285714285717" x2="1310.236875" y2="134.64285714285717" fill="rgb(0, 0, 0)" stroke="rgb(66, 66, 66)" stroke-width="1px" opacity="0.25"></line><line x1="0" y1="107.71428571428571" x2="1310.236875" y2="107.71428571428571" fill="rgb(0, 0, 0)" stroke="rgb(66, 66, 66)" stroke-width="1px" opacity="0.25"></line><line x1="0" y1="80.78571428571429" x2="1310.236875" y2="80.78571428571429" fill="rgb(0, 0, 0)" stroke="rgb(66, 66, 66)" stroke-width="1px" opacity="0.25"></line><line x1="0" y1="53.857142857142875" x2="1310.236875" y2="53.857142857142875" fill="rgb(0, 0, 0)" stroke="rgb(66, 66, 66)" stroke-width="1px" opacity="0.25"></line><line x1="0" y1="26.92857142857146" x2="1310.236875" y2="26.92857142857146" fill="rgb(0, 0, 0)" stroke="rgb(66, 66, 66)" stroke-width="1px" opacity="0.25"></line><line x1="0" y1="0" x2="1310.236875" y2="0" fill="rgb(0, 0, 0)" stroke="rgb(66, 66, 66)" stroke-width="1px" opacity="0.25"></line></g></g></g><g><g><line x1="0" y1="377" x2="1310.236875" y2="377" fill="rgb(0, 0, 0)" stroke="rgb(153, 153, 153)" stroke-width="1.5px"></line></g></g><g><g><line x1="109.18640625" y1="0" x2="109.18640625" y2="377" fill="rgb(0, 0, 0)" stroke="rgb(153, 153, 153)" stroke-width="1.5px"></line></g></g><g><g><g><g><g><path stroke="rgb(255, 112, 67)" stroke-width="2px" d="M158.3202890625,-5.585333448944693L163.779609375,34.38132417720032L169.23892968750002,76.3540570533904L174.69825,109.52556862841989L180.1575703125,138.99988878117685L185.616890625,163.04186314628L191.0762109375,181.95201830610063L196.53553125,198.90298581129653L201.99485156250003,208.14512027924286L207.454171875,221.6427142788993L212.91349218750003,219.25580136573151L218.3728125,227.1674663159199L223.83213281250002,249.41215485699877L229.291453125,257.0806800324582L234.75077343750002,263.939470680549L240.21009375,263.2678312906248L245.6694140625,262.30627926895164L251.12873437500002,281.0971543942301L256.5880546875,264.6760248842755L262.04737500000005,268.36543967158894L267.5066953125,284.6455600672065L272.966015625,291.42611665874074L278.4253359375,293.9418350986769L283.88465625000003,293.60424906840683L289.3439765625,283.2268204248459L294.803296875,301.89111284705484L300.2626171875,308.8735056333796L305.7219375,299.86532776968187L311.1812578125,308.07365685533017L316.640578125,304.87460542752785L322.0998984375,310.7504503402565L327.55921875,308.1346212685026L333.0185390625,306.27693137113056L338.47785937500004,322.6103852264851L343.9371796875,327.0379427970475L349.3965,308.67924512732725L354.8558203125,314.03422975400997L360.315140625,323.10250083062726L365.7744609375,319.1286290334876L371.23378125,326.9747932876789L376.6931015625,307.1714994150992L382.152421875,313.1556220456837L387.6117421875,314.7512143705866L393.0710625,317.81058177981157L398.53038281249997,316.6867428572006L403.98970312500006,322.3643516483433L409.44902343750005,336.5610726346145L414.90834375,344.52784777923364L420.36766406250007,330.00580916262544L425.82698437500005,319.55765301495546L431.28630468750004,334.2188301422291L436.745625,341.35283588678806L442.20494531250006,323.8793630115073L447.66426562500004,311.88395735106855L453.1235859375,314.88823733462726L458.58290625,330.4178340891478L464.04222656250005,327.9244677647743L469.50154687500003,330.7841208234838L474.9608671875,335.4687466267529L480.4201875,343.64164152462234L485.87950781250004,317.91414037094165L491.338828125,316.0594010173483L496.7981484375,331.59580921560035L502.25746875000004,342.2678285031768L507.7167890625,339.13141912490465L513.176109375,339.8902400411813L518.6354296875,324.57041833299434L524.0947500000001,325.08292779966547L529.5540703125,338.5105653677624L535.013390625,342.70915709032283L540.4727109375,326.09844537640737L545.93203125,332.9233813686187L551.3913515625001,332.3840955231007L556.850671875,321.28652306217305L562.3099921875,326.8954486016533L567.7693125000001,331.954382578512L573.2286328125,328.74918742370267L578.687953125,327.96637454327544L584.1472734375001,322.0930412821482L589.60659375,332.4732144155945L595.0659140625,340.23709243774454L600.525234375,343.35302796560126L605.9845546875,328.2888141013645L611.443875,337.6963697650315L616.9031953125,340.1200835611764L622.362515625,341.22859274540656L627.8218359375,321.4711887936381L633.28115625,324.6807002213734L638.7404765625,317.8098974699205L644.199796875,321.543568790723L649.6591171875001,337.89721042109994L655.1184375,347.314044595838L660.5777578125,358.1974074213703L666.037078125,361.5835928959189L671.4963984374999,328.07424572502094L676.9557187500001,334.5158064891816L682.4150390625001,331.56020112452825L687.874359375,339.68087415792087L693.3336796875001,345.4640838089545L698.793,343.5282636848366L704.2523203125,350.7573764663242L709.711640625,327.0071139367169L715.1709609375,324.38691251483107L720.63028125,332.88655156882925L726.0896015625001,333.0375418957131L731.548921875,326.7415971143748L737.0082421875001,331.7922675324737L742.4675625,331.4292502041294L747.9268828125,336.1002635619422L753.386203125,332.6819053882598L758.8455234375001,338.76355653410764L764.30484375,349.7471490425286L769.7641640625001,350.2071080857945L775.223484375,339.6411869305566L780.6828046875,338.3337880508484L786.142125,331.3721494769277L791.6014453125,339.85104611422327L797.0607656249999,324.34327152224733L802.5200859375001,324.5005223665101L807.9794062500001,332.75968166246895L813.4387265625,331.09223181920106L818.8980468750001,333.0148878099763L824.3573671875,326.2685013004452L829.8166875,328.6562971178393L835.2760078125,335.8551774004019L840.7353281250001,343.7255233839227L846.1946484375001,350.5725989049105L851.6539687500001,352.0036642596966L857.1132890625,338.1151813062891L862.5726093750001,321.68785933745806L868.0319296875,314.5081125542737L873.49125,326.7862490310543L878.9505703125,335.5131012159844L884.4098906250001,334.21139338874667L889.8692109375,348.46422182461515L895.3285312500001,340.8487937453539L900.7878515625,335.72315389192147L906.247171875,331.7143740716479L911.7064921875,336.1492498947813L917.1658125,345.17367662543535L922.6251328125,336.0621129878452L928.0844531250001,324.44038130439077L933.5437734375,321.0563469250732L939.0030937500001,331.3576469353055L944.4624140625,343.1942067025076L949.921734375,341.8629319309298L955.3810546875,347.9217245164086L960.840375,328.958879956522L966.2996953125001,325.33526393499153L971.7590156250001,327.49689944388246L977.2183359375001,317.68292838573456L982.67765625,329.84729780407775L988.1369765625,336.36728344472004L993.596296875,330.4055677654763L999.0556171874999,314.13572383138273L1004.5149375000001,333.6070307338917L1009.9742578125001,335.38251236054754L1015.433578125,344.25995726440516L1020.8928984375001,347.89685383452723L1026.35221875,336.83746345940125L1031.8115390625,326.9164482825315L1037.270859375,329.3422862697454L1042.7301796875,340.78680583625066L1048.1895000000002,329.5007491002855L1053.6488203125,333.8091209600399L1059.108140625,337.1697668220014L1064.5674609375,348.50884816424576L1070.02678125,338.7910139025945L1075.4861015625,335.9223057115771L1080.945421875,336.0837590240667L1086.4047421875,331.4498374805076L1091.8640625,324.52281160943477L1097.3233828125,327.8150279462492L1102.7827031250001,338.9674584317007L1108.2420234375,341.2896453077524L1113.70134375,324.388759274255L1119.1606640625,324.34107539523245L1124.619984375,333.70220026067767L1130.0793046875,328.90534238935L1135.5386250000001,337.51161413246473L1140.9979453125002,346.34972941555645L1146.457265625,334.27457759204424L1151.9165859375,326.9431313351524L1157.37590625,328.81202376946914L1162.8352265624999,326.5658589900759L1168.2945468750002,335.54053383208145L1173.7538671875002,336.419629650873L1179.2131875,329.4393605621103L1184.6725078125,331.2729362398768L1190.131828125,331.32616981658714" style="fill: none;" fill="none"></path></g></g></g></g><g opacity="0.2"><g><g><g><path stroke="rgb(255, 112, 67)" stroke-width="2px" d="M141.94232812500002,-45.83428141048975L147.4016484375,33.35731270802874L152.86096875,35.11874937000022L158.3202890625,102.84634640121035L163.779609375,93.96881597329464L169.23892968750002,139.08474260887928L174.69825,159.17452525028162L180.1575703125,183.1536257487855L185.616890625,199.07656425556965L191.0762109375,210.30391413931335L196.53553125,224.3222639877349L201.99485156250003,222.00597540422208L207.454171875,241.88704905579135L212.91349218750003,215.67565016927466L218.3728125,239.0345298466938L223.83213281250002,282.77845569766527L229.291453125,268.58331639399483L234.75077343750002,274.22757540377125L240.21009375,262.26037697946384L245.6694140625,260.86395533702205L251.12873437500002,309.28341900144835L256.5880546875,240.04435582964547L262.04737500000005,273.89955845408673L267.5066953125,309.06573166285773L272.966015625,301.5969492975356L278.4253359375,297.7154122580375L283.88465625000003,293.09787006330276L289.3439765625,267.66067820281853L294.803296875,329.88755067823723L300.2626171875,319.34709463281825L305.7219375,286.35306111350656L311.1812578125,320.3861504076049L316.640578125,300.0760283036424L322.0998984375,319.5642176897132L327.55921875,304.2108776661168L333.0185390625,303.4903965273074L338.47785937500004,347.11056599772667L343.9371796875,333.67927915097346L349.3965,281.14119862751767L354.8558203125,322.0667066931991L360.315140625,336.7049074447049L365.7744609375,313.1678213380011L371.23378125,338.7440396687016L376.6931015625,277.4665586066299L382.152421875,322.13180599148785L387.6117421875,317.14460285792927L393.0710625,322.3996328936358L398.53038281249997,315.000984473287L403.98970312500006,330.88076483504847L409.44902343750005,357.85615411400795L414.90834375,356.4780104961579L420.36766406250007,308.2227512377181L425.82698437500005,303.88541879345263L431.28630468750004,356.21059583313763L436.745625,352.05384450362595L442.20494531250006,297.66915369858697L447.66426562500004,293.8908488604107L453.1235859375,319.39465730996534L458.58290625,353.71222922092835L464.04222656250005,324.18441827821414L469.50154687500003,335.07360041154817L474.9608671875,342.4956853316565L480.4201875,355.90098387142643L485.87950781250004,279.3228886404208L491.338828125,313.27729198695823L496.7981484375,354.9004215129784L502.25746875000004,358.27585743454154L507.7167890625,334.4268050574964L513.176109375,341.02847141559636L518.6354296875,301.59068577071383L524.0947500000001,325.85169199967225L529.5540703125,358.6520217199078L535.013390625,349.0070446741634L540.4727109375,301.1823778055342L545.93203125,343.16078535693566L551.3913515625001,331.5751667548237L556.850671875,304.64016437078163L562.3099921875,335.30883691087365L567.7693125000001,339.54278354380017L573.2286328125,323.9413946914886L578.687953125,326.7921552226347L584.1472734375001,313.2830413904573L589.60659375,348.04347411576396L595.0659140625,351.88290947096954L600.525234375,348.0269312573863L605.9845546875,305.6924933050094L611.443875,351.8077032605319L616.9031953125,343.7556542553939L622.362515625,342.89135652175173L627.8218359375,291.8350828659854L633.28115625,329.4949673629765L638.7404765625,307.50369334274103L644.199796875,327.1440757719268L649.6591171875001,362.4276728666654L655.1184375,361.4392958579452L660.5777578125,374.52245165966866L666.037078125,366.6628711077418L671.4963984374999,277.81022496867394L676.9557187500001,344.17814763542265L682.4150390625001,327.12679307754814L687.874359375,351.86188370800977L693.3336796875001,354.138898285505L698.793,340.62453349865973L704.2523203125,361.60104563855566L709.711640625,291.38172014230594L715.1709609375,320.4566103820024L720.63028125,345.63601014982646L726.0896015625001,333.26402738603895L731.548921875,317.2976799423673L737.0082421875001,339.3682731596221L742.4675625,330.884724211613L747.9268828125,343.1067835986614L753.386203125,327.55436812773615L758.8455234375001,347.88603325287943L764.30484375,366.22253780515996L769.7641640625001,350.89704665069337L775.223484375,323.7923051976998L780.6828046875,336.3726897312861L786.142125,320.9296916160466L791.6014453125,352.5693910701666L797.0607656249999,301.0816096342834L802.5200859375001,324.73639863290424L807.9794062500001,345.1484206064072L813.4387265625,328.5910570542993L818.8980468750001,335.89887179613913L824.3573671875,316.14892153614863L829.8166875,332.23799084393045L835.2760078125,346.6534978242458L840.7353281250001,355.53104235920387L846.1946484375001,360.8432121863921L851.6539687500001,354.15026229187583L857.1132890625,317.2824568761779L862.5726093750001,297.04687638421143L868.0319296875,303.7384923794972L873.49125,345.20345374622514L878.9505703125,348.6033794933797L884.4098906250001,332.25883164788996L889.8692109375,369.84346447841796L895.3285312500001,329.42565162646184L900.7878515625,328.0346941117729L906.247171875,325.70120434123754L911.7064921875,342.8015636294814L917.1658125,358.71031672141646L922.6251328125,322.3947675314599L928.0844531250001,307.0077837792092L933.5437734375,315.980295356097L939.0030937500001,346.80959695065394L944.4624140625,360.9490463533106L949.921734375,339.8660197735631L955.3810546875,357.0099133946268L960.840375,300.5146131166922L966.2996953125001,319.8998399026958L971.7590156250001,330.7393527072189L977.2183359375001,302.96197179851254L982.67765625,348.0938519315927L988.1369765625,346.1472619056835L993.596296875,321.46299424661055L999.0556171874999,289.73095793024237L1004.5149375000001,362.81399108765515L1009.9742578125001,338.0457348005314L1015.433578125,357.5761246201915L1020.8928984375001,353.35219868971035L1026.35221875,320.24837789671227L1031.8115390625,312.03492551722695L1037.270859375,332.9810432505661L1042.7301796875,357.95358518600864L1048.1895000000002,312.5716639963378L1053.6488203125,340.2716787496715L1059.108140625,342.2107356149437L1064.5674609375,365.51747017761227L1070.02678125,324.2142625101177L1075.4861015625,331.619243425051L1080.945421875,336.325938992801L1086.4047421875,324.4989551651691L1091.8640625,314.13227280282547L1097.3233828125,332.75335245147085L1102.7827031250001,355.696104159878L1108.2420234375,344.7729256218299L1113.70134375,299.03743022400886L1119.1606640625,324.2695495766987L1124.619984375,347.74388755884553L1130.0793046875,321.7100555823584L1135.5386250000001,350.42102174713676L1140.9979453125002,359.6069023401942L1146.457265625,316.1618498567758L1151.9165859375,315.94596194981466L1157.37590625,331.6153624209442L1162.8352265624999,323.1966118209862L1168.2945468750002,349.0025460950897L1173.7538671875002,337.73827337906033L1179.2131875,318.9689569289663L1184.6725078125,334.0232997565264L1190.131828125,331.4060201816527" style="fill: none;" fill="none"></path></g></g></g></g></g></g><g transform="translate(61, 377)" clip-path="url(#clip_1)"><clipPath id="clip_1"><rect width="1310" height="22"></rect></clipPath><g><g><line x1="0" y1="0" x2="0" y2="5" style="visibility: inherit;" fill="rgb(0, 0, 0)" stroke="rgb(204, 204, 204)" stroke-width="1px"></line><line x1="109.18640625" y1="0" x2="109.18640625" y2="5" style="visibility: inherit;" fill="rgb(0, 0, 0)" stroke="rgb(204, 204, 204)" stroke-width="1px"></line><line x1="218.3728125" y1="0" x2="218.3728125" y2="5" style="visibility: inherit;" fill="rgb(0, 0, 0)" stroke="rgb(204, 204, 204)" stroke-width="1px"></line><line x1="327.55921875" y1="0" x2="327.55921875" y2="5" style="visibility: inherit;" fill="rgb(0, 0, 0)" stroke="rgb(204, 204, 204)" stroke-width="1px"></line><line x1="436.745625" y1="0" x2="436.745625" y2="5" style="visibility: inherit;" fill="rgb(0, 0, 0)" stroke="rgb(204, 204, 204)" stroke-width="1px"></line><line x1="545.93203125" y1="0" x2="545.93203125" y2="5" style="visibility: inherit;" fill="rgb(0, 0, 0)" stroke="rgb(204, 204, 204)" stroke-width="1px"></line><line x1="655.1184375" y1="0" x2="655.1184375" y2="5" style="visibility: inherit;" fill="rgb(0, 0, 0)" stroke="rgb(204, 204, 204)" stroke-width="1px"></line><line x1="764.30484375" y1="0" x2="764.30484375" y2="5" style="visibility: inherit;" fill="rgb(0, 0, 0)" stroke="rgb(204, 204, 204)" stroke-width="1px"></line><line x1="873.49125" y1="0" x2="873.49125" y2="5" style="visibility: inherit;" fill="rgb(0, 0, 0)" stroke="rgb(204, 204, 204)" stroke-width="1px"></line><line x1="982.67765625" y1="0" x2="982.67765625" y2="5" style="visibility: inherit;" fill="rgb(0, 0, 0)" stroke="rgb(204, 204, 204)" stroke-width="1px"></line><line x1="1091.8640625" y1="0" x2="1091.8640625" y2="5" style="visibility: inherit;" fill="rgb(0, 0, 0)" stroke="rgb(204, 204, 204)" stroke-width="1px"></line><line x1="1201.05046875" y1="0" x2="1201.05046875" y2="5" style="visibility: inherit;" fill="rgb(0, 0, 0)" stroke="rgb(204, 204, 204)" stroke-width="1px"></line><line x1="1310.236875" y1="0" x2="1310.236875" y2="5" style="visibility: inherit;" fill="rgb(0, 0, 0)" stroke="rgb(204, 204, 204)" stroke-width="1px"></line></g><g transform="translate(0, 8)"><text x="0" y="0" dx="0em" dy="0.95em" style="text-anchor: middle; visibility: hidden; font-family: Roboto, sans-serif; font-size: 12px; font-weight: 200;" fill="rgb(33, 33, 33)" stroke="none" stroke-width="1px">-20</text><text x="109.18640625" y="0" dx="0em" dy="0.95em" style="text-anchor: middle; visibility: inherit; font-family: Roboto, sans-serif; font-size: 12px; font-weight: 200;" fill="rgb(33, 33, 33)" stroke="none" stroke-width="1px">0</text><text x="218.3728125" y="0" dx="0em" dy="0.95em" style="text-anchor: middle; visibility: inherit; font-family: Roboto, sans-serif; font-size: 12px; font-weight: 200;" fill="rgb(33, 33, 33)" stroke="none" stroke-width="1px">20</text><text x="327.55921875" y="0" dx="0em" dy="0.95em" style="text-anchor: middle; visibility: inherit; font-family: Roboto, sans-serif; font-size: 12px; font-weight: 200;" fill="rgb(33, 33, 33)" stroke="none" stroke-width="1px">40</text><text x="436.745625" y="0" dx="0em" dy="0.95em" style="text-anchor: middle; visibility: inherit; font-family: Roboto, sans-serif; font-size: 12px; font-weight: 200;" fill="rgb(33, 33, 33)" stroke="none" stroke-width="1px">60</text><text x="545.93203125" y="0" dx="0em" dy="0.95em" style="text-anchor: middle; visibility: inherit; font-family: Roboto, sans-serif; font-size: 12px; font-weight: 200;" fill="rgb(33, 33, 33)" stroke="none" stroke-width="1px">80</text><text x="655.1184375" y="0" dx="0em" dy="0.95em" style="text-anchor: middle; visibility: inherit; font-family: Roboto, sans-serif; font-size: 12px; font-weight: 200;" fill="rgb(33, 33, 33)" stroke="none" stroke-width="1px">100</text><text x="764.30484375" y="0" dx="0em" dy="0.95em" style="text-anchor: middle; visibility: inherit; font-family: Roboto, sans-serif; font-size: 12px; font-weight: 200;" fill="rgb(33, 33, 33)" stroke="none" stroke-width="1px">120</text><text x="873.49125" y="0" dx="0em" dy="0.95em" style="text-anchor: middle; visibility: inherit; font-family: Roboto, sans-serif; font-size: 12px; font-weight: 200;" fill="rgb(33, 33, 33)" stroke="none" stroke-width="1px">140</text><text x="982.67765625" y="0" dx="0em" dy="0.95em" style="text-anchor: middle; visibility: inherit; font-family: Roboto, sans-serif; font-size: 12px; font-weight: 200;" fill="rgb(33, 33, 33)" stroke="none" stroke-width="1px">160</text><text x="1091.8640625" y="0" dx="0em" dy="0.95em" style="text-anchor: middle; visibility: inherit; font-family: Roboto, sans-serif; font-size: 12px; font-weight: 200;" fill="rgb(33, 33, 33)" stroke="none" stroke-width="1px">180</text><text x="1201.05046875" y="0" dx="0em" dy="0.95em" style="text-anchor: middle; visibility: inherit; font-family: Roboto, sans-serif; font-size: 12px; font-weight: 200;" fill="rgb(33, 33, 33)" stroke="none" stroke-width="1px">200</text><text x="1310.236875" y="0" dx="0em" dy="0.95em" style="text-anchor: middle; visibility: hidden; font-family: Roboto, sans-serif; font-size: 12px; font-weight: 200;" fill="rgb(33, 33, 33)" stroke="none" stroke-width="1px">220</text></g><line x1="0" y1="0" x2="1310.236875" y2="0" fill="rgb(0, 0, 0)" stroke="rgb(204, 204, 204)" stroke-width="1px"></line></g></g></g></g></svg>